M48
INCH
T74C0.118
T73C0.020
%
T73
X026476Y015335
X026476Y015118
X026476Y014902
X026476Y014685
X026476Y014469
X026476Y014252
X026476Y014035
X026476Y013819
X026476Y013602
X026476Y013386
X026476Y013169
X026476Y012953
X026476Y012736
X026476Y012520
X026476Y012303
X026673Y015217
X026673Y012362
X026870Y015315
X026870Y012303
X027087Y015315
X027087Y012303
X027303Y015315
X027303Y012303
X027520Y015315
X027520Y012303
X027736Y015315
X027736Y012303
X027953Y015315
X027953Y012303
X028169Y015315
X028169Y012303
X028386Y015315
X028386Y012303
X028602Y015315
X028602Y012303
X028819Y015315
X028819Y012303
X029035Y015315
X029035Y012303
X029252Y015315
X029252Y012303
X029469Y015315
X029469Y012303
X029685Y015315
X029685Y012303
X029902Y015315
X029902Y012303
X030118Y015315
X030118Y012303
X030335Y015315
X030335Y012303
X030551Y015315
X030551Y012303
X030768Y015315
X030768Y012303
X030984Y015315
X030984Y012303
X031201Y015315
X031201Y012303
X031417Y015315
X031417Y012303
X031634Y015315
X031634Y012303
X031850Y015315
X031850Y012303
X032067Y015315
X032067Y012303
X032283Y015315
X032283Y012303
X032500Y015315
X032500Y015098
X032500Y014882
X032500Y014665
X032500Y014449
X032500Y014232
X032500Y014016
X032500Y013799
X032500Y013583
X032500Y013366
X032500Y013150
X032500Y012933
X032500Y012717
X032500Y012500
X032500Y012283
T74
X029528Y023622
X029528Y003937
M30
