M48
INCH
T56C0.020
%
T56
X019079Y011555
X019087Y008028
X019173Y011339
X019173Y011102
X019173Y010866
X019173Y010630
X019173Y010394
X019173Y010157
X019173Y009921
X019173Y009685
X019173Y009449
X019173Y009213
X019173Y008976
X019173Y008740
X019173Y008504
X019173Y008268
X019370Y011496
X019370Y008110
X019606Y011496
X019606Y008110
X019843Y011496
X019843Y008110
X020079Y011496
X020079Y008110
X020315Y011496
X020315Y008110
X020551Y011496
X020551Y008110
X020787Y011496
X020787Y008110
X021024Y011496
X021024Y008110
X021260Y011496
X021260Y008110
X021496Y011496
X021496Y008110
X021732Y011496
X021732Y008110
X021969Y011496
X021969Y008110
X022205Y011496
X022205Y008110
X022441Y011496
X022441Y008110
X022677Y011496
X022677Y008110
X022913Y011496
X022913Y008110
X023150Y011496
X023150Y008110
X023386Y011496
X023386Y008110
X023622Y011496
X023622Y008110
X023858Y011496
X023858Y008110
X024094Y011496
X024094Y008110
X024331Y011496
X024331Y008110
X024567Y011496
X024567Y008110
X024803Y011496
X024803Y008110
X025039Y011496
X025039Y008110
X025276Y011496
X025276Y008110
X025512Y011496
X025512Y008110
X025748Y011496
X025748Y008110
X025984Y011496
X025984Y008110
X026220Y011496
X026220Y008110
X026457Y011496
X026457Y008110
X026693Y011496
X026693Y008110
X026929Y011496
X026929Y008110
X027165Y011496
X027165Y008110
X027402Y011496
X027402Y008110
X027638Y011496
X027638Y008110
X027874Y011496
X027874Y008110
X028110Y011496
X028110Y008110
X028346Y011496
X028346Y008110
X028583Y011496
X028583Y008110
X028819Y011496
X028819Y008110
X029055Y011496
X029055Y008110
X029291Y011496
X029291Y008110
X029528Y011496
X029528Y008110
X029764Y011496
X029764Y008110
X030000Y011496
X030000Y008110
X030236Y011496
X030236Y008110
X030472Y011496
X030472Y008110
X030709Y011496
X030709Y008110
X030945Y011496
X030945Y008110
X031181Y011496
X031181Y008110
X031417Y011496
X031417Y008110
X031654Y011496
X031654Y008110
X031890Y011496
X031890Y008110
X032126Y011496
X032126Y008110
X032362Y011496
X032362Y008110
X032598Y011496
X032598Y008110
X032835Y011496
X032835Y008110
X033071Y011496
X033071Y008110
X033307Y011496
X033307Y008110
X033543Y011496
X033543Y008110
X033701Y011339
X033701Y011102
X033701Y010866
X033701Y010630
X033701Y010394
X033701Y010157
X033701Y009921
X033701Y009685
X033701Y009449
X033701Y009213
X033701Y008976
X033701Y008740
X033701Y008504
X033701Y008268
X033791Y011567
X033795Y008020
M30
