G04 start of page 2 for group 0 idx 0 *
G04 Title: (unknown), top *
G04 Creator: pcb 4.1.2 *
G04 CreationDate: Sun Sep 16 08:13:39 2018 UTC *
G04 For: mytch *
G04 Format: Gerber/RS-274X *
G04 PCB-Dimensions (mil): 3543.31 1968.50 *
G04 PCB-Coordinate-Origin: lower left *
%MOIN*%
%FSLAX25Y25*%
%LNTOP*%
%ADD21C,0.0300*%
%ADD20C,0.0430*%
%ADD19C,0.0380*%
%ADD18C,0.0200*%
%ADD17C,0.0550*%
%ADD16C,0.0650*%
%ADD15C,0.0360*%
%ADD14C,0.0600*%
%ADD13C,0.0001*%
%ADD12C,0.0100*%
%ADD11C,0.0250*%
G54D11*X57244Y153386D02*X71693D01*
X71949Y153642D02*Y118602D01*
X71693Y153386D02*X90551Y172244D01*
X71949Y118602D02*X104724Y85827D01*
X285433Y172244D02*X90551D01*
X116142Y153386D02*X286417D01*
X173543D02*X178150D01*
G54D12*X187402D02*X194724D01*
G54D11*X175945Y120590D02*Y103346D01*
Y153386D02*X175354D01*
Y150590D01*
X175945D01*
Y153386D01*
X176023Y93346D02*Y63976D01*
X183897Y56102D01*
X175354Y151575D02*X173543Y153386D01*
X175945Y150590D02*X178741Y153386D01*
G54D12*X271654Y24606D02*X99409D01*
X96457Y18701D02*X272638D01*
X300157Y123189D02*X300945D01*
X291969Y123504D02*X292283Y123189D01*
X299449Y123898D02*X300157Y123189D01*
G54D11*X296220Y72598D02*Y60000D01*
X292323Y56102D01*
X291339D02*X183897D01*
X292283Y123189D02*Y147677D01*
X300157Y123189D02*Y157520D01*
X285433Y172244D01*
X286417Y153386D02*X292126Y147677D01*
G54D12*X303815Y72318D02*Y56767D01*
X312008Y72559D02*Y58071D01*
X303815Y56767D02*X271654Y24606D01*
X312008Y58071D02*X272638Y18701D01*
G54D11*X104724Y85827D02*Y35827D01*
X107480Y33071D01*
X115827D01*
X116142Y33386D01*
X114882D01*
X114567Y33071D01*
G54D12*X57165Y43307D02*X57087Y43386D01*
X57126Y43346D02*X80669D01*
X57087Y33386D02*X81772D01*
X96457Y18701D01*
X80669Y43346D02*X99409Y24606D01*
X19685Y120079D02*X27244D01*
X19685Y100394D02*X27559D01*
X19685Y80709D02*X27244D01*
X19685Y137795D02*Y60039D01*
X27205D01*
X27559Y70394D02*X35748D01*
X48425Y83071D01*
X56772D01*
X57087Y83386D01*
X56614D01*
X56299Y83071D01*
X27559Y90394D02*X45512D01*
X57087Y113386D02*X54724D01*
X45512Y90394D02*X48031Y92913D01*
X56614D01*
X57087Y93386D01*
X56654Y92953D01*
X27559Y110394D02*X40000D01*
X47638Y102756D01*
X56457D01*
X57087Y103386D01*
Y153386D02*X35276D01*
X19685Y137795D01*
X27559Y130394D02*X30236D01*
X47244Y113386D01*
X57087D01*
G54D13*G36*
X113142Y166386D02*Y160386D01*
X119142D01*
Y166386D01*
X113142D01*
G37*
G36*
X54087D02*Y160386D01*
X60087D01*
Y166386D01*
X54087D01*
G37*
G54D14*X116142Y153386D03*
Y143386D03*
Y133386D03*
Y123386D03*
G54D15*X284410Y123189D03*
X292284D03*
X300158D03*
X308032D03*
X288347Y72598D03*
X296221D03*
X304095D03*
X311969D03*
G54D14*X116142Y113386D03*
Y103386D03*
Y93386D03*
Y83386D03*
Y73386D03*
Y63386D03*
Y53386D03*
Y43386D03*
Y33386D03*
G54D13*G36*
X172773Y96596D02*Y90096D01*
X179273D01*
Y96596D01*
X172773D01*
G37*
G54D16*X176023Y103346D03*
G54D13*G36*
X173195Y123340D02*Y117840D01*
X178695D01*
Y123340D01*
X173195D01*
G37*
G54D17*X175945Y150590D03*
G54D14*X57087Y153386D03*
Y143386D03*
Y133386D03*
Y123386D03*
Y113386D03*
Y103386D03*
Y93386D03*
X27559Y100394D03*
Y90394D03*
Y80394D03*
X57087Y83386D03*
Y73386D03*
Y63386D03*
Y53386D03*
Y43386D03*
Y33386D03*
G54D13*G36*
X24559Y133394D02*Y127394D01*
X30559D01*
Y133394D01*
X24559D01*
G37*
G54D14*X27559Y120394D03*
Y110394D03*
Y70394D03*
Y60394D03*
G54D18*G54D19*G54D18*G54D19*G54D20*G54D21*G54D19*M02*
