M48
INCH
T43C0.043
T42C0.030
T41C0.038
T40C0.020
T39C0.059
%
T40
X011551Y027150
X023216Y031209
X023216Y028138
X024724Y037874
X026449Y036268
X026843Y031209
X027236Y036268
X027630Y031209
X027854Y033661
X028024Y036268
X028417Y031209
X028740Y037874
X028811Y036268
X029205Y031209
T42
X016016Y039134
X016016Y036134
T41
X004016Y040150
X004016Y039150
X004016Y038150
X004016Y037150
X004016Y036150
X004016Y035150
X004016Y034150
X004016Y033150
X004016Y032150
X004016Y031150
X004016Y030150
X004016Y029150
X004016Y028150
X004016Y027150
X010016Y040150
X010016Y039150
X010016Y038150
X010016Y037150
X010016Y036150
X010016Y035150
X010016Y034150
X010016Y033150
X010016Y032150
X010016Y031150
X010016Y030150
X010016Y029150
X010016Y028150
X010016Y027150
T43
X016020Y034476
X016020Y033476
T39
X042921Y043558
X042921Y035783
X042921Y028007
X042921Y020330
X043921Y046058
X043921Y038283
X043921Y030507
X043921Y022830
M30
