M48
INCH
T72C0.020
T71C0.035
T70C0.038
%
T72
X008583Y015551
X015000Y018661
X027028Y016291
X027028Y011331
X027728Y016291
X027728Y011331
X028428Y016291
X028428Y011331
X029128Y016291
X029128Y011331
X029828Y016291
X029828Y011331
X030528Y016291
X030528Y011331
X031228Y016291
X031228Y011331
X031928Y016291
X031928Y011331
T71
X014646Y003858
X014646Y001858
X016457Y003898
X016457Y001898
X017008Y021063
X017008Y019063
T70
X003150Y017126
X003150Y016126
X003150Y015126
X003150Y014126
X003150Y013126
X003150Y012126
X003150Y011126
X003150Y010126
X005906Y020079
X005906Y019079
X005906Y018079
X005906Y017079
X005906Y016079
X005906Y015079
X005906Y014079
X005906Y013079
X005906Y012079
X005906Y011079
X005906Y010079
X005906Y009079
X005906Y008079
X005906Y007079
X011811Y020079
X011811Y019079
X011811Y018079
X011811Y017079
X011811Y016079
X011811Y015079
X011811Y014079
X011811Y013079
X011811Y012079
X011811Y011079
X011811Y010079
X011811Y009079
X011811Y008079
X011811Y007079
M30
