G04 start of page 2 for group 0 idx 0 *
G04 Title: (unknown), top *
G04 Creator: pcb 4.1.2 *
G04 CreationDate: Sat Sep 15 12:59:34 2018 UTC *
G04 For: mytch *
G04 Format: Gerber/RS-274X *
G04 PCB-Dimensions (mil): 6000.00 5000.00 *
G04 PCB-Coordinate-Origin: lower left *
%MOIN*%
%FSLAX25Y25*%
%LNTOP*%
%ADD24C,0.0430*%
%ADD23C,0.0300*%
%ADD22C,0.0380*%
%ADD21C,0.1575*%
%ADD20C,0.0669*%
%ADD19C,0.0590*%
%ADD18C,0.0200*%
%ADD17C,0.0650*%
%ADD16C,0.0550*%
%ADD15C,0.0600*%
%ADD14C,0.0001*%
%ADD13C,0.0360*%
%ADD12C,0.1000*%
%ADD11C,0.0100*%
G54D11*X159213Y391496D02*X271890D01*
X131575Y378740D02*X130551Y377717D01*
X206614Y372756D02*X132480D01*
X247244Y378740D02*X131575D01*
X264488Y362677D02*X216693D01*
X206693Y372677D01*
X207008Y372362D01*
X85125Y422912D02*X119565D01*
X84141Y427832D02*X123502D01*
X112717Y411104D02*X89523D01*
X122517Y427832D02*X390590D01*
X117597Y422912D02*X355726D01*
X115629Y417008D02*X350805D01*
X112677Y411104D02*X344901D01*
X344959D02*Y410993D01*
X288111Y362677D02*X288567Y363134D01*
X287829Y362958D02*X288110Y362677D01*
X249453Y260552D02*X283893Y294992D01*
X232165Y281378D02*X100276D01*
X100157Y281496D01*
Y271496D02*X115512D01*
X280236Y362677D02*X281024D01*
X272047Y362992D02*X272362Y362677D01*
X369094Y337598D02*Y246063D01*
X368701Y245079D02*Y245276D01*
X369094Y245669D01*
X368701Y245276D02*X369291D01*
X268425Y312086D02*X232165D01*
X231890Y311811D01*
X36417Y245079D02*X368701D01*
X271890Y391496D02*X272047Y391339D01*
Y362992D01*
X280236Y362677D02*Y391260D01*
X280315Y391339D01*
X315354D01*
X287717Y378819D02*X287402Y379134D01*
X369094Y337598D02*X315354Y391339D01*
X287717Y362283D02*Y378819D01*
X160196Y345867D02*X159961Y346102D01*
X87450Y331999D02*Y409032D01*
X89523Y411104D01*
X100157Y391496D02*X160000D01*
X160157Y391338D01*
X159370D01*
X159213Y391496D01*
X160196Y344763D02*Y361299D01*
X160157Y361338D01*
Y347126D02*X159961Y346929D01*
X116614Y356889D02*X132480Y372756D01*
X132402Y372677D02*X132362D01*
X251422Y255632D02*X292750Y296960D01*
X261339Y300827D02*X275119D01*
X276300Y302008D02*X275119Y300827D01*
X276300Y312086D02*Y302008D01*
X292750Y296960D02*Y311384D01*
X292047Y312086D01*
X283893Y294992D02*Y311806D01*
X284174Y312086D01*
X250438Y254648D02*X251421Y255632D01*
X439206Y460584D02*X397333D01*
X397054Y460304D01*
X396774Y460584D02*Y434440D01*
X429134Y435513D02*X429206Y435584D01*
X439206Y382828D02*X395809D01*
X368517Y399296D02*X399022Y368792D01*
X374422Y404216D02*X395809Y382828D01*
X399022Y307784D02*Y368792D01*
X390590Y427832D02*X396774Y434016D01*
X393117Y362835D02*X392681Y363271D01*
X430118Y327756D02*X429134Y328740D01*
Y357756D01*
X429206Y357828D01*
X431102Y406496D02*X429134Y408465D01*
Y435513D01*
X355726Y422912D02*X375405Y403232D01*
X350805Y417008D02*X368517Y399296D01*
X344959Y410993D02*X393117Y362835D01*
X429206Y203300D02*Y176253D01*
X429134Y176181D01*
X476378D01*
X477362Y175197D01*
Y250984D01*
X476378Y251969D02*X477362Y250984D01*
Y325787D02*Y252953D01*
X476378Y251969D01*
X429134D02*X476378D01*
X477362Y329724D02*Y403543D01*
X474409Y406496D01*
X477362Y325787D02*X475394Y327756D01*
X430118D01*
X474409Y328740D02*X476378D01*
X477362Y329724D01*
X474409Y406496D02*X431102D01*
X429206Y280072D02*Y252040D01*
X429134Y251969D01*
X393117Y362888D02*Y234424D01*
X439206Y228300D02*X399241D01*
X393117Y234424D02*X399241Y228300D01*
X439206Y305072D02*X401733D01*
X399022Y307784D01*
X412402Y202756D02*X428661D01*
X429206Y203300D01*
X369291Y245276D02*X411811Y202756D01*
X78237Y335336D02*Y409136D01*
X74301Y348128D02*Y412088D01*
X116613Y291056D02*X98975D01*
X116614D02*Y335336D01*
X74301Y412088D02*X85125Y422912D01*
X63477Y352064D02*Y407168D01*
X84141Y427832D01*
X78237Y409136D02*X86109Y417008D01*
X116613D01*
X100745Y390908D02*X100157Y391496D01*
X40728Y322067D02*X40157Y321496D01*
X39930Y281723D02*X40157Y281496D01*
X24606Y388780D02*Y256890D01*
X36417Y245079D01*
X40157Y351496D02*X62910D01*
X40157Y391496D02*X27323D01*
X24606Y388780D01*
X40157Y341496D02*X67756D01*
X40157Y331496D02*X74488D01*
X40157Y321496D02*X76947D01*
X40197Y281457D02*X30354D01*
X30039Y281142D01*
X47733Y260552D02*X249453D01*
X47836D02*X46692D01*
X35945Y254567D02*X250357D01*
X100185Y291524D02*X100157Y291496D01*
X62910Y351496D02*X63477Y352064D01*
X67756Y341496D02*X74301Y348042D01*
X74488Y331496D02*X78237Y335245D01*
X76947Y321496D02*X87319Y331868D01*
X46692Y260552D02*X40866Y266378D01*
Y270787D01*
X40157Y270039D02*X40866Y269331D01*
Y270787D02*X40157Y271496D01*
Y270039D01*
X30039Y281142D02*Y260472D01*
X35945Y254567D01*
X116614Y335236D02*Y356889D01*
X113701Y360866D02*Y305748D01*
X109764Y301811D01*
X100472D01*
X100157Y301496D01*
X130483Y377648D02*X113701Y360866D01*
X261338Y300827D02*X175708D01*
X159961Y316575D01*
Y334528D01*
X160196Y334763D01*
X159961Y344999D02*X160196Y344763D01*
Y345867D01*
G54D12*X439206Y228300D03*
X429206Y203300D03*
X439206Y305072D03*
X429206Y280072D03*
G54D13*X268425Y312086D03*
X276299D03*
X284173D03*
X264488Y362677D03*
X272362D03*
X280236D03*
X288110D03*
X292047Y312086D03*
G54D12*X439206Y382828D03*
X429206Y357828D03*
Y435584D03*
X439206Y460584D03*
G54D14*G36*
X37157Y404496D02*Y398496D01*
X43157D01*
Y404496D01*
X37157D01*
G37*
G36*
X97157D02*Y398496D01*
X103157D01*
Y404496D01*
X97157D01*
G37*
G54D15*X40157Y391496D03*
G54D16*X160157Y391338D03*
G54D15*X40157Y381496D03*
Y371496D03*
Y361496D03*
X100157Y391496D03*
Y381496D03*
Y371496D03*
Y361496D03*
Y351496D03*
Y341496D03*
Y331496D03*
G54D14*G36*
X156946Y338013D02*Y331513D01*
X163446D01*
Y338013D01*
X156946D01*
G37*
G54D17*X160196Y344763D03*
G54D14*G36*
X157407Y364088D02*Y358588D01*
X162907D01*
Y364088D01*
X157407D01*
G37*
G54D15*X100157Y321496D03*
Y311496D03*
Y301496D03*
Y291496D03*
Y281496D03*
Y271496D03*
X40157Y351496D03*
Y341496D03*
Y331496D03*
Y321496D03*
Y311496D03*
Y301496D03*
Y291496D03*
Y281496D03*
Y271496D03*
G54D13*X278543Y336614D03*
X287402Y378740D03*
X247244D03*
X232165Y312086D03*
Y281378D03*
X115512Y271496D03*
G54D18*G54D19*G54D20*G54D19*G54D21*G54D20*G54D19*G54D21*G54D20*G54D18*G54D19*G54D21*G54D20*G54D19*G54D21*G54D20*G54D22*G54D23*G54D22*G54D24*G54D23*G54D22*M02*
