G04 start of page 11 for group -4079 idx -4079 *
G04 Title: (unknown), topsilk *
G04 Creator: pcb 4.1.2 *
G04 CreationDate: Sun Sep 16 08:13:39 2018 UTC *
G04 For: mytch *
G04 Format: Gerber/RS-274X *
G04 PCB-Dimensions (mil): 3543.31 1968.50 *
G04 PCB-Coordinate-Origin: lower left *
%MOIN*%
%FSLAX25Y25*%
%LNTOPSILK*%
%ADD69C,0.0100*%
G54D69*X111142Y168386D02*Y28386D01*
X121142D01*
Y168386D01*
X111142D01*
Y158386D02*X121142D01*
Y168386D01*
X52087D02*Y28386D01*
X62087D01*
Y168386D01*
X52087D01*
Y158386D02*X62087D01*
Y168386D01*
X179559Y94811D02*G75*G03X179559Y101882I-3536J3536D01*G01*
X172488Y101882D02*G75*G03X172488Y94811I3536J-3536D01*G01*
X180973Y93396D02*G75*G03X180973Y103296I-4950J4950D01*G01*
X171073Y103296D02*G75*G03X171073Y93396I4950J-4950D01*G01*
X175945Y128090D02*Y120590D01*
Y150590D02*Y143090D01*
X173445D02*Y128090D01*
Y143090D02*X178445D01*
Y128090D01*
X173445D02*X178445D01*
X22559Y135394D02*Y55394D01*
X32559D01*
Y135394D02*Y55394D01*
X22559Y135394D02*X32559D01*
X22559Y125394D02*X32559D01*
Y135394D02*Y125394D01*
X106142Y167686D02*Y166386D01*
X106842Y168386D02*X106142Y167686D01*
X106842Y168386D02*X109442D01*
X110142Y167686D01*
Y166386D01*
X106642Y165186D02*X109642D01*
X110142Y164686D01*
Y163686D01*
X109642Y163186D01*
X106642D02*X109642D01*
X106142Y163686D02*X106642Y163186D01*
X106142Y164686D02*Y163686D01*
X106642Y165186D02*X106142Y164686D01*
Y161986D02*X110142D01*
X106142Y159486D01*
X110142D01*
X106142Y158286D02*X110142D01*
X106142Y155786D01*
X110142D01*
X109342Y154586D02*X110142Y153786D01*
X106142D02*X110142D01*
X106142Y154586D02*Y153086D01*
X47087Y167686D02*Y166386D01*
X47787Y168386D02*X47087Y167686D01*
X47787Y168386D02*X50387D01*
X51087Y167686D01*
Y166386D01*
X47587Y165186D02*X50587D01*
X51087Y164686D01*
Y163686D01*
X50587Y163186D01*
X47587D02*X50587D01*
X47087Y163686D02*X47587Y163186D01*
X47087Y164686D02*Y163686D01*
X47587Y165186D02*X47087Y164686D01*
Y161986D02*X51087D01*
X47087Y159486D01*
X51087D01*
X47087Y158286D02*X51087D01*
X47087Y155786D01*
X51087D01*
X50587Y154586D02*X51087Y154086D01*
Y152586D01*
X50587Y152086D01*
X49587D02*X50587D01*
X47087Y154586D02*X49587Y152086D01*
X47087Y154586D02*Y152086D01*
X181708Y101917D02*X185708D01*
X181708Y103217D02*X182408Y103917D01*
X185008D01*
X185708Y103217D02*X185008Y103917D01*
X185708Y103217D02*Y101417D01*
X181708Y103217D02*Y101417D01*
X182508Y105117D02*X181708Y105917D01*
X185708D01*
Y106617D02*Y105117D01*
X182555Y127984D02*Y125984D01*
Y127984D02*X183055Y128484D01*
X184055D01*
X184555Y127984D02*X184055Y128484D01*
X184555Y127984D02*Y126484D01*
X182555D02*X186555D01*
X184555Y127284D02*X186555Y128484D01*
X183355Y129684D02*X182555Y130484D01*
X186555D01*
Y131184D02*Y129684D01*
X33559Y134694D02*Y133394D01*
X34259Y135394D02*X33559Y134694D01*
X34259Y135394D02*X36859D01*
X37559Y134694D01*
Y133394D01*
X34059Y132194D02*X37059D01*
X37559Y131694D01*
Y130694D01*
X37059Y130194D01*
X34059D02*X37059D01*
X33559Y130694D02*X34059Y130194D01*
X33559Y131694D02*Y130694D01*
X34059Y132194D02*X33559Y131694D01*
Y128994D02*X37559D01*
X33559Y126494D01*
X37559D01*
X33559Y125294D02*X37559D01*
X33559Y122794D01*
X37559D01*
X33559Y121594D02*Y119594D01*
X34059Y119094D01*
X35259D01*
X35759Y119594D02*X35259Y119094D01*
X35759Y121094D02*Y119594D01*
X33559Y121094D02*X37559D01*
Y121594D02*Y119594D01*
X37059Y119094D01*
X36259D02*X37059D01*
X35759Y119594D02*X36259Y119094D01*
X273858Y75457D02*Y71957D01*
X274358Y71457D01*
X275358D01*
X275858Y71957D01*
Y75457D02*Y71957D01*
X277058Y74657D02*X277858Y75457D01*
Y71457D01*
X277058D02*X278558D01*
M02*
