G04 start of page 9 for group 7 idx 7 *
G04 Title: (unknown), spare *
G04 Creator: pcb 4.1.2 *
G04 CreationDate: Fri Sep 21 09:06:42 2018 UTC *
G04 For: mytch *
G04 Format: Gerber/RS-274X *
G04 PCB-Dimensions (mil): 3937.01 2755.91 *
G04 PCB-Coordinate-Origin: lower left *
%MOIN*%
%FSLAX25Y25*%
%LNGROUP7*%
%ADD69C,0.0350*%
%ADD68C,0.0380*%
%ADD67C,0.1180*%
%ADD66C,0.0200*%
%ADD65C,0.0360*%
%ADD64C,0.0800*%
%ADD63C,0.0600*%
%ADD62C,0.0001*%
G54D62*G36*
X28496Y174260D02*Y168260D01*
X34496D01*
Y174260D01*
X28496D01*
G37*
G54D63*X31496Y161260D03*
Y151260D03*
X59055Y190787D03*
Y180787D03*
Y170787D03*
Y160787D03*
Y150787D03*
Y140787D03*
Y130787D03*
Y120787D03*
X31496Y141260D03*
Y131260D03*
Y121260D03*
Y111260D03*
Y101260D03*
G54D62*G36*
X56055Y203787D02*Y197787D01*
X62055D01*
Y203787D01*
X56055D01*
G37*
G36*
X115110D02*Y197787D01*
X121110D01*
Y203787D01*
X115110D01*
G37*
G54D64*X170079Y190630D03*
Y210630D03*
G54D63*X118110Y190787D03*
Y180787D03*
Y170787D03*
Y160787D03*
Y150787D03*
Y140787D03*
Y130787D03*
X59055Y110787D03*
Y100787D03*
Y90787D03*
Y80787D03*
Y70787D03*
X118110Y120787D03*
Y110787D03*
Y100787D03*
Y90787D03*
Y80787D03*
Y70787D03*
G54D64*X146457Y18583D03*
Y38583D03*
X164567Y18976D03*
Y38976D03*
G54D65*X270276Y162913D03*
Y113307D03*
X277276Y162913D03*
X284276D03*
X291276D03*
X298276D03*
X305276D03*
X312276D03*
X319276D03*
X277276Y113307D03*
X284276D03*
X291276D03*
X298276D03*
X305276D03*
X312276D03*
X319276D03*
X85827Y155512D03*
X150000Y186614D03*
G54D66*G54D67*G54D66*G54D68*G54D69*G54D68*G54D69*G54D66*M02*
