G04 start of page 3 for group 1 idx 1 *
G04 Title: (unknown), power *
G04 Creator: pcb 4.1.2 *
G04 CreationDate: Sun Sep 16 08:13:39 2018 UTC *
G04 For: mytch *
G04 Format: Gerber/RS-274X *
G04 PCB-Dimensions (mil): 3543.31 1968.50 *
G04 PCB-Coordinate-Origin: lower left *
%MOIN*%
%FSLAX25Y25*%
%LNGROUP1*%
%ADD30C,0.0300*%
%ADD29C,0.0430*%
%ADD28C,0.0380*%
%ADD27C,0.0200*%
%ADD26C,0.0550*%
%ADD25C,0.0650*%
%ADD24C,0.0360*%
%ADD23C,0.0600*%
%ADD22C,0.0001*%
G54D22*G36*
X113142Y166386D02*Y160386D01*
X119142D01*
Y166386D01*
X113142D01*
G37*
G36*
X54087D02*Y160386D01*
X60087D01*
Y166386D01*
X54087D01*
G37*
G54D23*X116142Y153386D03*
Y143386D03*
Y133386D03*
Y123386D03*
G54D24*X284410Y123189D03*
X292284D03*
X300158D03*
X308032D03*
X288347Y72598D03*
X296221D03*
X304095D03*
X311969D03*
G54D23*X116142Y113386D03*
Y103386D03*
Y93386D03*
Y83386D03*
Y73386D03*
Y63386D03*
Y53386D03*
Y43386D03*
Y33386D03*
G54D22*G36*
X172773Y96596D02*Y90096D01*
X179273D01*
Y96596D01*
X172773D01*
G37*
G54D25*X176023Y103346D03*
G54D22*G36*
X173195Y123340D02*Y117840D01*
X178695D01*
Y123340D01*
X173195D01*
G37*
G54D26*X175945Y150590D03*
G54D23*X57087Y153386D03*
Y143386D03*
Y133386D03*
Y123386D03*
Y113386D03*
Y103386D03*
Y93386D03*
X27559Y100394D03*
Y90394D03*
Y80394D03*
X57087Y83386D03*
Y73386D03*
Y63386D03*
Y53386D03*
Y43386D03*
Y33386D03*
G54D22*G36*
X24559Y133394D02*Y127394D01*
X30559D01*
Y133394D01*
X24559D01*
G37*
G54D23*X27559Y120394D03*
Y110394D03*
Y70394D03*
Y60394D03*
G54D27*G54D28*G54D27*G54D28*G54D29*G54D30*G54D28*M02*
