G04 start of page 9 for group -4078 idx -4078 *
G04 Title: (unknown), bottomsilk *
G04 Creator: pcb 4.1.2 *
G04 CreationDate: Sat Sep 15 12:59:34 2018 UTC *
G04 For: mytch *
G04 Format: Gerber/RS-274X *
G04 PCB-Dimensions (mil): 6000.00 5000.00 *
G04 PCB-Coordinate-Origin: lower left *
%MOIN*%
%FSLAX25Y25*%
%LNBOTTOMSILK*%
%ADD64C,0.0100*%
%ADD63C,0.0059*%
G54D63*X486607Y175899D02*Y193615D01*
X468891Y250701D02*X486607D01*
X468891Y175899D02*X486607D01*
X411805Y232985D02*Y250701D01*
X429521D01*
X486607Y232985D02*Y250701D01*
X411805Y175899D02*X429521D01*
X411805D02*Y193615D01*
X421647Y185741D02*X476765D01*
Y240859D01*
X421647D02*X476765D01*
X421647Y185741D02*Y240859D01*
X486607Y252671D02*Y270387D01*
X468891Y327473D02*X486607D01*
X468891Y252671D02*X486607D01*
X411805Y309757D02*Y327473D01*
X429521D01*
X486607Y309757D02*Y327473D01*
X411805Y252671D02*X429521D01*
X411805D02*Y270387D01*
X421647Y262513D02*X476765D01*
Y317631D01*
X421647D02*X476765D01*
X421647Y262513D02*Y317631D01*
X486607Y330427D02*Y348143D01*
X468891Y405229D02*X486607D01*
X468891Y330427D02*X486607D01*
X411805Y387513D02*Y405229D01*
X429521D01*
X486607Y387513D02*Y405229D01*
X411805Y330427D02*X429521D01*
X411805D02*Y348143D01*
X421647Y340269D02*X476765D01*
Y395387D01*
X421647D02*X476765D01*
X421647Y340269D02*Y395387D01*
X486607Y408183D02*Y425899D01*
X468891Y482985D02*X486607D01*
X468891Y408183D02*X486607D01*
X411805Y465269D02*Y482985D01*
X429521D01*
X486607Y465269D02*Y482985D01*
X411805Y408183D02*X429521D01*
X411805D02*Y425899D01*
X421647Y418025D02*X476765D01*
Y473143D01*
X421647D02*X476765D01*
X421647Y418025D02*Y473143D01*
G54D64*X485206Y211300D02*X485706Y210800D01*
X485206Y211300D02*Y212800D01*
X485706Y213300D02*X485206Y212800D01*
X485706Y213300D02*X486706D01*
X487206Y212800D01*
Y211300D02*Y212800D01*
Y211300D02*X487706Y210800D01*
X488706D01*
X489206Y211300D02*X488706Y210800D01*
X489206Y211300D02*Y212800D01*
X488706Y213300D02*X489206Y212800D01*
X487706Y209600D02*X485206Y207600D01*
X487706Y207100D02*Y209600D01*
X485206Y207600D02*X489206D01*
X485206Y288072D02*X485706Y287572D01*
X485206Y288072D02*Y289572D01*
X485706Y290072D02*X485206Y289572D01*
X485706Y290072D02*X486706D01*
X487206Y289572D01*
Y288072D02*Y289572D01*
Y288072D02*X487706Y287572D01*
X488706D01*
X489206Y288072D02*X488706Y287572D01*
X489206Y288072D02*Y289572D01*
X488706Y290072D02*X489206Y289572D01*
X485706Y286372D02*X485206Y285872D01*
Y284872D02*Y285872D01*
Y284872D02*X485706Y284372D01*
X489206Y284872D02*X488706Y284372D01*
X489206Y284872D02*Y285872D01*
X488706Y286372D02*X489206Y285872D01*
X487006Y284872D02*Y285872D01*
X485706Y284372D02*X486506D01*
X487506D02*X488706D01*
X487506D02*X487006Y284872D01*
X486506Y284372D02*X487006Y284872D01*
X485206Y365828D02*X485706Y365328D01*
X485206Y365828D02*Y367328D01*
X485706Y367828D02*X485206Y367328D01*
X485706Y367828D02*X486706D01*
X487206Y367328D01*
Y365828D02*Y367328D01*
Y365828D02*X487706Y365328D01*
X488706D01*
X489206Y365828D02*X488706Y365328D01*
X489206Y365828D02*Y367328D01*
X488706Y367828D02*X489206Y367328D01*
X485706Y364128D02*X485206Y363628D01*
Y362128D02*Y363628D01*
Y362128D02*X485706Y361628D01*
X486706D01*
X489206Y364128D02*X486706Y361628D01*
X489206D02*Y364128D01*
X485206Y443584D02*X485706Y443084D01*
X485206Y443584D02*Y445084D01*
X485706Y445584D02*X485206Y445084D01*
X485706Y445584D02*X486706D01*
X487206Y445084D01*
Y443584D02*Y445084D01*
Y443584D02*X487706Y443084D01*
X488706D01*
X489206Y443584D02*X488706Y443084D01*
X489206Y443584D02*Y445084D01*
X488706Y445584D02*X489206Y445084D01*
X486006Y441884D02*X485206Y441084D01*
X489206D01*
Y440384D02*Y441884D01*
M02*
