G04 start of page 8 for group -4079 idx -4079 *
G04 Title: (unknown), topsilk *
G04 Creator: pcb 4.1.2 *
G04 CreationDate: Sat Sep 15 12:59:34 2018 UTC *
G04 For: mytch *
G04 Format: Gerber/RS-274X *
G04 PCB-Dimensions (mil): 6000.00 5000.00 *
G04 PCB-Coordinate-Origin: lower left *
%MOIN*%
%FSLAX25Y25*%
%LNTOPSILK*%
%ADD62C,0.0100*%
G54D62*X35157Y406496D02*Y266496D01*
X45157D01*
Y406496D01*
X35157D01*
Y396496D02*X45157D01*
Y406496D01*
X95157D02*Y266496D01*
X105157D01*
Y406496D01*
X95157D01*
Y396496D02*X105157D01*
Y406496D01*
X163732Y336228D02*G75*G03X163732Y343299I-3536J3536D01*G01*
X156661Y343299D02*G75*G03X156661Y336228I3536J-3536D01*G01*
X165146Y334814D02*G75*G03X165146Y344713I-4950J4950D01*G01*
X155247Y344713D02*G75*G03X155247Y334814I4950J-4950D01*G01*
X160157Y368838D02*Y361338D01*
Y391338D02*Y383838D01*
X157657D02*Y368838D01*
Y383838D02*X162657D01*
Y368838D01*
X157657D02*X162657D01*
X30157Y405796D02*Y404496D01*
X30857Y406496D02*X30157Y405796D01*
X30857Y406496D02*X33457D01*
X34157Y405796D01*
Y404496D01*
X30657Y403296D02*X33657D01*
X34157Y402796D01*
Y401796D01*
X33657Y401296D01*
X30657D02*X33657D01*
X30157Y401796D02*X30657Y401296D01*
X30157Y402796D02*Y401796D01*
X30657Y403296D02*X30157Y402796D01*
Y400096D02*X34157D01*
X30157Y397596D01*
X34157D01*
X30157Y396396D02*X34157D01*
X30157Y393896D01*
X34157D01*
X33657Y392696D02*X34157Y392196D01*
Y390696D01*
X33657Y390196D01*
X32657D02*X33657D01*
X30157Y392696D02*X32657Y390196D01*
X30157Y392696D02*Y390196D01*
X90157Y405796D02*Y404496D01*
X90857Y406496D02*X90157Y405796D01*
X90857Y406496D02*X93457D01*
X94157Y405796D01*
Y404496D01*
X90657Y403296D02*X93657D01*
X94157Y402796D01*
Y401796D01*
X93657Y401296D01*
X90657D02*X93657D01*
X90157Y401796D02*X90657Y401296D01*
X90157Y402796D02*Y401796D01*
X90657Y403296D02*X90157Y402796D01*
Y400096D02*X94157D01*
X90157Y397596D01*
X94157D01*
X90157Y396396D02*X94157D01*
X90157Y393896D01*
X94157D01*
X93357Y392696D02*X94157Y391896D01*
X90157D02*X94157D01*
X90157Y392696D02*Y391196D01*
X278543Y335614D02*Y332114D01*
X279043Y331614D01*
X280043D01*
X280543Y332114D01*
Y335614D02*Y332114D01*
X281743Y334814D02*X282543Y335614D01*
Y331614D01*
X281743D02*X283243D01*
X161196Y340263D02*X165196D01*
X161196Y341563D02*X161896Y342263D01*
X164496D01*
X165196Y341563D02*X164496Y342263D01*
X165196Y341563D02*Y339763D01*
X161196Y341563D02*Y339763D01*
X161996Y343463D02*X161196Y344263D01*
X165196D01*
Y344963D02*Y343463D01*
X158657Y363338D02*Y361338D01*
Y363338D02*X159157Y363838D01*
X160157D01*
X160657Y363338D02*X160157Y363838D01*
X160657Y363338D02*Y361838D01*
X158657D02*X162657D01*
X160657Y362638D02*X162657Y363838D01*
X159457Y365038D02*X158657Y365838D01*
X162657D01*
Y366538D02*Y365038D01*
M02*
