G04 start of page 7 for group 5 idx 5 *
G04 Title: (unknown), bottom *
G04 Creator: pcb 4.1.2 *
G04 CreationDate: Fri Sep 21 09:06:42 2018 UTC *
G04 For: mytch *
G04 Format: Gerber/RS-274X *
G04 PCB-Dimensions (mil): 3937.01 2755.91 *
G04 PCB-Coordinate-Origin: lower left *
%MOIN*%
%FSLAX25Y25*%
%LNBOTTOM*%
%ADD60C,0.0350*%
%ADD59C,0.0380*%
%ADD58C,0.1180*%
%ADD57C,0.0200*%
%ADD56C,0.0360*%
%ADD55C,0.0800*%
%ADD54C,0.0600*%
%ADD53C,0.0001*%
%ADD52C,0.0100*%
G54D52*X59055Y70787D02*X89843D01*
X105906Y54724D01*
X59055Y80787D02*X89685D01*
X109449Y61024D01*
X284252Y79921D02*X284055Y79724D01*
X135827Y65354D02*X131496Y61024D01*
X109449D01*
X105906Y54724D02*X130709D01*
X141339Y65354D01*
X284055Y79724D02*X200591D01*
X175591Y54724D01*
X312276Y162913D02*Y181425D01*
X307480Y186220D01*
X277276Y162913D02*Y170362D01*
X272835Y174803D01*
X268110Y179528D02*X273031Y174606D01*
X319685Y163323D02*X319276Y162913D01*
X319323Y162961D02*Y183827D01*
X312992Y190157D01*
X305118Y163071D02*X305276Y162913D01*
X305118Y183071D02*Y163071D01*
X305276Y113307D02*Y89921D01*
X319291Y113291D02*X319276Y113307D01*
X312598Y113630D02*X312276Y113307D01*
X284276D02*Y101205D01*
X319276Y113307D02*Y99228D01*
X311811Y112843D02*Y94094D01*
X284252Y79921D02*Y101157D01*
X284276Y101181D01*
X305276Y89921D02*X295276Y79921D01*
X284252D01*
X319276Y99228D02*X319685Y98819D01*
X350787D01*
X353937Y101969D01*
X311811Y94094D02*X353937D01*
X359843Y100000D01*
X353937Y101969D02*Y207087D01*
X359843Y100000D02*Y211811D01*
X353543Y218110D01*
X353937Y207087D02*X348819Y212205D01*
X171654D02*X170079Y210630D01*
X118268Y190945D02*X118110Y190787D01*
X154724Y218110D02*X127165Y190551D01*
X118346D01*
X118110Y190787D01*
X85827Y155512D02*Y119685D01*
X105512Y100000D01*
X117323D01*
X118110Y100787D01*
X215354Y183071D02*X135827Y103543D01*
X141339D02*X217323Y179528D01*
X200787Y173228D02*X171654D01*
X158268Y186614D01*
X150000D01*
X135827Y103543D02*Y65354D01*
X141339D02*Y103543D01*
X175591Y54724D02*Y18504D01*
X165039D01*
X164567Y18976D01*
X348819Y212205D02*X171654D01*
X353543Y218110D02*X168898D01*
X173228D02*X154724D01*
X312992Y190157D02*X170551D01*
X170079Y190630D01*
X200787Y173228D02*X213780Y186220D01*
X307480D02*X213780D01*
X305118Y183071D02*X215354D01*
X217323Y179528D02*X268110D01*
G54D53*G36*
X28496Y174260D02*Y168260D01*
X34496D01*
Y174260D01*
X28496D01*
G37*
G54D54*X31496Y161260D03*
Y151260D03*
X59055Y190787D03*
Y180787D03*
Y170787D03*
Y160787D03*
Y150787D03*
Y140787D03*
Y130787D03*
Y120787D03*
X31496Y141260D03*
Y131260D03*
Y121260D03*
Y111260D03*
Y101260D03*
G54D53*G36*
X56055Y203787D02*Y197787D01*
X62055D01*
Y203787D01*
X56055D01*
G37*
G36*
X115110D02*Y197787D01*
X121110D01*
Y203787D01*
X115110D01*
G37*
G54D55*X170079Y190630D03*
Y210630D03*
G54D54*X118110Y190787D03*
Y180787D03*
Y170787D03*
Y160787D03*
Y150787D03*
Y140787D03*
Y130787D03*
X59055Y110787D03*
Y100787D03*
Y90787D03*
Y80787D03*
Y70787D03*
X118110Y120787D03*
Y110787D03*
Y100787D03*
Y90787D03*
Y80787D03*
Y70787D03*
G54D55*X146457Y18583D03*
Y38583D03*
X164567Y18976D03*
Y38976D03*
G54D56*X270276Y162913D03*
Y113307D03*
X277276Y162913D03*
X284276D03*
X291276D03*
X298276D03*
X305276D03*
X312276D03*
X319276D03*
X277276Y113307D03*
X284276D03*
X291276D03*
X298276D03*
X305276D03*
X312276D03*
X319276D03*
X85827Y155512D03*
X150000Y186614D03*
G54D57*G54D58*G54D57*G54D59*G54D60*G54D59*G54D60*G54D57*M02*
