G04 start of page 15 for group -3984 idx -3984 *
G04 Title: (unknown), fab *
G04 Creator: pcb 4.1.2 *
G04 CreationDate: Sun Sep 16 08:13:39 2018 UTC *
G04 For: mytch *
G04 Format: Gerber/RS-274X *
G04 PCB-Dimensions (mil): 3543.31 1968.50 *
G04 PCB-Coordinate-Origin: lower left *
%MOIN*%
%FSLAX25Y25*%
%LNFAB*%
%ADD74C,0.0100*%
%ADD73C,0.0075*%
%ADD72C,0.0060*%
%ADD71C,0.0080*%
G54D71*X174423Y94946D02*X177623D01*
X174423D02*Y91746D01*
X177623D01*
Y94946D02*Y91746D01*
X174423Y104946D02*X177623D01*
X174423D02*Y101746D01*
X177623D01*
Y104946D02*Y101746D01*
X13400Y209700D02*X16600D01*
X13400D02*Y206500D01*
X16600D01*
Y209700D02*Y206500D01*
G54D72*X135000Y210350D02*X136500Y207350D01*
X138000Y210350D01*
X136500Y207350D02*Y204350D01*
X139800Y207650D02*X142050D01*
X139800Y204350D02*X142800D01*
X139800Y210350D02*Y204350D01*
Y210350D02*X142800D01*
X147600D02*X148350Y209600D01*
X145350Y210350D02*X147600D01*
X144600Y209600D02*X145350Y210350D01*
X144600Y209600D02*Y208100D01*
X145350Y207350D01*
X147600D01*
X148350Y206600D01*
Y205100D01*
X147600Y204350D02*X148350Y205100D01*
X145350Y204350D02*X147600D01*
X144600Y205100D02*X145350Y204350D01*
X98000Y209600D02*X98750Y210350D01*
X101000D01*
X101750Y209600D01*
Y208100D01*
X98000Y204350D02*X101750Y208100D01*
X98000Y204350D02*X101750D01*
X45000Y205100D02*X45750Y204350D01*
X45000Y209600D02*Y205100D01*
Y209600D02*X45750Y210350D01*
X47250D01*
X48000Y209600D01*
Y205100D01*
X47250Y204350D02*X48000Y205100D01*
X45750Y204350D02*X47250D01*
X45000Y205850D02*X48000Y208850D01*
X49800Y204350D02*X50550D01*
X52350Y205100D02*X53100Y204350D01*
X52350Y209600D02*Y205100D01*
Y209600D02*X53100Y210350D01*
X54600D01*
X55350Y209600D01*
Y205100D01*
X54600Y204350D02*X55350Y205100D01*
X53100Y204350D02*X54600D01*
X52350Y205850D02*X55350Y208850D01*
X57150Y206600D02*X60150Y210350D01*
X57150Y206600D02*X60900D01*
X60150Y210350D02*Y204350D01*
X62700Y209600D02*X63450Y210350D01*
X64950D01*
X65700Y209600D01*
X64950Y204350D02*X65700Y205100D01*
X63450Y204350D02*X64950D01*
X62700Y205100D02*X63450Y204350D01*
Y207650D02*X64950D01*
X65700Y209600D02*Y208400D01*
Y206900D02*Y205100D01*
Y206900D02*X64950Y207650D01*
X65700Y208400D02*X64950Y207650D01*
X115342Y163386D02*G75*G03X116942Y163386I800J0D01*G01*
G75*G03X115342Y163386I-800J0D01*G01*
Y153386D02*G75*G03X116942Y153386I800J0D01*G01*
G75*G03X115342Y153386I-800J0D01*G01*
Y143386D02*G75*G03X116942Y143386I800J0D01*G01*
G75*G03X115342Y143386I-800J0D01*G01*
Y133386D02*G75*G03X116942Y133386I800J0D01*G01*
G75*G03X115342Y133386I-800J0D01*G01*
Y123386D02*G75*G03X116942Y123386I800J0D01*G01*
G75*G03X115342Y123386I-800J0D01*G01*
Y113386D02*G75*G03X116942Y113386I800J0D01*G01*
G75*G03X115342Y113386I-800J0D01*G01*
Y103386D02*G75*G03X116942Y103386I800J0D01*G01*
G75*G03X115342Y103386I-800J0D01*G01*
Y93386D02*G75*G03X116942Y93386I800J0D01*G01*
G75*G03X115342Y93386I-800J0D01*G01*
Y83386D02*G75*G03X116942Y83386I800J0D01*G01*
G75*G03X115342Y83386I-800J0D01*G01*
Y73386D02*G75*G03X116942Y73386I800J0D01*G01*
G75*G03X115342Y73386I-800J0D01*G01*
Y63386D02*G75*G03X116942Y63386I800J0D01*G01*
G75*G03X115342Y63386I-800J0D01*G01*
Y53386D02*G75*G03X116942Y53386I800J0D01*G01*
G75*G03X115342Y53386I-800J0D01*G01*
Y43386D02*G75*G03X116942Y43386I800J0D01*G01*
G75*G03X115342Y43386I-800J0D01*G01*
Y33386D02*G75*G03X116942Y33386I800J0D01*G01*
G75*G03X115342Y33386I-800J0D01*G01*
X56287Y163386D02*G75*G03X57887Y163386I800J0D01*G01*
G75*G03X56287Y163386I-800J0D01*G01*
Y153386D02*G75*G03X57887Y153386I800J0D01*G01*
G75*G03X56287Y153386I-800J0D01*G01*
Y143386D02*G75*G03X57887Y143386I800J0D01*G01*
G75*G03X56287Y143386I-800J0D01*G01*
Y133386D02*G75*G03X57887Y133386I800J0D01*G01*
G75*G03X56287Y133386I-800J0D01*G01*
Y123386D02*G75*G03X57887Y123386I800J0D01*G01*
G75*G03X56287Y123386I-800J0D01*G01*
Y113386D02*G75*G03X57887Y113386I800J0D01*G01*
G75*G03X56287Y113386I-800J0D01*G01*
Y103386D02*G75*G03X57887Y103386I800J0D01*G01*
G75*G03X56287Y103386I-800J0D01*G01*
Y93386D02*G75*G03X57887Y93386I800J0D01*G01*
G75*G03X56287Y93386I-800J0D01*G01*
Y83386D02*G75*G03X57887Y83386I800J0D01*G01*
G75*G03X56287Y83386I-800J0D01*G01*
Y73386D02*G75*G03X57887Y73386I800J0D01*G01*
G75*G03X56287Y73386I-800J0D01*G01*
Y63386D02*G75*G03X57887Y63386I800J0D01*G01*
G75*G03X56287Y63386I-800J0D01*G01*
Y53386D02*G75*G03X57887Y53386I800J0D01*G01*
G75*G03X56287Y53386I-800J0D01*G01*
Y43386D02*G75*G03X57887Y43386I800J0D01*G01*
G75*G03X56287Y43386I-800J0D01*G01*
Y33386D02*G75*G03X57887Y33386I800J0D01*G01*
G75*G03X56287Y33386I-800J0D01*G01*
X26759Y130394D02*G75*G03X28359Y130394I800J0D01*G01*
G75*G03X26759Y130394I-800J0D01*G01*
Y120394D02*G75*G03X28359Y120394I800J0D01*G01*
G75*G03X26759Y120394I-800J0D01*G01*
Y110394D02*G75*G03X28359Y110394I800J0D01*G01*
G75*G03X26759Y110394I-800J0D01*G01*
Y100394D02*G75*G03X28359Y100394I800J0D01*G01*
G75*G03X26759Y100394I-800J0D01*G01*
Y90394D02*G75*G03X28359Y90394I800J0D01*G01*
G75*G03X26759Y90394I-800J0D01*G01*
Y80394D02*G75*G03X28359Y80394I800J0D01*G01*
G75*G03X26759Y80394I-800J0D01*G01*
Y70394D02*G75*G03X28359Y70394I800J0D01*G01*
G75*G03X26759Y70394I-800J0D01*G01*
Y60394D02*G75*G03X28359Y60394I800J0D01*G01*
G75*G03X26759Y60394I-800J0D01*G01*
X14200Y223100D02*G75*G03X15800Y223100I800J0D01*G01*
G75*G03X14200Y223100I-800J0D01*G01*
X135000Y225350D02*X136500Y222350D01*
X138000Y225350D01*
X136500Y222350D02*Y219350D01*
X139800Y222650D02*X142050D01*
X139800Y219350D02*X142800D01*
X139800Y225350D02*Y219350D01*
Y225350D02*X142800D01*
X147600D02*X148350Y224600D01*
X145350Y225350D02*X147600D01*
X144600Y224600D02*X145350Y225350D01*
X144600Y224600D02*Y223100D01*
X145350Y222350D01*
X147600D01*
X148350Y221600D01*
Y220100D01*
X147600Y219350D02*X148350Y220100D01*
X145350Y219350D02*X147600D01*
X144600Y220100D02*X145350Y219350D01*
X98000Y224600D02*X98750Y225350D01*
X100250D01*
X101000Y224600D01*
X100250Y219350D02*X101000Y220100D01*
X98750Y219350D02*X100250D01*
X98000Y220100D02*X98750Y219350D01*
Y222650D02*X100250D01*
X101000Y224600D02*Y223400D01*
Y221900D02*Y220100D01*
Y221900D02*X100250Y222650D01*
X101000Y223400D02*X100250Y222650D01*
X105050Y225350D02*X105800Y224600D01*
X103550Y225350D02*X105050D01*
X102800Y224600D02*X103550Y225350D01*
X102800Y224600D02*Y220100D01*
X103550Y219350D01*
X105050Y222650D02*X105800Y221900D01*
X102800Y222650D02*X105050D01*
X103550Y219350D02*X105050D01*
X105800Y220100D01*
Y221900D02*Y220100D01*
X45000D02*X45750Y219350D01*
X45000Y224600D02*Y220100D01*
Y224600D02*X45750Y225350D01*
X47250D01*
X48000Y224600D01*
Y220100D01*
X47250Y219350D02*X48000Y220100D01*
X45750Y219350D02*X47250D01*
X45000Y220850D02*X48000Y223850D01*
X49800Y219350D02*X50550D01*
X52350Y220100D02*X53100Y219350D01*
X52350Y224600D02*Y220100D01*
Y224600D02*X53100Y225350D01*
X54600D01*
X55350Y224600D01*
Y220100D01*
X54600Y219350D02*X55350Y220100D01*
X53100Y219350D02*X54600D01*
X52350Y220850D02*X55350Y223850D01*
X57150Y224600D02*X57900Y225350D01*
X59400D01*
X60150Y224600D01*
X59400Y219350D02*X60150Y220100D01*
X57900Y219350D02*X59400D01*
X57150Y220100D02*X57900Y219350D01*
Y222650D02*X59400D01*
X60150Y224600D02*Y223400D01*
Y221900D02*Y220100D01*
Y221900D02*X59400Y222650D01*
X60150Y223400D02*X59400Y222650D01*
X61950Y220100D02*X62700Y219350D01*
X61950Y221300D02*Y220100D01*
Y221300D02*X63000Y222350D01*
X63900D01*
X64950Y221300D01*
Y220100D01*
X64200Y219350D02*X64950Y220100D01*
X62700Y219350D02*X64200D01*
X61950Y223400D02*X63000Y222350D01*
X61950Y224600D02*Y223400D01*
Y224600D02*X62700Y225350D01*
X64200D01*
X64950Y224600D01*
Y223400D01*
X63900Y222350D02*X64950Y223400D01*
X174745Y121790D02*X177145Y119390D01*
X174745D02*X177145Y121790D01*
X174745Y151790D02*X177145Y149390D01*
X174745D02*X177145Y151790D01*
X13800Y239300D02*X16200Y236900D01*
X13800D02*X16200Y239300D01*
X135000Y240350D02*X136500Y237350D01*
X138000Y240350D01*
X136500Y237350D02*Y234350D01*
X139800Y237650D02*X142050D01*
X139800Y234350D02*X142800D01*
X139800Y240350D02*Y234350D01*
Y240350D02*X142800D01*
X147600D02*X148350Y239600D01*
X145350Y240350D02*X147600D01*
X144600Y239600D02*X145350Y240350D01*
X144600Y239600D02*Y238100D01*
X145350Y237350D01*
X147600D01*
X148350Y236600D01*
Y235100D01*
X147600Y234350D02*X148350Y235100D01*
X145350Y234350D02*X147600D01*
X144600Y235100D02*X145350Y234350D01*
X98000Y239600D02*X98750Y240350D01*
X101000D01*
X101750Y239600D01*
Y238100D01*
X98000Y234350D02*X101750Y238100D01*
X98000Y234350D02*X101750D01*
X45000Y235100D02*X45750Y234350D01*
X45000Y239600D02*Y235100D01*
Y239600D02*X45750Y240350D01*
X47250D01*
X48000Y239600D01*
Y235100D01*
X47250Y234350D02*X48000Y235100D01*
X45750Y234350D02*X47250D01*
X45000Y235850D02*X48000Y238850D01*
X49800Y234350D02*X50550D01*
X52350Y235100D02*X53100Y234350D01*
X52350Y239600D02*Y235100D01*
Y239600D02*X53100Y240350D01*
X54600D01*
X55350Y239600D01*
Y235100D01*
X54600Y234350D02*X55350Y235100D01*
X53100Y234350D02*X54600D01*
X52350Y235850D02*X55350Y238850D01*
X57150Y239600D02*X57900Y240350D01*
X59400D01*
X60150Y239600D01*
X59400Y234350D02*X60150Y235100D01*
X57900Y234350D02*X59400D01*
X57150Y235100D02*X57900Y234350D01*
Y237650D02*X59400D01*
X60150Y239600D02*Y238400D01*
Y236900D02*Y235100D01*
Y236900D02*X59400Y237650D01*
X60150Y238400D02*X59400Y237650D01*
X61950Y235100D02*X62700Y234350D01*
X61950Y239600D02*Y235100D01*
Y239600D02*X62700Y240350D01*
X64200D01*
X64950Y239600D01*
Y235100D01*
X64200Y234350D02*X64950Y235100D01*
X62700Y234350D02*X64200D01*
X61950Y235850D02*X64950Y238850D01*
X284410Y124789D02*Y121589D01*
X282810Y123189D02*X286010D01*
X292284Y124789D02*Y121589D01*
X290684Y123189D02*X293884D01*
X300158Y124789D02*Y121589D01*
X298558Y123189D02*X301758D01*
X308032Y124789D02*Y121589D01*
X306432Y123189D02*X309632D01*
X288347Y74198D02*Y70998D01*
X286747Y72598D02*X289947D01*
X296221Y74198D02*Y70998D01*
X294621Y72598D02*X297821D01*
X304095Y74198D02*Y70998D01*
X302495Y72598D02*X305695D01*
X311969Y74198D02*Y70998D01*
X310369Y72598D02*X313569D01*
X190866Y80276D02*Y78676D01*
Y80276D02*X192253Y81076D01*
X190866Y80276D02*X189479Y81076D01*
X190787Y115551D02*Y113951D01*
Y115551D02*X192174Y116351D01*
X190787Y115551D02*X189401Y116351D01*
X337913Y115669D02*Y114069D01*
Y115669D02*X339300Y116469D01*
X337913Y115669D02*X336527Y116469D01*
X337953Y80197D02*Y78597D01*
Y80197D02*X339339Y80997D01*
X337953Y80197D02*X336566Y80997D01*
X191732Y108661D02*Y107061D01*
Y108661D02*X193119Y109461D01*
X191732Y108661D02*X190346Y109461D01*
X191732Y106299D02*Y104699D01*
Y106299D02*X193119Y107099D01*
X191732Y106299D02*X190346Y107099D01*
X191732Y103937D02*Y102337D01*
Y103937D02*X193119Y104737D01*
X191732Y103937D02*X190346Y104737D01*
X191732Y101575D02*Y99975D01*
Y101575D02*X193119Y102375D01*
X191732Y101575D02*X190346Y102375D01*
X191732Y99213D02*Y97613D01*
Y99213D02*X193119Y100013D01*
X191732Y99213D02*X190346Y100013D01*
X191732Y96850D02*Y95250D01*
Y96850D02*X193119Y97650D01*
X191732Y96850D02*X190346Y97650D01*
X191732Y94488D02*Y92888D01*
Y94488D02*X193119Y95288D01*
X191732Y94488D02*X190346Y95288D01*
X191732Y92126D02*Y90526D01*
Y92126D02*X193119Y92926D01*
X191732Y92126D02*X190346Y92926D01*
X191732Y89764D02*Y88164D01*
Y89764D02*X193119Y90564D01*
X191732Y89764D02*X190346Y90564D01*
X191732Y87402D02*Y85802D01*
Y87402D02*X193119Y88202D01*
X191732Y87402D02*X190346Y88202D01*
X191732Y85039D02*Y83439D01*
Y85039D02*X193119Y85839D01*
X191732Y85039D02*X190346Y85839D01*
X191732Y82677D02*Y81077D01*
Y82677D02*X193119Y83477D01*
X191732Y82677D02*X190346Y83477D01*
X191732Y111024D02*Y109424D01*
Y111024D02*X193119Y111824D01*
X191732Y111024D02*X190346Y111824D01*
X191732Y113386D02*Y111786D01*
Y113386D02*X193119Y114186D01*
X191732Y113386D02*X190346Y114186D01*
X337008Y108661D02*Y107061D01*
Y108661D02*X338395Y109461D01*
X337008Y108661D02*X335621Y109461D01*
X337008Y106299D02*Y104699D01*
Y106299D02*X338395Y107099D01*
X337008Y106299D02*X335621Y107099D01*
X337008Y103937D02*Y102337D01*
Y103937D02*X338395Y104737D01*
X337008Y103937D02*X335621Y104737D01*
X337008Y101575D02*Y99975D01*
Y101575D02*X338395Y102375D01*
X337008Y101575D02*X335621Y102375D01*
X337008Y99213D02*Y97613D01*
Y99213D02*X338395Y100013D01*
X337008Y99213D02*X335621Y100013D01*
X337008Y96850D02*Y95250D01*
Y96850D02*X338395Y97650D01*
X337008Y96850D02*X335621Y97650D01*
X337008Y94488D02*Y92888D01*
Y94488D02*X338395Y95288D01*
X337008Y94488D02*X335621Y95288D01*
X337008Y92126D02*Y90526D01*
Y92126D02*X338395Y92926D01*
X337008Y92126D02*X335621Y92926D01*
X337008Y89764D02*Y88164D01*
Y89764D02*X338395Y90564D01*
X337008Y89764D02*X335621Y90564D01*
X337008Y87402D02*Y85802D01*
Y87402D02*X338395Y88202D01*
X337008Y87402D02*X335621Y88202D01*
X337008Y85039D02*Y83439D01*
Y85039D02*X338395Y85839D01*
X337008Y85039D02*X335621Y85839D01*
X337008Y82677D02*Y81077D01*
Y82677D02*X338395Y83477D01*
X337008Y82677D02*X335621Y83477D01*
X337008Y111024D02*Y109424D01*
Y111024D02*X338395Y111824D01*
X337008Y111024D02*X335621Y111824D01*
X337008Y113386D02*Y111786D01*
Y113386D02*X338395Y114186D01*
X337008Y113386D02*X335621Y114186D01*
X335433Y81102D02*Y79502D01*
Y81102D02*X336820Y81902D01*
X335433Y81102D02*X334046Y81902D01*
X333071Y81102D02*Y79502D01*
Y81102D02*X334458Y81902D01*
X333071Y81102D02*X331684Y81902D01*
X330709Y81102D02*Y79502D01*
Y81102D02*X332095Y81902D01*
X330709Y81102D02*X329322Y81902D01*
X328346Y81102D02*Y79502D01*
Y81102D02*X329733Y81902D01*
X328346Y81102D02*X326960Y81902D01*
X325984Y81102D02*Y79502D01*
Y81102D02*X327371Y81902D01*
X325984Y81102D02*X324598Y81902D01*
X323622Y81102D02*Y79502D01*
Y81102D02*X325009Y81902D01*
X323622Y81102D02*X322235Y81902D01*
X321260Y81102D02*Y79502D01*
Y81102D02*X322647Y81902D01*
X321260Y81102D02*X319873Y81902D01*
X318898Y81102D02*Y79502D01*
Y81102D02*X320284Y81902D01*
X318898Y81102D02*X317511Y81902D01*
X316535Y81102D02*Y79502D01*
Y81102D02*X317922Y81902D01*
X316535Y81102D02*X315149Y81902D01*
X314173Y81102D02*Y79502D01*
Y81102D02*X315560Y81902D01*
X314173Y81102D02*X312787Y81902D01*
X311811Y81102D02*Y79502D01*
Y81102D02*X313198Y81902D01*
X311811Y81102D02*X310424Y81902D01*
X309449Y81102D02*Y79502D01*
Y81102D02*X310835Y81902D01*
X309449Y81102D02*X308062Y81902D01*
X307087Y81102D02*Y79502D01*
Y81102D02*X308473Y81902D01*
X307087Y81102D02*X305700Y81902D01*
X304724Y81102D02*Y79502D01*
Y81102D02*X306111Y81902D01*
X304724Y81102D02*X303338Y81902D01*
X302362Y81102D02*Y79502D01*
Y81102D02*X303749Y81902D01*
X302362Y81102D02*X300976Y81902D01*
X300000Y81102D02*Y79502D01*
Y81102D02*X301387Y81902D01*
X300000Y81102D02*X298613Y81902D01*
X297638Y81102D02*Y79502D01*
Y81102D02*X299024Y81902D01*
X297638Y81102D02*X296251Y81902D01*
X295276Y81102D02*Y79502D01*
Y81102D02*X296662Y81902D01*
X295276Y81102D02*X293889Y81902D01*
X292913Y81102D02*Y79502D01*
Y81102D02*X294300Y81902D01*
X292913Y81102D02*X291527Y81902D01*
X290551Y81102D02*Y79502D01*
Y81102D02*X291938Y81902D01*
X290551Y81102D02*X289165Y81902D01*
X288189Y81102D02*Y79502D01*
Y81102D02*X289576Y81902D01*
X288189Y81102D02*X286802Y81902D01*
X285827Y81102D02*Y79502D01*
Y81102D02*X287213Y81902D01*
X285827Y81102D02*X284440Y81902D01*
X283465Y81102D02*Y79502D01*
Y81102D02*X284851Y81902D01*
X283465Y81102D02*X282078Y81902D01*
X281102Y81102D02*Y79502D01*
Y81102D02*X282489Y81902D01*
X281102Y81102D02*X279716Y81902D01*
X278740Y81102D02*Y79502D01*
Y81102D02*X280127Y81902D01*
X278740Y81102D02*X277353Y81902D01*
X276378Y81102D02*Y79502D01*
Y81102D02*X277765Y81902D01*
X276378Y81102D02*X274991Y81902D01*
X274016Y81102D02*Y79502D01*
Y81102D02*X275402Y81902D01*
X274016Y81102D02*X272629Y81902D01*
X271654Y81102D02*Y79502D01*
Y81102D02*X273040Y81902D01*
X271654Y81102D02*X270267Y81902D01*
X269291Y81102D02*Y79502D01*
Y81102D02*X270678Y81902D01*
X269291Y81102D02*X267905Y81902D01*
X266929Y81102D02*Y79502D01*
Y81102D02*X268316Y81902D01*
X266929Y81102D02*X265542Y81902D01*
X264567Y81102D02*Y79502D01*
Y81102D02*X265954Y81902D01*
X264567Y81102D02*X263180Y81902D01*
X262205Y81102D02*Y79502D01*
Y81102D02*X263591Y81902D01*
X262205Y81102D02*X260818Y81902D01*
X259843Y81102D02*Y79502D01*
Y81102D02*X261229Y81902D01*
X259843Y81102D02*X258456Y81902D01*
X257480Y81102D02*Y79502D01*
Y81102D02*X258867Y81902D01*
X257480Y81102D02*X256094Y81902D01*
X255118Y81102D02*Y79502D01*
Y81102D02*X256505Y81902D01*
X255118Y81102D02*X253731Y81902D01*
X252756Y81102D02*Y79502D01*
Y81102D02*X254143Y81902D01*
X252756Y81102D02*X251369Y81902D01*
X250394Y81102D02*Y79502D01*
Y81102D02*X251780Y81902D01*
X250394Y81102D02*X249007Y81902D01*
X248031Y81102D02*Y79502D01*
Y81102D02*X249418Y81902D01*
X248031Y81102D02*X246645Y81902D01*
X245669Y81102D02*Y79502D01*
Y81102D02*X247056Y81902D01*
X245669Y81102D02*X244283Y81902D01*
X243307Y81102D02*Y79502D01*
Y81102D02*X244694Y81902D01*
X243307Y81102D02*X241920Y81902D01*
X240945Y81102D02*Y79502D01*
Y81102D02*X242332Y81902D01*
X240945Y81102D02*X239558Y81902D01*
X238583Y81102D02*Y79502D01*
Y81102D02*X239969Y81902D01*
X238583Y81102D02*X237196Y81902D01*
X236220Y81102D02*Y79502D01*
Y81102D02*X237607Y81902D01*
X236220Y81102D02*X234834Y81902D01*
X233858Y81102D02*Y79502D01*
Y81102D02*X235245Y81902D01*
X233858Y81102D02*X232472Y81902D01*
X231496Y81102D02*Y79502D01*
Y81102D02*X232883Y81902D01*
X231496Y81102D02*X230109Y81902D01*
X229134Y81102D02*Y79502D01*
Y81102D02*X230521Y81902D01*
X229134Y81102D02*X227747Y81902D01*
X226772Y81102D02*Y79502D01*
Y81102D02*X228158Y81902D01*
X226772Y81102D02*X225385Y81902D01*
X224409Y81102D02*Y79502D01*
Y81102D02*X225796Y81902D01*
X224409Y81102D02*X223023Y81902D01*
X222047Y81102D02*Y79502D01*
Y81102D02*X223434Y81902D01*
X222047Y81102D02*X220661Y81902D01*
X219685Y81102D02*Y79502D01*
Y81102D02*X221072Y81902D01*
X219685Y81102D02*X218298Y81902D01*
X217323Y81102D02*Y79502D01*
Y81102D02*X218709Y81902D01*
X217323Y81102D02*X215936Y81902D01*
X214961Y81102D02*Y79502D01*
Y81102D02*X216347Y81902D01*
X214961Y81102D02*X213574Y81902D01*
X212598Y81102D02*Y79502D01*
Y81102D02*X213985Y81902D01*
X212598Y81102D02*X211212Y81902D01*
X210236Y81102D02*Y79502D01*
Y81102D02*X211623Y81902D01*
X210236Y81102D02*X208850Y81902D01*
X207874Y81102D02*Y79502D01*
Y81102D02*X209261Y81902D01*
X207874Y81102D02*X206487Y81902D01*
X205512Y81102D02*Y79502D01*
Y81102D02*X206898Y81902D01*
X205512Y81102D02*X204125Y81902D01*
X203150Y81102D02*Y79502D01*
Y81102D02*X204536Y81902D01*
X203150Y81102D02*X201763Y81902D01*
X200787Y81102D02*Y79502D01*
Y81102D02*X202174Y81902D01*
X200787Y81102D02*X199401Y81902D01*
X198425Y81102D02*Y79502D01*
Y81102D02*X199812Y81902D01*
X198425Y81102D02*X197039Y81902D01*
X196063Y81102D02*Y79502D01*
Y81102D02*X197450Y81902D01*
X196063Y81102D02*X194676Y81902D01*
X193701Y81102D02*Y79502D01*
Y81102D02*X195087Y81902D01*
X193701Y81102D02*X192314Y81902D01*
X335433Y114961D02*Y113361D01*
Y114961D02*X336820Y115761D01*
X335433Y114961D02*X334046Y115761D01*
X333071Y114961D02*Y113361D01*
Y114961D02*X334458Y115761D01*
X333071Y114961D02*X331684Y115761D01*
X330709Y114961D02*Y113361D01*
Y114961D02*X332095Y115761D01*
X330709Y114961D02*X329322Y115761D01*
X328346Y114961D02*Y113361D01*
Y114961D02*X329733Y115761D01*
X328346Y114961D02*X326960Y115761D01*
X325984Y114961D02*Y113361D01*
Y114961D02*X327371Y115761D01*
X325984Y114961D02*X324598Y115761D01*
X323622Y114961D02*Y113361D01*
Y114961D02*X325009Y115761D01*
X323622Y114961D02*X322235Y115761D01*
X321260Y114961D02*Y113361D01*
Y114961D02*X322647Y115761D01*
X321260Y114961D02*X319873Y115761D01*
X318898Y114961D02*Y113361D01*
Y114961D02*X320284Y115761D01*
X318898Y114961D02*X317511Y115761D01*
X316535Y114961D02*Y113361D01*
Y114961D02*X317922Y115761D01*
X316535Y114961D02*X315149Y115761D01*
X314173Y114961D02*Y113361D01*
Y114961D02*X315560Y115761D01*
X314173Y114961D02*X312787Y115761D01*
X311811Y114961D02*Y113361D01*
Y114961D02*X313198Y115761D01*
X311811Y114961D02*X310424Y115761D01*
X309449Y114961D02*Y113361D01*
Y114961D02*X310835Y115761D01*
X309449Y114961D02*X308062Y115761D01*
X307087Y114961D02*Y113361D01*
Y114961D02*X308473Y115761D01*
X307087Y114961D02*X305700Y115761D01*
X304724Y114961D02*Y113361D01*
Y114961D02*X306111Y115761D01*
X304724Y114961D02*X303338Y115761D01*
X302362Y114961D02*Y113361D01*
Y114961D02*X303749Y115761D01*
X302362Y114961D02*X300976Y115761D01*
X300000Y114961D02*Y113361D01*
Y114961D02*X301387Y115761D01*
X300000Y114961D02*X298613Y115761D01*
X297638Y114961D02*Y113361D01*
Y114961D02*X299024Y115761D01*
X297638Y114961D02*X296251Y115761D01*
X295276Y114961D02*Y113361D01*
Y114961D02*X296662Y115761D01*
X295276Y114961D02*X293889Y115761D01*
X292913Y114961D02*Y113361D01*
Y114961D02*X294300Y115761D01*
X292913Y114961D02*X291527Y115761D01*
X290551Y114961D02*Y113361D01*
Y114961D02*X291938Y115761D01*
X290551Y114961D02*X289165Y115761D01*
X288189Y114961D02*Y113361D01*
Y114961D02*X289576Y115761D01*
X288189Y114961D02*X286802Y115761D01*
X285827Y114961D02*Y113361D01*
Y114961D02*X287213Y115761D01*
X285827Y114961D02*X284440Y115761D01*
X283465Y114961D02*Y113361D01*
Y114961D02*X284851Y115761D01*
X283465Y114961D02*X282078Y115761D01*
X281102Y114961D02*Y113361D01*
Y114961D02*X282489Y115761D01*
X281102Y114961D02*X279716Y115761D01*
X278740Y114961D02*Y113361D01*
Y114961D02*X280127Y115761D01*
X278740Y114961D02*X277353Y115761D01*
X276378Y114961D02*Y113361D01*
Y114961D02*X277765Y115761D01*
X276378Y114961D02*X274991Y115761D01*
X274016Y114961D02*Y113361D01*
Y114961D02*X275402Y115761D01*
X274016Y114961D02*X272629Y115761D01*
X271654Y114961D02*Y113361D01*
Y114961D02*X273040Y115761D01*
X271654Y114961D02*X270267Y115761D01*
X269291Y114961D02*Y113361D01*
Y114961D02*X270678Y115761D01*
X269291Y114961D02*X267905Y115761D01*
X266929Y114961D02*Y113361D01*
Y114961D02*X268316Y115761D01*
X266929Y114961D02*X265542Y115761D01*
X264567Y114961D02*Y113361D01*
Y114961D02*X265954Y115761D01*
X264567Y114961D02*X263180Y115761D01*
X262205Y114961D02*Y113361D01*
Y114961D02*X263591Y115761D01*
X262205Y114961D02*X260818Y115761D01*
X259843Y114961D02*Y113361D01*
Y114961D02*X261229Y115761D01*
X259843Y114961D02*X258456Y115761D01*
X257480Y114961D02*Y113361D01*
Y114961D02*X258867Y115761D01*
X257480Y114961D02*X256094Y115761D01*
X255118Y114961D02*Y113361D01*
Y114961D02*X256505Y115761D01*
X255118Y114961D02*X253731Y115761D01*
X252756Y114961D02*Y113361D01*
Y114961D02*X254143Y115761D01*
X252756Y114961D02*X251369Y115761D01*
X250394Y114961D02*Y113361D01*
Y114961D02*X251780Y115761D01*
X250394Y114961D02*X249007Y115761D01*
X248031Y114961D02*Y113361D01*
Y114961D02*X249418Y115761D01*
X248031Y114961D02*X246645Y115761D01*
X245669Y114961D02*Y113361D01*
Y114961D02*X247056Y115761D01*
X245669Y114961D02*X244283Y115761D01*
X243307Y114961D02*Y113361D01*
Y114961D02*X244694Y115761D01*
X243307Y114961D02*X241920Y115761D01*
X240945Y114961D02*Y113361D01*
Y114961D02*X242332Y115761D01*
X240945Y114961D02*X239558Y115761D01*
X238583Y114961D02*Y113361D01*
Y114961D02*X239969Y115761D01*
X238583Y114961D02*X237196Y115761D01*
X236220Y114961D02*Y113361D01*
Y114961D02*X237607Y115761D01*
X236220Y114961D02*X234834Y115761D01*
X233858Y114961D02*Y113361D01*
Y114961D02*X235245Y115761D01*
X233858Y114961D02*X232472Y115761D01*
X231496Y114961D02*Y113361D01*
Y114961D02*X232883Y115761D01*
X231496Y114961D02*X230109Y115761D01*
X229134Y114961D02*Y113361D01*
Y114961D02*X230521Y115761D01*
X229134Y114961D02*X227747Y115761D01*
X226772Y114961D02*Y113361D01*
Y114961D02*X228158Y115761D01*
X226772Y114961D02*X225385Y115761D01*
X224409Y114961D02*Y113361D01*
Y114961D02*X225796Y115761D01*
X224409Y114961D02*X223023Y115761D01*
X222047Y114961D02*Y113361D01*
Y114961D02*X223434Y115761D01*
X222047Y114961D02*X220661Y115761D01*
X219685Y114961D02*Y113361D01*
Y114961D02*X221072Y115761D01*
X219685Y114961D02*X218298Y115761D01*
X217323Y114961D02*Y113361D01*
Y114961D02*X218709Y115761D01*
X217323Y114961D02*X215936Y115761D01*
X214961Y114961D02*Y113361D01*
Y114961D02*X216347Y115761D01*
X214961Y114961D02*X213574Y115761D01*
X212598Y114961D02*Y113361D01*
Y114961D02*X213985Y115761D01*
X212598Y114961D02*X211212Y115761D01*
X210236Y114961D02*Y113361D01*
Y114961D02*X211623Y115761D01*
X210236Y114961D02*X208850Y115761D01*
X207874Y114961D02*Y113361D01*
Y114961D02*X209261Y115761D01*
X207874Y114961D02*X206487Y115761D01*
X205512Y114961D02*Y113361D01*
Y114961D02*X206898Y115761D01*
X205512Y114961D02*X204125Y115761D01*
X203150Y114961D02*Y113361D01*
Y114961D02*X204536Y115761D01*
X203150Y114961D02*X201763Y115761D01*
X200787Y114961D02*Y113361D01*
Y114961D02*X202174Y115761D01*
X200787Y114961D02*X199401Y115761D01*
X198425Y114961D02*Y113361D01*
Y114961D02*X199812Y115761D01*
X198425Y114961D02*X197039Y115761D01*
X196063Y114961D02*Y113361D01*
Y114961D02*X197450Y115761D01*
X196063Y114961D02*X194676Y115761D01*
X193701Y114961D02*Y113361D01*
Y114961D02*X195087Y115761D01*
X193701Y114961D02*X192314Y115761D01*
X15000Y254700D02*Y251500D01*
X13400Y253100D02*X16600D01*
X135000Y255350D02*X136500Y252350D01*
X138000Y255350D01*
X136500Y252350D02*Y249350D01*
X139800Y252650D02*X142050D01*
X139800Y249350D02*X142800D01*
X139800Y255350D02*Y249350D01*
Y255350D02*X142800D01*
X147600D02*X148350Y254600D01*
X145350Y255350D02*X147600D01*
X144600Y254600D02*X145350Y255350D01*
X144600Y254600D02*Y253100D01*
X145350Y252350D01*
X147600D01*
X148350Y251600D01*
Y250100D01*
X147600Y249350D02*X148350Y250100D01*
X145350Y249350D02*X147600D01*
X144600Y250100D02*X145350Y249350D01*
X98000Y250100D02*X98750Y249350D01*
X98000Y251300D02*Y250100D01*
Y251300D02*X99050Y252350D01*
X99950D01*
X101000Y251300D01*
Y250100D01*
X100250Y249350D02*X101000Y250100D01*
X98750Y249350D02*X100250D01*
X98000Y253400D02*X99050Y252350D01*
X98000Y254600D02*Y253400D01*
Y254600D02*X98750Y255350D01*
X100250D01*
X101000Y254600D01*
Y253400D01*
X99950Y252350D02*X101000Y253400D01*
X15000Y268100D02*Y266500D01*
Y268100D02*X16387Y268900D01*
X15000Y268100D02*X13613Y268900D01*
X140000Y270350D02*Y264350D01*
Y270350D02*X143750Y264350D01*
Y270350D02*Y264350D01*
X145550Y269600D02*Y265100D01*
Y269600D02*X146300Y270350D01*
X147800D01*
X148550Y269600D01*
Y265100D01*
X147800Y264350D02*X148550Y265100D01*
X146300Y264350D02*X147800D01*
X145550Y265100D02*X146300Y264350D01*
X98000Y269150D02*X99200Y270350D01*
Y264350D01*
X98000D02*X100250D01*
X102050Y270350D02*X105050D01*
X102050D02*Y267350D01*
X102800Y268100D01*
X104300D01*
X105050Y267350D01*
Y265100D01*
X104300Y264350D02*X105050Y265100D01*
X102800Y264350D02*X104300D01*
X102050Y265100D02*X102800Y264350D01*
X106850Y266600D02*X109850Y270350D01*
X106850Y266600D02*X110600D01*
X109850Y270350D02*Y264350D01*
X45000Y265100D02*X45750Y264350D01*
X45000Y269600D02*Y265100D01*
Y269600D02*X45750Y270350D01*
X47250D01*
X48000Y269600D01*
Y265100D01*
X47250Y264350D02*X48000Y265100D01*
X45750Y264350D02*X47250D01*
X45000Y265850D02*X48000Y268850D01*
X49800Y264350D02*X50550D01*
X52350Y265100D02*X53100Y264350D01*
X52350Y269600D02*Y265100D01*
Y269600D02*X53100Y270350D01*
X54600D01*
X55350Y269600D01*
Y265100D01*
X54600Y264350D02*X55350Y265100D01*
X53100Y264350D02*X54600D01*
X52350Y265850D02*X55350Y268850D01*
X57150Y269600D02*X57900Y270350D01*
X60150D01*
X60900Y269600D01*
Y268100D01*
X57150Y264350D02*X60900Y268100D01*
X57150Y264350D02*X60900D01*
X62700Y265100D02*X63450Y264350D01*
X62700Y269600D02*Y265100D01*
Y269600D02*X63450Y270350D01*
X64950D01*
X65700Y269600D01*
Y265100D01*
X64950Y264350D02*X65700Y265100D01*
X63450Y264350D02*X64950D01*
X62700Y265850D02*X65700Y268850D01*
X45000Y250100D02*X45750Y249350D01*
X45000Y254600D02*Y250100D01*
Y254600D02*X45750Y255350D01*
X47250D01*
X48000Y254600D01*
Y250100D01*
X47250Y249350D02*X48000Y250100D01*
X45750Y249350D02*X47250D01*
X45000Y250850D02*X48000Y253850D01*
X49800Y249350D02*X50550D01*
X52350Y250100D02*X53100Y249350D01*
X52350Y254600D02*Y250100D01*
Y254600D02*X53100Y255350D01*
X54600D01*
X55350Y254600D01*
Y250100D01*
X54600Y249350D02*X55350Y250100D01*
X53100Y249350D02*X54600D01*
X52350Y250850D02*X55350Y253850D01*
X57150Y254600D02*X57900Y255350D01*
X60150D01*
X60900Y254600D01*
Y253100D01*
X57150Y249350D02*X60900Y253100D01*
X57150Y249350D02*X60900D01*
X62700Y250100D02*X63450Y249350D01*
X62700Y254600D02*Y250100D01*
Y254600D02*X63450Y255350D01*
X64950D01*
X65700Y254600D01*
Y250100D01*
X64950Y249350D02*X65700Y250100D01*
X63450Y249350D02*X64950D01*
X62700Y250850D02*X65700Y253850D01*
X3000Y285350D02*X3750Y284600D01*
X750Y285350D02*X3000D01*
X0Y284600D02*X750Y285350D01*
X0Y284600D02*Y283100D01*
X750Y282350D01*
X3000D01*
X3750Y281600D01*
Y280100D01*
X3000Y279350D02*X3750Y280100D01*
X750Y279350D02*X3000D01*
X0Y280100D02*X750Y279350D01*
X5550Y282350D02*Y280100D01*
X6300Y279350D01*
X8550Y282350D02*Y277850D01*
X7800Y277100D02*X8550Y277850D01*
X6300Y277100D02*X7800D01*
X5550Y277850D02*X6300Y277100D01*
Y279350D02*X7800D01*
X8550Y280100D01*
X11100Y281600D02*Y279350D01*
Y281600D02*X11850Y282350D01*
X12600D01*
X13350Y281600D01*
Y279350D01*
Y281600D02*X14100Y282350D01*
X14850D01*
X15600Y281600D01*
Y279350D01*
X10350Y282350D02*X11100Y281600D01*
X17400Y285350D02*Y279350D01*
Y280100D02*X18150Y279350D01*
X19650D01*
X20400Y280100D01*
Y281600D02*Y280100D01*
X19650Y282350D02*X20400Y281600D01*
X18150Y282350D02*X19650D01*
X17400Y281600D02*X18150Y282350D01*
X22200Y281600D02*Y280100D01*
Y281600D02*X22950Y282350D01*
X24450D01*
X25200Y281600D01*
Y280100D01*
X24450Y279350D02*X25200Y280100D01*
X22950Y279350D02*X24450D01*
X22200Y280100D02*X22950Y279350D01*
X27000Y285350D02*Y280100D01*
X27750Y279350D01*
X0Y276100D02*X29250D01*
X41750Y285350D02*Y279350D01*
X43700Y285350D02*X44750Y284300D01*
Y280400D01*
X43700Y279350D02*X44750Y280400D01*
X41000Y279350D02*X43700D01*
X41000Y285350D02*X43700D01*
G54D73*X46550Y283850D02*Y283700D01*
G54D72*Y281600D02*Y279350D01*
X50300Y282350D02*X51050Y281600D01*
X48800Y282350D02*X50300D01*
X48050Y281600D02*X48800Y282350D01*
X48050Y281600D02*Y280100D01*
X48800Y279350D01*
X51050Y282350D02*Y280100D01*
X51800Y279350D01*
X48800D02*X50300D01*
X51050Y280100D01*
X54350Y281600D02*Y279350D01*
Y281600D02*X55100Y282350D01*
X55850D01*
X56600Y281600D01*
Y279350D01*
Y281600D02*X57350Y282350D01*
X58100D01*
X58850Y281600D01*
Y279350D01*
X53600Y282350D02*X54350Y281600D01*
X60650Y279350D02*X61400D01*
X65900Y280100D02*X66650Y279350D01*
X65900Y284600D02*X66650Y285350D01*
X65900Y284600D02*Y280100D01*
X68450Y285350D02*X69950D01*
X69200D02*Y279350D01*
X68450D02*X69950D01*
X72500Y281600D02*Y279350D01*
Y281600D02*X73250Y282350D01*
X74000D01*
X74750Y281600D01*
Y279350D01*
X71750Y282350D02*X72500Y281600D01*
X77300Y282350D02*X79550D01*
X76550Y281600D02*X77300Y282350D01*
X76550Y281600D02*Y280100D01*
X77300Y279350D01*
X79550D01*
X81350Y285350D02*Y279350D01*
Y281600D02*X82100Y282350D01*
X83600D01*
X84350Y281600D01*
Y279350D01*
X86150Y285350D02*X86900Y284600D01*
Y280100D01*
X86150Y279350D02*X86900Y280100D01*
X41000Y276100D02*X88700D01*
X96050Y279350D02*X98000D01*
X95000Y280400D02*X96050Y279350D01*
X95000Y284300D02*Y280400D01*
Y284300D02*X96050Y285350D01*
X98000D01*
X99800Y281600D02*Y280100D01*
Y281600D02*X100550Y282350D01*
X102050D01*
X102800Y281600D01*
Y280100D01*
X102050Y279350D02*X102800Y280100D01*
X100550Y279350D02*X102050D01*
X99800Y280100D02*X100550Y279350D01*
X104600Y282350D02*Y280100D01*
X105350Y279350D01*
X106850D01*
X107600Y280100D01*
Y282350D02*Y280100D01*
X110150Y281600D02*Y279350D01*
Y281600D02*X110900Y282350D01*
X111650D01*
X112400Y281600D01*
Y279350D01*
X109400Y282350D02*X110150Y281600D01*
X114950Y285350D02*Y280100D01*
X115700Y279350D01*
X114200Y283100D02*X115700D01*
X95000Y276100D02*X117200D01*
X130750Y285350D02*Y279350D01*
X130000Y285350D02*X133000D01*
X133750Y284600D01*
Y283100D01*
X133000Y282350D02*X133750Y283100D01*
X130750Y282350D02*X133000D01*
X135550Y285350D02*Y280100D01*
X136300Y279350D01*
X140050Y282350D02*X140800Y281600D01*
X138550Y282350D02*X140050D01*
X137800Y281600D02*X138550Y282350D01*
X137800Y281600D02*Y280100D01*
X138550Y279350D01*
X140800Y282350D02*Y280100D01*
X141550Y279350D01*
X138550D02*X140050D01*
X140800Y280100D01*
X144100Y285350D02*Y280100D01*
X144850Y279350D01*
X143350Y283100D02*X144850D01*
X147100Y279350D02*X149350D01*
X146350Y280100D02*X147100Y279350D01*
X146350Y281600D02*Y280100D01*
Y281600D02*X147100Y282350D01*
X148600D01*
X149350Y281600D01*
X146350Y280850D02*X149350D01*
Y281600D02*Y280850D01*
X154150Y285350D02*Y279350D01*
X153400D02*X154150Y280100D01*
X151900Y279350D02*X153400D01*
X151150Y280100D02*X151900Y279350D01*
X151150Y281600D02*Y280100D01*
Y281600D02*X151900Y282350D01*
X153400D01*
X154150Y281600D01*
X157450Y282350D02*Y281600D01*
Y280100D02*Y279350D01*
X155950Y284600D02*Y283850D01*
Y284600D02*X156700Y285350D01*
X158200D01*
X158950Y284600D01*
Y283850D01*
X157450Y282350D02*X158950Y283850D01*
X130000Y276100D02*X160750D01*
X0Y300350D02*X3000D01*
X1500D02*Y294350D01*
X4800Y300350D02*Y294350D01*
Y296600D02*X5550Y297350D01*
X7050D01*
X7800Y296600D01*
Y294350D01*
X10350D02*X12600D01*
X9600Y295100D02*X10350Y294350D01*
X9600Y296600D02*Y295100D01*
Y296600D02*X10350Y297350D01*
X11850D01*
X12600Y296600D01*
X9600Y295850D02*X12600D01*
Y296600D02*Y295850D01*
X15150Y296600D02*Y294350D01*
Y296600D02*X15900Y297350D01*
X17400D01*
X14400D02*X15150Y296600D01*
X19950Y294350D02*X22200D01*
X19200Y295100D02*X19950Y294350D01*
X19200Y296600D02*Y295100D01*
Y296600D02*X19950Y297350D01*
X21450D01*
X22200Y296600D01*
X19200Y295850D02*X22200D01*
Y296600D02*Y295850D01*
X28950Y297350D02*X29700Y296600D01*
X27450Y297350D02*X28950D01*
X26700Y296600D02*X27450Y297350D01*
X26700Y296600D02*Y295100D01*
X27450Y294350D01*
X29700Y297350D02*Y295100D01*
X30450Y294350D01*
X27450D02*X28950D01*
X29700Y295100D01*
X33000Y296600D02*Y294350D01*
Y296600D02*X33750Y297350D01*
X35250D01*
X32250D02*X33000Y296600D01*
X37800Y294350D02*X40050D01*
X37050Y295100D02*X37800Y294350D01*
X37050Y296600D02*Y295100D01*
Y296600D02*X37800Y297350D01*
X39300D01*
X40050Y296600D01*
X37050Y295850D02*X40050D01*
Y296600D02*Y295850D01*
X44550Y296600D02*X47550Y300350D01*
X44550Y296600D02*X48300D01*
X47550Y300350D02*Y294350D01*
X55800Y300350D02*Y294350D01*
X55050D02*X55800Y295100D01*
X53550Y294350D02*X55050D01*
X52800Y295100D02*X53550Y294350D01*
X52800Y296600D02*Y295100D01*
Y296600D02*X53550Y297350D01*
X55050D01*
X55800Y296600D01*
G54D73*X57600Y298850D02*Y298700D01*
G54D72*Y296600D02*Y294350D01*
X59850Y299600D02*Y294350D01*
Y299600D02*X60600Y300350D01*
X61350D01*
X59100Y297350D02*X60600D01*
X63600Y299600D02*Y294350D01*
Y299600D02*X64350Y300350D01*
X65100D01*
X62850Y297350D02*X64350D01*
X67350Y294350D02*X69600D01*
X66600Y295100D02*X67350Y294350D01*
X66600Y296600D02*Y295100D01*
Y296600D02*X67350Y297350D01*
X68850D01*
X69600Y296600D01*
X66600Y295850D02*X69600D01*
Y296600D02*Y295850D01*
X72150Y296600D02*Y294350D01*
Y296600D02*X72900Y297350D01*
X74400D01*
X71400D02*X72150Y296600D01*
X76950Y294350D02*X79200D01*
X76200Y295100D02*X76950Y294350D01*
X76200Y296600D02*Y295100D01*
Y296600D02*X76950Y297350D01*
X78450D01*
X79200Y296600D01*
X76200Y295850D02*X79200D01*
Y296600D02*Y295850D01*
X81750Y296600D02*Y294350D01*
Y296600D02*X82500Y297350D01*
X83250D01*
X84000Y296600D01*
Y294350D01*
X81000Y297350D02*X81750Y296600D01*
X86550Y300350D02*Y295100D01*
X87300Y294350D01*
X85800Y298100D02*X87300D01*
X94500Y300350D02*Y294350D01*
X93750D02*X94500Y295100D01*
X92250Y294350D02*X93750D01*
X91500Y295100D02*X92250Y294350D01*
X91500Y296600D02*Y295100D01*
Y296600D02*X92250Y297350D01*
X93750D01*
X94500Y296600D01*
X97050D02*Y294350D01*
Y296600D02*X97800Y297350D01*
X99300D01*
X96300D02*X97050Y296600D01*
G54D73*X101100Y298850D02*Y298700D01*
G54D72*Y296600D02*Y294350D01*
X102600Y300350D02*Y295100D01*
X103350Y294350D01*
X104850Y300350D02*Y295100D01*
X105600Y294350D01*
X110550D02*X112800D01*
X113550Y295100D01*
X112800Y295850D02*X113550Y295100D01*
X110550Y295850D02*X112800D01*
X109800Y296600D02*X110550Y295850D01*
X109800Y296600D02*X110550Y297350D01*
X112800D01*
X113550Y296600D01*
X109800Y295100D02*X110550Y294350D01*
G54D73*X115350Y298850D02*Y298700D01*
G54D72*Y296600D02*Y294350D01*
X116850Y297350D02*X119850D01*
X116850Y294350D02*X119850Y297350D01*
X116850Y294350D02*X119850D01*
X122400D02*X124650D01*
X121650Y295100D02*X122400Y294350D01*
X121650Y296600D02*Y295100D01*
Y296600D02*X122400Y297350D01*
X123900D01*
X124650Y296600D01*
X121650Y295850D02*X124650D01*
Y296600D02*Y295850D01*
X127200Y294350D02*X129450D01*
X130200Y295100D01*
X129450Y295850D02*X130200Y295100D01*
X127200Y295850D02*X129450D01*
X126450Y296600D02*X127200Y295850D01*
X126450Y296600D02*X127200Y297350D01*
X129450D01*
X130200Y296600D01*
X126450Y295100D02*X127200Y294350D01*
X134700Y297350D02*Y295100D01*
X135450Y294350D01*
X136950D01*
X137700Y295100D01*
Y297350D02*Y295100D01*
X140250Y294350D02*X142500D01*
X143250Y295100D01*
X142500Y295850D02*X143250Y295100D01*
X140250Y295850D02*X142500D01*
X139500Y296600D02*X140250Y295850D01*
X139500Y296600D02*X140250Y297350D01*
X142500D01*
X143250Y296600D01*
X139500Y295100D02*X140250Y294350D01*
X145800D02*X148050D01*
X145050Y295100D02*X145800Y294350D01*
X145050Y296600D02*Y295100D01*
Y296600D02*X145800Y297350D01*
X147300D01*
X148050Y296600D01*
X145050Y295850D02*X148050D01*
Y296600D02*Y295850D01*
X152850Y300350D02*Y294350D01*
X152100D02*X152850Y295100D01*
X150600Y294350D02*X152100D01*
X149850Y295100D02*X150600Y294350D01*
X149850Y296600D02*Y295100D01*
Y296600D02*X150600Y297350D01*
X152100D01*
X152850Y296600D01*
G54D73*X157350Y298850D02*Y298700D01*
G54D72*Y296600D02*Y294350D01*
X159600Y296600D02*Y294350D01*
Y296600D02*X160350Y297350D01*
X161100D01*
X161850Y296600D01*
Y294350D01*
X158850Y297350D02*X159600Y296600D01*
X167100Y300350D02*Y295100D01*
X167850Y294350D01*
X166350Y298100D02*X167850D01*
X169350Y300350D02*Y294350D01*
Y296600D02*X170100Y297350D01*
X171600D01*
X172350Y296600D01*
Y294350D01*
G54D73*X174150Y298850D02*Y298700D01*
G54D72*Y296600D02*Y294350D01*
X176400D02*X178650D01*
X179400Y295100D01*
X178650Y295850D02*X179400Y295100D01*
X176400Y295850D02*X178650D01*
X175650Y296600D02*X176400Y295850D01*
X175650Y296600D02*X176400Y297350D01*
X178650D01*
X179400Y296600D01*
X175650Y295100D02*X176400Y294350D01*
X183900Y300350D02*Y295100D01*
X184650Y294350D01*
X188400Y297350D02*X189150Y296600D01*
X186900Y297350D02*X188400D01*
X186150Y296600D02*X186900Y297350D01*
X186150Y296600D02*Y295100D01*
X186900Y294350D01*
X189150Y297350D02*Y295100D01*
X189900Y294350D01*
X186900D02*X188400D01*
X189150Y295100D01*
X191700Y297350D02*Y295100D01*
X192450Y294350D01*
X194700Y297350D02*Y292850D01*
X193950Y292100D02*X194700Y292850D01*
X192450Y292100D02*X193950D01*
X191700Y292850D02*X192450Y292100D01*
Y294350D02*X193950D01*
X194700Y295100D01*
X196500Y296600D02*Y295100D01*
Y296600D02*X197250Y297350D01*
X198750D01*
X199500Y296600D01*
Y295100D01*
X198750Y294350D02*X199500Y295100D01*
X197250Y294350D02*X198750D01*
X196500Y295100D02*X197250Y294350D01*
X201300Y297350D02*Y295100D01*
X202050Y294350D01*
X203550D01*
X204300Y295100D01*
Y297350D02*Y295100D01*
X206850Y300350D02*Y295100D01*
X207600Y294350D01*
X206100Y298100D02*X207600D01*
X209100Y292850D02*X210600Y294350D01*
X215100Y299600D02*X215850Y300350D01*
X218100D01*
X218850Y299600D01*
Y298100D01*
X215100Y294350D02*X218850Y298100D01*
X215100Y294350D02*X218850D01*
X220650Y295100D02*X221400Y294350D01*
X220650Y299600D02*Y295100D01*
Y299600D02*X221400Y300350D01*
X222900D01*
X223650Y299600D01*
Y295100D01*
X222900Y294350D02*X223650Y295100D01*
X221400Y294350D02*X222900D01*
X220650Y295850D02*X223650Y298850D01*
X225450Y299600D02*X226200Y300350D01*
X228450D01*
X229200Y299600D01*
Y298100D01*
X225450Y294350D02*X229200Y298100D01*
X225450Y294350D02*X229200D01*
X233700Y300350D02*Y294350D01*
Y296600D02*X234450Y297350D01*
X235950D01*
X236700Y296600D01*
Y294350D01*
X238500Y296600D02*Y295100D01*
Y296600D02*X239250Y297350D01*
X240750D01*
X241500Y296600D01*
Y295100D01*
X240750Y294350D02*X241500Y295100D01*
X239250Y294350D02*X240750D01*
X238500Y295100D02*X239250Y294350D01*
X243300Y300350D02*Y295100D01*
X244050Y294350D01*
X246300D02*X248550D01*
X245550Y295100D02*X246300Y294350D01*
X245550Y296600D02*Y295100D01*
Y296600D02*X246300Y297350D01*
X247800D01*
X248550Y296600D01*
X245550Y295850D02*X248550D01*
Y296600D02*Y295850D01*
X251100Y294350D02*X253350D01*
X254100Y295100D01*
X253350Y295850D02*X254100Y295100D01*
X251100Y295850D02*X253350D01*
X250350Y296600D02*X251100Y295850D01*
X250350Y296600D02*X251100Y297350D01*
X253350D01*
X254100Y296600D01*
X250350Y295100D02*X251100Y294350D01*
X259350Y300350D02*Y295100D01*
X260100Y294350D01*
X258600Y298100D02*X260100D01*
X261600Y296600D02*Y295100D01*
Y296600D02*X262350Y297350D01*
X263850D01*
X264600Y296600D01*
Y295100D01*
X263850Y294350D02*X264600Y295100D01*
X262350Y294350D02*X263850D01*
X261600Y295100D02*X262350Y294350D01*
X267150Y300350D02*Y295100D01*
X267900Y294350D01*
X266400Y298100D02*X267900D01*
X271650Y297350D02*X272400Y296600D01*
X270150Y297350D02*X271650D01*
X269400Y296600D02*X270150Y297350D01*
X269400Y296600D02*Y295100D01*
X270150Y294350D01*
X272400Y297350D02*Y295100D01*
X273150Y294350D01*
X270150D02*X271650D01*
X272400Y295100D01*
X274950Y300350D02*Y295100D01*
X275700Y294350D01*
G54D74*X0Y196850D02*X354331D01*
X0D02*Y0D01*
X354331Y196850D02*Y0D01*
X0D02*X354331D01*
G54D72*X200000Y210350D02*Y204350D01*
Y210350D02*X202250Y207350D01*
X204500Y210350D01*
Y204350D01*
X208550Y207350D02*X209300Y206600D01*
X207050Y207350D02*X208550D01*
X206300Y206600D02*X207050Y207350D01*
X206300Y206600D02*Y205100D01*
X207050Y204350D01*
X209300Y207350D02*Y205100D01*
X210050Y204350D01*
X207050D02*X208550D01*
X209300Y205100D01*
X211850Y207350D02*X214850Y204350D01*
X211850D02*X214850Y207350D01*
G54D73*X216650Y208850D02*Y208700D01*
G54D72*Y206600D02*Y204350D01*
X218900Y206600D02*Y204350D01*
Y206600D02*X219650Y207350D01*
X220400D01*
X221150Y206600D01*
Y204350D01*
Y206600D02*X221900Y207350D01*
X222650D01*
X223400Y206600D01*
Y204350D01*
X218150Y207350D02*X218900Y206600D01*
X225200Y207350D02*Y205100D01*
X225950Y204350D01*
X227450D01*
X228200Y205100D01*
Y207350D02*Y205100D01*
X230750Y206600D02*Y204350D01*
Y206600D02*X231500Y207350D01*
X232250D01*
X233000Y206600D01*
Y204350D01*
Y206600D02*X233750Y207350D01*
X234500D01*
X235250Y206600D01*
Y204350D01*
X230000Y207350D02*X230750Y206600D01*
X240500Y210350D02*Y204350D01*
X242450Y210350D02*X243500Y209300D01*
Y205400D01*
X242450Y204350D02*X243500Y205400D01*
X239750Y204350D02*X242450D01*
X239750Y210350D02*X242450D01*
G54D73*X245300Y208850D02*Y208700D01*
G54D72*Y206600D02*Y204350D01*
X247550Y206600D02*Y204350D01*
Y206600D02*X248300Y207350D01*
X249050D01*
X249800Y206600D01*
Y204350D01*
Y206600D02*X250550Y207350D01*
X251300D01*
X252050Y206600D01*
Y204350D01*
X246800Y207350D02*X247550Y206600D01*
X254600Y204350D02*X256850D01*
X253850Y205100D02*X254600Y204350D01*
X253850Y206600D02*Y205100D01*
Y206600D02*X254600Y207350D01*
X256100D01*
X256850Y206600D01*
X253850Y205850D02*X256850D01*
Y206600D02*Y205850D01*
X259400Y206600D02*Y204350D01*
Y206600D02*X260150Y207350D01*
X260900D01*
X261650Y206600D01*
Y204350D01*
X258650Y207350D02*X259400Y206600D01*
X264200Y204350D02*X266450D01*
X267200Y205100D01*
X266450Y205850D02*X267200Y205100D01*
X264200Y205850D02*X266450D01*
X263450Y206600D02*X264200Y205850D01*
X263450Y206600D02*X264200Y207350D01*
X266450D01*
X267200Y206600D01*
X263450Y205100D02*X264200Y204350D01*
G54D73*X269000Y208850D02*Y208700D01*
G54D72*Y206600D02*Y204350D01*
X270500Y206600D02*Y205100D01*
Y206600D02*X271250Y207350D01*
X272750D01*
X273500Y206600D01*
Y205100D01*
X272750Y204350D02*X273500Y205100D01*
X271250Y204350D02*X272750D01*
X270500Y205100D02*X271250Y204350D01*
X276050Y206600D02*Y204350D01*
Y206600D02*X276800Y207350D01*
X277550D01*
X278300Y206600D01*
Y204350D01*
X275300Y207350D02*X276050Y206600D01*
X280850Y204350D02*X283100D01*
X283850Y205100D01*
X283100Y205850D02*X283850Y205100D01*
X280850Y205850D02*X283100D01*
X280100Y206600D02*X280850Y205850D01*
X280100Y206600D02*X280850Y207350D01*
X283100D01*
X283850Y206600D01*
X280100Y205100D02*X280850Y204350D01*
X285650Y208100D02*X286400D01*
X285650Y206600D02*X286400D01*
X290900Y209600D02*X291650Y210350D01*
X293150D01*
X293900Y209600D01*
X293150Y204350D02*X293900Y205100D01*
X291650Y204350D02*X293150D01*
X290900Y205100D02*X291650Y204350D01*
Y207650D02*X293150D01*
X293900Y209600D02*Y208400D01*
Y206900D02*Y205100D01*
Y206900D02*X293150Y207650D01*
X293900Y208400D02*X293150Y207650D01*
X295700Y210350D02*X298700D01*
X295700D02*Y207350D01*
X296450Y208100D01*
X297950D01*
X298700Y207350D01*
Y205100D01*
X297950Y204350D02*X298700Y205100D01*
X296450Y204350D02*X297950D01*
X295700Y205100D02*X296450Y204350D01*
X300500Y206600D02*X303500Y210350D01*
X300500Y206600D02*X304250D01*
X303500Y210350D02*Y204350D01*
X306050Y209600D02*X306800Y210350D01*
X308300D01*
X309050Y209600D01*
X308300Y204350D02*X309050Y205100D01*
X306800Y204350D02*X308300D01*
X306050Y205100D02*X306800Y204350D01*
Y207650D02*X308300D01*
X309050Y209600D02*Y208400D01*
Y206900D02*Y205100D01*
Y206900D02*X308300Y207650D01*
X309050Y208400D02*X308300Y207650D01*
X310850Y204350D02*X311600D01*
X313400Y209600D02*X314150Y210350D01*
X315650D01*
X316400Y209600D01*
X315650Y204350D02*X316400Y205100D01*
X314150Y204350D02*X315650D01*
X313400Y205100D02*X314150Y204350D01*
Y207650D02*X315650D01*
X316400Y209600D02*Y208400D01*
Y206900D02*Y205100D01*
Y206900D02*X315650Y207650D01*
X316400Y208400D02*X315650Y207650D01*
X318200Y205100D02*X318950Y204350D01*
X318200Y209600D02*Y205100D01*
Y209600D02*X318950Y210350D01*
X320450D01*
X321200Y209600D01*
Y205100D01*
X320450Y204350D02*X321200Y205100D01*
X318950Y204350D02*X320450D01*
X318200Y205850D02*X321200Y208850D01*
X323750Y204350D02*X326750Y210350D01*
X323000D02*X326750D01*
X328550Y205100D02*X329300Y204350D01*
X328550Y209600D02*Y205100D01*
Y209600D02*X329300Y210350D01*
X330800D01*
X331550Y209600D01*
Y205100D01*
X330800Y204350D02*X331550Y205100D01*
X329300Y204350D02*X330800D01*
X328550Y205850D02*X331550Y208850D01*
X333350Y205100D02*X334100Y204350D01*
X333350Y206300D02*Y205100D01*
Y206300D02*X334400Y207350D01*
X335300D01*
X336350Y206300D01*
Y205100D01*
X335600Y204350D02*X336350Y205100D01*
X334100Y204350D02*X335600D01*
X333350Y208400D02*X334400Y207350D01*
X333350Y209600D02*Y208400D01*
Y209600D02*X334100Y210350D01*
X335600D01*
X336350Y209600D01*
Y208400D01*
X335300Y207350D02*X336350Y208400D01*
X338900Y204350D02*X341900Y210350D01*
X338150D02*X341900D01*
X347150Y206600D02*Y204350D01*
Y206600D02*X347900Y207350D01*
X348650D01*
X349400Y206600D01*
Y204350D01*
Y206600D02*X350150Y207350D01*
X350900D01*
X351650Y206600D01*
Y204350D01*
X346400Y207350D02*X347150Y206600D01*
G54D73*X353450Y208850D02*Y208700D01*
G54D72*Y206600D02*Y204350D01*
X354950Y210350D02*Y205100D01*
X355700Y204350D01*
X357950D02*X360200D01*
X360950Y205100D01*
X360200Y205850D02*X360950Y205100D01*
X357950Y205850D02*X360200D01*
X357200Y206600D02*X357950Y205850D01*
X357200Y206600D02*X357950Y207350D01*
X360200D01*
X360950Y206600D01*
X357200Y205100D02*X357950Y204350D01*
X365450Y207350D02*Y205100D01*
X366200Y204350D01*
X366950D01*
X367700Y205100D01*
Y207350D02*Y205100D01*
X368450Y204350D01*
X369200D01*
X369950Y205100D01*
Y207350D02*Y205100D01*
G54D73*X371750Y208850D02*Y208700D01*
G54D72*Y206600D02*Y204350D01*
X376250Y210350D02*Y204350D01*
X375500D02*X376250Y205100D01*
X374000Y204350D02*X375500D01*
X373250Y205100D02*X374000Y204350D01*
X373250Y206600D02*Y205100D01*
Y206600D02*X374000Y207350D01*
X375500D01*
X376250Y206600D01*
X378800Y204350D02*X381050D01*
X378050Y205100D02*X378800Y204350D01*
X378050Y206600D02*Y205100D01*
Y206600D02*X378800Y207350D01*
X380300D01*
X381050Y206600D01*
X378050Y205850D02*X381050D01*
Y206600D02*Y205850D01*
X382850Y202850D02*X384350Y204350D01*
X388850Y209150D02*X390050Y210350D01*
Y204350D01*
X388850D02*X391100D01*
X393650D02*X395900Y207350D01*
Y209600D02*Y207350D01*
X395150Y210350D02*X395900Y209600D01*
X393650Y210350D02*X395150D01*
X392900Y209600D02*X393650Y210350D01*
X392900Y209600D02*Y208100D01*
X393650Y207350D01*
X395900D01*
X399950Y210350D02*X400700Y209600D01*
X398450Y210350D02*X399950D01*
X397700Y209600D02*X398450Y210350D01*
X397700Y209600D02*Y205100D01*
X398450Y204350D01*
X399950Y207650D02*X400700Y206900D01*
X397700Y207650D02*X399950D01*
X398450Y204350D02*X399950D01*
X400700Y205100D01*
Y206900D02*Y205100D01*
X402500D02*X403250Y204350D01*
X402500Y206300D02*Y205100D01*
Y206300D02*X403550Y207350D01*
X404450D01*
X405500Y206300D01*
Y205100D01*
X404750Y204350D02*X405500Y205100D01*
X403250Y204350D02*X404750D01*
X402500Y208400D02*X403550Y207350D01*
X402500Y209600D02*Y208400D01*
Y209600D02*X403250Y210350D01*
X404750D01*
X405500Y209600D01*
Y208400D01*
X404450Y207350D02*X405500Y208400D01*
X407300Y204350D02*X408050D01*
X409850Y210350D02*X412850D01*
X409850D02*Y207350D01*
X410600Y208100D01*
X412100D01*
X412850Y207350D01*
Y205100D01*
X412100Y204350D02*X412850Y205100D01*
X410600Y204350D02*X412100D01*
X409850Y205100D02*X410600Y204350D01*
X414650Y205100D02*X415400Y204350D01*
X414650Y209600D02*Y205100D01*
Y209600D02*X415400Y210350D01*
X416900D01*
X417650Y209600D01*
Y205100D01*
X416900Y204350D02*X417650Y205100D01*
X415400Y204350D02*X416900D01*
X414650Y205850D02*X417650Y208850D01*
X419450Y209600D02*X420200Y210350D01*
X421700D01*
X422450Y209600D01*
X421700Y204350D02*X422450Y205100D01*
X420200Y204350D02*X421700D01*
X419450Y205100D02*X420200Y204350D01*
Y207650D02*X421700D01*
X422450Y209600D02*Y208400D01*
Y206900D02*Y205100D01*
Y206900D02*X421700Y207650D01*
X422450Y208400D02*X421700Y207650D01*
X425000Y204350D02*X427250Y207350D01*
Y209600D02*Y207350D01*
X426500Y210350D02*X427250Y209600D01*
X425000Y210350D02*X426500D01*
X424250Y209600D02*X425000Y210350D01*
X424250Y209600D02*Y208100D01*
X425000Y207350D01*
X427250D01*
X429050Y209600D02*X429800Y210350D01*
X431300D01*
X432050Y209600D01*
X431300Y204350D02*X432050Y205100D01*
X429800Y204350D02*X431300D01*
X429050Y205100D02*X429800Y204350D01*
Y207650D02*X431300D01*
X432050Y209600D02*Y208400D01*
Y206900D02*Y205100D01*
Y206900D02*X431300Y207650D01*
X432050Y208400D02*X431300Y207650D01*
X434600Y204350D02*X437600Y210350D01*
X433850D02*X437600D01*
X442850Y206600D02*Y204350D01*
Y206600D02*X443600Y207350D01*
X444350D01*
X445100Y206600D01*
Y204350D01*
Y206600D02*X445850Y207350D01*
X446600D01*
X447350Y206600D01*
Y204350D01*
X442100Y207350D02*X442850Y206600D01*
G54D73*X449150Y208850D02*Y208700D01*
G54D72*Y206600D02*Y204350D01*
X450650Y210350D02*Y205100D01*
X451400Y204350D01*
X453650D02*X455900D01*
X456650Y205100D01*
X455900Y205850D02*X456650Y205100D01*
X453650Y205850D02*X455900D01*
X452900Y206600D02*X453650Y205850D01*
X452900Y206600D02*X453650Y207350D01*
X455900D01*
X456650Y206600D01*
X452900Y205100D02*X453650Y204350D01*
X461150Y210350D02*Y204350D01*
Y206600D02*X461900Y207350D01*
X463400D01*
X464150Y206600D01*
Y204350D01*
G54D73*X465950Y208850D02*Y208700D01*
G54D72*Y206600D02*Y204350D01*
X469700Y207350D02*X470450Y206600D01*
X468200Y207350D02*X469700D01*
X467450Y206600D02*X468200Y207350D01*
X467450Y206600D02*Y205100D01*
X468200Y204350D01*
X469700D01*
X470450Y205100D01*
X467450Y202850D02*X468200Y202100D01*
X469700D01*
X470450Y202850D01*
Y207350D02*Y202850D01*
X472250Y210350D02*Y204350D01*
Y206600D02*X473000Y207350D01*
X474500D01*
X475250Y206600D01*
Y204350D01*
X0Y-9500D02*X3000D01*
X3750Y-8750D01*
Y-6950D02*Y-8750D01*
X3000Y-6200D02*X3750Y-6950D01*
X750Y-6200D02*X3000D01*
X750Y-3500D02*Y-9500D01*
X0Y-3500D02*X3000D01*
X3750Y-4250D01*
Y-5450D01*
X3000Y-6200D02*X3750Y-5450D01*
X5550Y-7250D02*Y-8750D01*
Y-7250D02*X6300Y-6500D01*
X7800D01*
X8550Y-7250D01*
Y-8750D01*
X7800Y-9500D02*X8550Y-8750D01*
X6300Y-9500D02*X7800D01*
X5550Y-8750D02*X6300Y-9500D01*
X12600Y-6500D02*X13350Y-7250D01*
X11100Y-6500D02*X12600D01*
X10350Y-7250D02*X11100Y-6500D01*
X10350Y-7250D02*Y-8750D01*
X11100Y-9500D01*
X13350Y-6500D02*Y-8750D01*
X14100Y-9500D01*
X11100D02*X12600D01*
X13350Y-8750D01*
X16650Y-7250D02*Y-9500D01*
Y-7250D02*X17400Y-6500D01*
X18900D01*
X15900D02*X16650Y-7250D01*
X23700Y-3500D02*Y-9500D01*
X22950D02*X23700Y-8750D01*
X21450Y-9500D02*X22950D01*
X20700Y-8750D02*X21450Y-9500D01*
X20700Y-7250D02*Y-8750D01*
Y-7250D02*X21450Y-6500D01*
X22950D01*
X23700Y-7250D01*
X28200D02*Y-8750D01*
Y-7250D02*X28950Y-6500D01*
X30450D01*
X31200Y-7250D01*
Y-8750D01*
X30450Y-9500D02*X31200Y-8750D01*
X28950Y-9500D02*X30450D01*
X28200Y-8750D02*X28950Y-9500D01*
X33000Y-6500D02*Y-8750D01*
X33750Y-9500D01*
X35250D01*
X36000Y-8750D01*
Y-6500D02*Y-8750D01*
X38550Y-3500D02*Y-8750D01*
X39300Y-9500D01*
X37800Y-5750D02*X39300D01*
X40800Y-3500D02*Y-8750D01*
X41550Y-9500D01*
G54D73*X43050Y-5000D02*Y-5150D01*
G54D72*Y-7250D02*Y-9500D01*
X45300Y-7250D02*Y-9500D01*
Y-7250D02*X46050Y-6500D01*
X46800D01*
X47550Y-7250D01*
Y-9500D01*
X44550Y-6500D02*X45300Y-7250D01*
X50100Y-9500D02*X52350D01*
X49350Y-8750D02*X50100Y-9500D01*
X49350Y-7250D02*Y-8750D01*
Y-7250D02*X50100Y-6500D01*
X51600D01*
X52350Y-7250D01*
X49350Y-8000D02*X52350D01*
Y-7250D02*Y-8000D01*
G54D73*X56850Y-5000D02*Y-5150D01*
G54D72*Y-7250D02*Y-9500D01*
X59100D02*X61350D01*
X62100Y-8750D01*
X61350Y-8000D02*X62100Y-8750D01*
X59100Y-8000D02*X61350D01*
X58350Y-7250D02*X59100Y-8000D01*
X58350Y-7250D02*X59100Y-6500D01*
X61350D01*
X62100Y-7250D01*
X58350Y-8750D02*X59100Y-9500D01*
X67350Y-3500D02*Y-8750D01*
X68100Y-9500D01*
X66600Y-5750D02*X68100D01*
X69600Y-3500D02*Y-9500D01*
Y-7250D02*X70350Y-6500D01*
X71850D01*
X72600Y-7250D01*
Y-9500D01*
X75150D02*X77400D01*
X74400Y-8750D02*X75150Y-9500D01*
X74400Y-7250D02*Y-8750D01*
Y-7250D02*X75150Y-6500D01*
X76650D01*
X77400Y-7250D01*
X74400Y-8000D02*X77400D01*
Y-7250D02*Y-8000D01*
X82650Y-6500D02*X84900D01*
X81900Y-7250D02*X82650Y-6500D01*
X81900Y-7250D02*Y-8750D01*
X82650Y-9500D01*
X84900D01*
X87450D02*X89700D01*
X86700Y-8750D02*X87450Y-9500D01*
X86700Y-7250D02*Y-8750D01*
Y-7250D02*X87450Y-6500D01*
X88950D01*
X89700Y-7250D01*
X86700Y-8000D02*X89700D01*
Y-7250D02*Y-8000D01*
X92250Y-7250D02*Y-9500D01*
Y-7250D02*X93000Y-6500D01*
X93750D01*
X94500Y-7250D01*
Y-9500D01*
X91500Y-6500D02*X92250Y-7250D01*
X97050Y-3500D02*Y-8750D01*
X97800Y-9500D01*
X96300Y-5750D02*X97800D01*
X100050Y-9500D02*X102300D01*
X99300Y-8750D02*X100050Y-9500D01*
X99300Y-7250D02*Y-8750D01*
Y-7250D02*X100050Y-6500D01*
X101550D01*
X102300Y-7250D01*
X99300Y-8000D02*X102300D01*
Y-7250D02*Y-8000D01*
X104850Y-7250D02*Y-9500D01*
Y-7250D02*X105600Y-6500D01*
X107100D01*
X104100D02*X104850Y-7250D01*
X108900Y-3500D02*Y-8750D01*
X109650Y-9500D01*
G54D73*X111150Y-5000D02*Y-5150D01*
G54D72*Y-7250D02*Y-9500D01*
X113400Y-7250D02*Y-9500D01*
Y-7250D02*X114150Y-6500D01*
X114900D01*
X115650Y-7250D01*
Y-9500D01*
X112650Y-6500D02*X113400Y-7250D01*
X118200Y-9500D02*X120450D01*
X117450Y-8750D02*X118200Y-9500D01*
X117450Y-7250D02*Y-8750D01*
Y-7250D02*X118200Y-6500D01*
X119700D01*
X120450Y-7250D01*
X117450Y-8000D02*X120450D01*
Y-7250D02*Y-8000D01*
X124950Y-7250D02*Y-8750D01*
Y-7250D02*X125700Y-6500D01*
X127200D01*
X127950Y-7250D01*
Y-8750D01*
X127200Y-9500D02*X127950Y-8750D01*
X125700Y-9500D02*X127200D01*
X124950Y-8750D02*X125700Y-9500D01*
X130500Y-4250D02*Y-9500D01*
Y-4250D02*X131250Y-3500D01*
X132000D01*
X129750Y-6500D02*X131250D01*
X136950Y-3500D02*Y-8750D01*
X137700Y-9500D01*
X136200Y-5750D02*X137700D01*
X139200Y-3500D02*Y-9500D01*
Y-7250D02*X139950Y-6500D01*
X141450D01*
X142200Y-7250D01*
Y-9500D01*
G54D73*X144000Y-5000D02*Y-5150D01*
G54D72*Y-7250D02*Y-9500D01*
X146250D02*X148500D01*
X149250Y-8750D01*
X148500Y-8000D02*X149250Y-8750D01*
X146250Y-8000D02*X148500D01*
X145500Y-7250D02*X146250Y-8000D01*
X145500Y-7250D02*X146250Y-6500D01*
X148500D01*
X149250Y-7250D01*
X145500Y-8750D02*X146250Y-9500D01*
X153750Y-8750D02*X154500Y-9500D01*
X153750Y-7550D02*Y-8750D01*
Y-7550D02*X154800Y-6500D01*
X155700D01*
X156750Y-7550D01*
Y-8750D01*
X156000Y-9500D02*X156750Y-8750D01*
X154500Y-9500D02*X156000D01*
X153750Y-5450D02*X154800Y-6500D01*
X153750Y-4250D02*Y-5450D01*
Y-4250D02*X154500Y-3500D01*
X156000D01*
X156750Y-4250D01*
Y-5450D01*
X155700Y-6500D02*X156750Y-5450D01*
X158550Y-9500D02*X159300D01*
X161100Y-8750D02*X161850Y-9500D01*
X161100Y-4250D02*Y-8750D01*
Y-4250D02*X161850Y-3500D01*
X163350D01*
X164100Y-4250D01*
Y-8750D01*
X163350Y-9500D02*X164100Y-8750D01*
X161850Y-9500D02*X163350D01*
X161100Y-8000D02*X164100Y-5000D01*
X165900Y-8750D02*X166650Y-9500D01*
X165900Y-4250D02*Y-8750D01*
Y-4250D02*X166650Y-3500D01*
X168150D01*
X168900Y-4250D01*
Y-8750D01*
X168150Y-9500D02*X168900Y-8750D01*
X166650Y-9500D02*X168150D01*
X165900Y-8000D02*X168900Y-5000D01*
X170700Y-8750D02*X171450Y-9500D01*
X170700Y-4250D02*Y-8750D01*
Y-4250D02*X171450Y-3500D01*
X172950D01*
X173700Y-4250D01*
Y-8750D01*
X172950Y-9500D02*X173700Y-8750D01*
X171450Y-9500D02*X172950D01*
X170700Y-8000D02*X173700Y-5000D01*
X175500Y-8750D02*X176250Y-9500D01*
X175500Y-4250D02*Y-8750D01*
Y-4250D02*X176250Y-3500D01*
X177750D01*
X178500Y-4250D01*
Y-8750D01*
X177750Y-9500D02*X178500Y-8750D01*
X176250Y-9500D02*X177750D01*
X175500Y-8000D02*X178500Y-5000D01*
X180300Y-8750D02*X181050Y-9500D01*
X180300Y-4250D02*Y-8750D01*
Y-4250D02*X181050Y-3500D01*
X182550D01*
X183300Y-4250D01*
Y-8750D01*
X182550Y-9500D02*X183300Y-8750D01*
X181050Y-9500D02*X182550D01*
X180300Y-8000D02*X183300Y-5000D01*
X185100Y-8750D02*X185850Y-9500D01*
X185100Y-4250D02*Y-8750D01*
Y-4250D02*X185850Y-3500D01*
X187350D01*
X188100Y-4250D01*
Y-8750D01*
X187350Y-9500D02*X188100Y-8750D01*
X185850Y-9500D02*X187350D01*
X185100Y-8000D02*X188100Y-5000D01*
X193350Y-7250D02*Y-9500D01*
Y-7250D02*X194100Y-6500D01*
X194850D01*
X195600Y-7250D01*
Y-9500D01*
Y-7250D02*X196350Y-6500D01*
X197100D01*
X197850Y-7250D01*
Y-9500D01*
X192600Y-6500D02*X193350Y-7250D01*
G54D73*X199650Y-5000D02*Y-5150D01*
G54D72*Y-7250D02*Y-9500D01*
X201150Y-3500D02*Y-8750D01*
X201900Y-9500D01*
X206850Y-7250D02*Y-9500D01*
Y-7250D02*X207600Y-6500D01*
X209100D01*
X206100D02*X206850Y-7250D01*
X211650Y-9500D02*X213900D01*
X210900Y-8750D02*X211650Y-9500D01*
X210900Y-7250D02*Y-8750D01*
Y-7250D02*X211650Y-6500D01*
X213150D01*
X213900Y-7250D01*
X210900Y-8000D02*X213900D01*
Y-7250D02*Y-8000D01*
X216450Y-6500D02*X218700D01*
X215700Y-7250D02*X216450Y-6500D01*
X215700Y-7250D02*Y-8750D01*
X216450Y-9500D01*
X218700D01*
X221250Y-3500D02*Y-8750D01*
X222000Y-9500D01*
X220500Y-5750D02*X222000D01*
X225750Y-6500D02*X226500Y-7250D01*
X224250Y-6500D02*X225750D01*
X223500Y-7250D02*X224250Y-6500D01*
X223500Y-7250D02*Y-8750D01*
X224250Y-9500D01*
X226500Y-6500D02*Y-8750D01*
X227250Y-9500D01*
X224250D02*X225750D01*
X226500Y-8750D01*
X229800Y-7250D02*Y-9500D01*
Y-7250D02*X230550Y-6500D01*
X231300D01*
X232050Y-7250D01*
Y-9500D01*
X229050Y-6500D02*X229800Y-7250D01*
X236100Y-6500D02*X236850Y-7250D01*
X234600Y-6500D02*X236100D01*
X233850Y-7250D02*X234600Y-6500D01*
X233850Y-7250D02*Y-8750D01*
X234600Y-9500D01*
X236100D01*
X236850Y-8750D01*
X233850Y-11000D02*X234600Y-11750D01*
X236100D01*
X236850Y-11000D01*
Y-6500D02*Y-11000D01*
X238650Y-3500D02*Y-8750D01*
X239400Y-9500D01*
X241650D02*X243900D01*
X240900Y-8750D02*X241650Y-9500D01*
X240900Y-7250D02*Y-8750D01*
Y-7250D02*X241650Y-6500D01*
X243150D01*
X243900Y-7250D01*
X240900Y-8000D02*X243900D01*
Y-7250D02*Y-8000D01*
X248400Y-6500D02*X251400D01*
X255900Y-8750D02*X256650Y-9500D01*
X255900Y-4250D02*Y-8750D01*
Y-4250D02*X256650Y-3500D01*
X258150D01*
X258900Y-4250D01*
Y-8750D01*
X258150Y-9500D02*X258900Y-8750D01*
X256650Y-9500D02*X258150D01*
X255900Y-8000D02*X258900Y-5000D01*
X260700Y-11000D02*X262200Y-9500D01*
X264000Y-8750D02*X264750Y-9500D01*
X264000Y-4250D02*Y-8750D01*
Y-4250D02*X264750Y-3500D01*
X266250D01*
X267000Y-4250D01*
Y-8750D01*
X266250Y-9500D02*X267000Y-8750D01*
X264750Y-9500D02*X266250D01*
X264000Y-8000D02*X267000Y-5000D01*
X272250Y-3500D02*Y-8750D01*
X273000Y-9500D01*
X271500Y-5750D02*X273000D01*
X274500Y-7250D02*Y-8750D01*
Y-7250D02*X275250Y-6500D01*
X276750D01*
X277500Y-7250D01*
Y-8750D01*
X276750Y-9500D02*X277500Y-8750D01*
X275250Y-9500D02*X276750D01*
X274500Y-8750D02*X275250Y-9500D01*
X282000Y-4250D02*X282750Y-3500D01*
X284250D01*
X285000Y-4250D01*
X284250Y-9500D02*X285000Y-8750D01*
X282750Y-9500D02*X284250D01*
X282000Y-8750D02*X282750Y-9500D01*
Y-6200D02*X284250D01*
X285000Y-4250D02*Y-5450D01*
Y-6950D02*Y-8750D01*
Y-6950D02*X284250Y-6200D01*
X285000Y-5450D02*X284250Y-6200D01*
X286800Y-3500D02*X289800D01*
X286800D02*Y-6500D01*
X287550Y-5750D01*
X289050D01*
X289800Y-6500D01*
Y-8750D01*
X289050Y-9500D02*X289800Y-8750D01*
X287550Y-9500D02*X289050D01*
X286800Y-8750D02*X287550Y-9500D01*
X291600Y-7250D02*X294600Y-3500D01*
X291600Y-7250D02*X295350D01*
X294600Y-3500D02*Y-9500D01*
X297150Y-4250D02*X297900Y-3500D01*
X299400D01*
X300150Y-4250D01*
X299400Y-9500D02*X300150Y-8750D01*
X297900Y-9500D02*X299400D01*
X297150Y-8750D02*X297900Y-9500D01*
Y-6200D02*X299400D01*
X300150Y-4250D02*Y-5450D01*
Y-6950D02*Y-8750D01*
Y-6950D02*X299400Y-6200D01*
X300150Y-5450D02*X299400Y-6200D01*
X301950Y-9500D02*X302700D01*
X304500Y-4250D02*X305250Y-3500D01*
X306750D01*
X307500Y-4250D01*
X306750Y-9500D02*X307500Y-8750D01*
X305250Y-9500D02*X306750D01*
X304500Y-8750D02*X305250Y-9500D01*
Y-6200D02*X306750D01*
X307500Y-4250D02*Y-5450D01*
Y-6950D02*Y-8750D01*
Y-6950D02*X306750Y-6200D01*
X307500Y-5450D02*X306750Y-6200D01*
X309300Y-8750D02*X310050Y-9500D01*
X309300Y-4250D02*Y-8750D01*
Y-4250D02*X310050Y-3500D01*
X311550D01*
X312300Y-4250D01*
Y-8750D01*
X311550Y-9500D02*X312300Y-8750D01*
X310050Y-9500D02*X311550D01*
X309300Y-8000D02*X312300Y-5000D01*
X314850Y-9500D02*X317850Y-3500D01*
X314100D02*X317850D01*
X319650Y-8750D02*X320400Y-9500D01*
X319650Y-4250D02*Y-8750D01*
Y-4250D02*X320400Y-3500D01*
X321900D01*
X322650Y-4250D01*
Y-8750D01*
X321900Y-9500D02*X322650Y-8750D01*
X320400Y-9500D02*X321900D01*
X319650Y-8000D02*X322650Y-5000D01*
X324450Y-8750D02*X325200Y-9500D01*
X324450Y-7550D02*Y-8750D01*
Y-7550D02*X325500Y-6500D01*
X326400D01*
X327450Y-7550D01*
Y-8750D01*
X326700Y-9500D02*X327450Y-8750D01*
X325200Y-9500D02*X326700D01*
X324450Y-5450D02*X325500Y-6500D01*
X324450Y-4250D02*Y-5450D01*
Y-4250D02*X325200Y-3500D01*
X326700D01*
X327450Y-4250D01*
Y-5450D01*
X326400Y-6500D02*X327450Y-5450D01*
X330000Y-9500D02*X333000Y-3500D01*
X329250D02*X333000D01*
X334800Y-11000D02*X336300Y-9500D01*
X338100Y-4700D02*X339300Y-3500D01*
Y-9500D01*
X338100D02*X340350D01*
X342900D02*X345150Y-6500D01*
Y-4250D02*Y-6500D01*
X344400Y-3500D02*X345150Y-4250D01*
X342900Y-3500D02*X344400D01*
X342150Y-4250D02*X342900Y-3500D01*
X342150Y-4250D02*Y-5750D01*
X342900Y-6500D01*
X345150D01*
X349200Y-3500D02*X349950Y-4250D01*
X347700Y-3500D02*X349200D01*
X346950Y-4250D02*X347700Y-3500D01*
X346950Y-4250D02*Y-8750D01*
X347700Y-9500D01*
X349200Y-6200D02*X349950Y-6950D01*
X346950Y-6200D02*X349200D01*
X347700Y-9500D02*X349200D01*
X349950Y-8750D01*
Y-6950D02*Y-8750D01*
X351750D02*X352500Y-9500D01*
X351750Y-7550D02*Y-8750D01*
Y-7550D02*X352800Y-6500D01*
X353700D01*
X354750Y-7550D01*
Y-8750D01*
X354000Y-9500D02*X354750Y-8750D01*
X352500Y-9500D02*X354000D01*
X351750Y-5450D02*X352800Y-6500D01*
X351750Y-4250D02*Y-5450D01*
Y-4250D02*X352500Y-3500D01*
X354000D01*
X354750Y-4250D01*
Y-5450D01*
X353700Y-6500D02*X354750Y-5450D01*
X356550Y-9500D02*X357300D01*
X359100Y-3500D02*X362100D01*
X359100D02*Y-6500D01*
X359850Y-5750D01*
X361350D01*
X362100Y-6500D01*
Y-8750D01*
X361350Y-9500D02*X362100Y-8750D01*
X359850Y-9500D02*X361350D01*
X359100Y-8750D02*X359850Y-9500D01*
X363900Y-8750D02*X364650Y-9500D01*
X363900Y-4250D02*Y-8750D01*
Y-4250D02*X364650Y-3500D01*
X366150D01*
X366900Y-4250D01*
Y-8750D01*
X366150Y-9500D02*X366900Y-8750D01*
X364650Y-9500D02*X366150D01*
X363900Y-8000D02*X366900Y-5000D01*
X368700Y-4250D02*X369450Y-3500D01*
X370950D01*
X371700Y-4250D01*
X370950Y-9500D02*X371700Y-8750D01*
X369450Y-9500D02*X370950D01*
X368700Y-8750D02*X369450Y-9500D01*
Y-6200D02*X370950D01*
X371700Y-4250D02*Y-5450D01*
Y-6950D02*Y-8750D01*
Y-6950D02*X370950Y-6200D01*
X371700Y-5450D02*X370950Y-6200D01*
X374250Y-9500D02*X376500Y-6500D01*
Y-4250D02*Y-6500D01*
X375750Y-3500D02*X376500Y-4250D01*
X374250Y-3500D02*X375750D01*
X373500Y-4250D02*X374250Y-3500D01*
X373500Y-4250D02*Y-5750D01*
X374250Y-6500D01*
X376500D01*
X378300Y-4250D02*X379050Y-3500D01*
X380550D01*
X381300Y-4250D01*
X380550Y-9500D02*X381300Y-8750D01*
X379050Y-9500D02*X380550D01*
X378300Y-8750D02*X379050Y-9500D01*
Y-6200D02*X380550D01*
X381300Y-4250D02*Y-5450D01*
Y-6950D02*Y-8750D01*
Y-6950D02*X380550Y-6200D01*
X381300Y-5450D02*X380550Y-6200D01*
X383850Y-9500D02*X386850Y-3500D01*
X383100D02*X386850D01*
X392100Y-7250D02*Y-9500D01*
Y-7250D02*X392850Y-6500D01*
X393600D01*
X394350Y-7250D01*
Y-9500D01*
Y-7250D02*X395100Y-6500D01*
X395850D01*
X396600Y-7250D01*
Y-9500D01*
X391350Y-6500D02*X392100Y-7250D01*
G54D73*X398400Y-5000D02*Y-5150D01*
G54D72*Y-7250D02*Y-9500D01*
X399900Y-3500D02*Y-8750D01*
X400650Y-9500D01*
X402900D02*X405150D01*
X405900Y-8750D01*
X405150Y-8000D02*X405900Y-8750D01*
X402900Y-8000D02*X405150D01*
X402150Y-7250D02*X402900Y-8000D01*
X402150Y-7250D02*X402900Y-6500D01*
X405150D01*
X405900Y-7250D01*
X402150Y-8750D02*X402900Y-9500D01*
X200750Y225350D02*Y219350D01*
X202700Y225350D02*X203750Y224300D01*
Y220400D01*
X202700Y219350D02*X203750Y220400D01*
X200000Y219350D02*X202700D01*
X200000Y225350D02*X202700D01*
X207800Y222350D02*X208550Y221600D01*
X206300Y222350D02*X207800D01*
X205550Y221600D02*X206300Y222350D01*
X205550Y221600D02*Y220100D01*
X206300Y219350D01*
X208550Y222350D02*Y220100D01*
X209300Y219350D01*
X206300D02*X207800D01*
X208550Y220100D01*
X211850Y225350D02*Y220100D01*
X212600Y219350D01*
X211100Y223100D02*X212600D01*
X214850Y219350D02*X217100D01*
X214100Y220100D02*X214850Y219350D01*
X214100Y221600D02*Y220100D01*
Y221600D02*X214850Y222350D01*
X216350D01*
X217100Y221600D01*
X214100Y220850D02*X217100D01*
Y221600D02*Y220850D01*
X218900Y223100D02*X219650D01*
X218900Y221600D02*X219650D01*
X227150Y225350D02*X227900Y224600D01*
X224900Y225350D02*X227150D01*
X224150Y224600D02*X224900Y225350D01*
X224150Y224600D02*Y223100D01*
X224900Y222350D01*
X227150D01*
X227900Y221600D01*
Y220100D01*
X227150Y219350D02*X227900Y220100D01*
X224900Y219350D02*X227150D01*
X224150Y220100D02*X224900Y219350D01*
X229700Y222350D02*Y220100D01*
X230450Y219350D01*
X231950D01*
X232700Y220100D01*
Y222350D02*Y220100D01*
X235250Y221600D02*Y219350D01*
Y221600D02*X236000Y222350D01*
X236750D01*
X237500Y221600D01*
Y219350D01*
X234500Y222350D02*X235250Y221600D01*
X245000Y225350D02*X245750Y224600D01*
X242750Y225350D02*X245000D01*
X242000Y224600D02*X242750Y225350D01*
X242000Y224600D02*Y223100D01*
X242750Y222350D01*
X245000D01*
X245750Y221600D01*
Y220100D01*
X245000Y219350D02*X245750Y220100D01*
X242750Y219350D02*X245000D01*
X242000Y220100D02*X242750Y219350D01*
X248300D02*X250550D01*
X247550Y220100D02*X248300Y219350D01*
X247550Y221600D02*Y220100D01*
Y221600D02*X248300Y222350D01*
X249800D01*
X250550Y221600D01*
X247550Y220850D02*X250550D01*
Y221600D02*Y220850D01*
X253100Y221600D02*Y217100D01*
X252350Y222350D02*X253100Y221600D01*
X253850Y222350D01*
X255350D01*
X256100Y221600D01*
Y220100D01*
X255350Y219350D02*X256100Y220100D01*
X253850Y219350D02*X255350D01*
X253100Y220100D02*X253850Y219350D01*
X260600Y224150D02*X261800Y225350D01*
Y219350D01*
X260600D02*X262850D01*
X266900Y225350D02*X267650Y224600D01*
X265400Y225350D02*X266900D01*
X264650Y224600D02*X265400Y225350D01*
X264650Y224600D02*Y220100D01*
X265400Y219350D01*
X266900Y222650D02*X267650Y221900D01*
X264650Y222650D02*X266900D01*
X265400Y219350D02*X266900D01*
X267650Y220100D01*
Y221900D02*Y220100D01*
X272150D02*X272900Y219350D01*
X272150Y224600D02*Y220100D01*
Y224600D02*X272900Y225350D01*
X274400D01*
X275150Y224600D01*
Y220100D01*
X274400Y219350D02*X275150Y220100D01*
X272900Y219350D02*X274400D01*
X272150Y220850D02*X275150Y223850D01*
X276950Y220100D02*X277700Y219350D01*
X276950Y221300D02*Y220100D01*
Y221300D02*X278000Y222350D01*
X278900D01*
X279950Y221300D01*
Y220100D01*
X279200Y219350D02*X279950Y220100D01*
X277700Y219350D02*X279200D01*
X276950Y223400D02*X278000Y222350D01*
X276950Y224600D02*Y223400D01*
Y224600D02*X277700Y225350D01*
X279200D01*
X279950Y224600D01*
Y223400D01*
X278900Y222350D02*X279950Y223400D01*
X281750Y223100D02*X282500D01*
X281750Y221600D02*X282500D01*
X284300Y224150D02*X285500Y225350D01*
Y219350D01*
X284300D02*X286550D01*
X288350Y224600D02*X289100Y225350D01*
X290600D01*
X291350Y224600D01*
X290600Y219350D02*X291350Y220100D01*
X289100Y219350D02*X290600D01*
X288350Y220100D02*X289100Y219350D01*
Y222650D02*X290600D01*
X291350Y224600D02*Y223400D01*
Y221900D02*Y220100D01*
Y221900D02*X290600Y222650D01*
X291350Y223400D02*X290600Y222650D01*
X293150Y223100D02*X293900D01*
X293150Y221600D02*X293900D01*
X295700Y224600D02*X296450Y225350D01*
X297950D01*
X298700Y224600D01*
X297950Y219350D02*X298700Y220100D01*
X296450Y219350D02*X297950D01*
X295700Y220100D02*X296450Y219350D01*
Y222650D02*X297950D01*
X298700Y224600D02*Y223400D01*
Y221900D02*Y220100D01*
Y221900D02*X297950Y222650D01*
X298700Y223400D02*X297950Y222650D01*
X301250Y219350D02*X303500Y222350D01*
Y224600D02*Y222350D01*
X302750Y225350D02*X303500Y224600D01*
X301250Y225350D02*X302750D01*
X300500Y224600D02*X301250Y225350D01*
X300500Y224600D02*Y223100D01*
X301250Y222350D01*
X303500D01*
X308000Y224600D02*X308750Y225350D01*
X311000D01*
X311750Y224600D01*
Y223100D01*
X308000Y219350D02*X311750Y223100D01*
X308000Y219350D02*X311750D01*
X313550Y220100D02*X314300Y219350D01*
X313550Y224600D02*Y220100D01*
Y224600D02*X314300Y225350D01*
X315800D01*
X316550Y224600D01*
Y220100D01*
X315800Y219350D02*X316550Y220100D01*
X314300Y219350D02*X315800D01*
X313550Y220850D02*X316550Y223850D01*
X318350Y224150D02*X319550Y225350D01*
Y219350D01*
X318350D02*X320600D01*
X322400Y220100D02*X323150Y219350D01*
X322400Y221300D02*Y220100D01*
Y221300D02*X323450Y222350D01*
X324350D01*
X325400Y221300D01*
Y220100D01*
X324650Y219350D02*X325400Y220100D01*
X323150Y219350D02*X324650D01*
X322400Y223400D02*X323450Y222350D01*
X322400Y224600D02*Y223400D01*
Y224600D02*X323150Y225350D01*
X324650D01*
X325400Y224600D01*
Y223400D01*
X324350Y222350D02*X325400Y223400D01*
X329900Y225350D02*Y220100D01*
X330650Y219350D01*
X332150D01*
X332900Y220100D01*
Y225350D02*Y220100D01*
X334700Y225350D02*X337700D01*
X336200D02*Y219350D01*
X340550D02*X342500D01*
X339500Y220400D02*X340550Y219350D01*
X339500Y224300D02*Y220400D01*
Y224300D02*X340550Y225350D01*
X342500D01*
X200000Y238850D02*Y234350D01*
Y238850D02*X201050Y240350D01*
X202700D01*
X203750Y238850D01*
Y234350D01*
X200000Y237350D02*X203750D01*
X205550D02*Y235100D01*
X206300Y234350D01*
X207800D01*
X208550Y235100D01*
Y237350D02*Y235100D01*
X211100Y240350D02*Y235100D01*
X211850Y234350D01*
X210350Y238100D02*X211850D01*
X213350Y240350D02*Y234350D01*
Y236600D02*X214100Y237350D01*
X215600D01*
X216350Y236600D01*
Y234350D01*
X218150Y236600D02*Y235100D01*
Y236600D02*X218900Y237350D01*
X220400D01*
X221150Y236600D01*
Y235100D01*
X220400Y234350D02*X221150Y235100D01*
X218900Y234350D02*X220400D01*
X218150Y235100D02*X218900Y234350D01*
X223700Y236600D02*Y234350D01*
Y236600D02*X224450Y237350D01*
X225950D01*
X222950D02*X223700Y236600D01*
X227750Y238100D02*X228500D01*
X227750Y236600D02*X228500D01*
X233000Y240350D02*Y234350D01*
Y240350D02*X235250Y237350D01*
X237500Y240350D01*
Y234350D01*
X239300Y237350D02*Y235100D01*
X240050Y234350D01*
X242300Y237350D02*Y232850D01*
X241550Y232100D02*X242300Y232850D01*
X240050Y232100D02*X241550D01*
X239300Y232850D02*X240050Y232100D01*
Y234350D02*X241550D01*
X242300Y235100D01*
X244850Y240350D02*Y235100D01*
X245600Y234350D01*
X244100Y238100D02*X245600D01*
X247850Y237350D02*X250100D01*
X247100Y236600D02*X247850Y237350D01*
X247100Y236600D02*Y235100D01*
X247850Y234350D01*
X250100D01*
X251900Y240350D02*Y234350D01*
Y236600D02*X252650Y237350D01*
X254150D01*
X254900Y236600D01*
Y234350D01*
X257450D02*X259700D01*
X256700Y235100D02*X257450Y234350D01*
X256700Y236600D02*Y235100D01*
Y236600D02*X257450Y237350D01*
X258950D01*
X259700Y236600D01*
X256700Y235850D02*X259700D01*
Y236600D02*Y235850D01*
X261500Y240350D02*Y235100D01*
X262250Y234350D01*
X266450Y240350D02*Y234350D01*
X270200Y240350D02*Y234350D01*
X266450Y237350D02*X270200D01*
X274250D02*X275000Y236600D01*
X272750Y237350D02*X274250D01*
X272000Y236600D02*X272750Y237350D01*
X272000Y236600D02*Y235100D01*
X272750Y234350D01*
X275000Y237350D02*Y235100D01*
X275750Y234350D01*
X272750D02*X274250D01*
X275000Y235100D01*
X278300Y236600D02*Y234350D01*
Y236600D02*X279050Y237350D01*
X279800D01*
X280550Y236600D01*
Y234350D01*
Y236600D02*X281300Y237350D01*
X282050D01*
X282800Y236600D01*
Y234350D01*
X277550Y237350D02*X278300Y236600D01*
X285350D02*Y234350D01*
Y236600D02*X286100Y237350D01*
X286850D01*
X287600Y236600D01*
Y234350D01*
Y236600D02*X288350Y237350D01*
X289100D01*
X289850Y236600D01*
Y234350D01*
X284600Y237350D02*X285350Y236600D01*
X291650D02*Y235100D01*
Y236600D02*X292400Y237350D01*
X293900D01*
X294650Y236600D01*
Y235100D01*
X293900Y234350D02*X294650Y235100D01*
X292400Y234350D02*X293900D01*
X291650Y235100D02*X292400Y234350D01*
X297200Y236600D02*Y234350D01*
Y236600D02*X297950Y237350D01*
X298700D01*
X299450Y236600D01*
Y234350D01*
X296450Y237350D02*X297200Y236600D01*
X304250Y240350D02*Y234350D01*
X303500D02*X304250Y235100D01*
X302000Y234350D02*X303500D01*
X301250Y235100D02*X302000Y234350D01*
X301250Y236600D02*Y235100D01*
Y236600D02*X302000Y237350D01*
X303500D01*
X304250Y236600D01*
X200000Y255350D02*X203000D01*
X201500D02*Y249350D01*
G54D73*X204800Y253850D02*Y253700D01*
G54D72*Y251600D02*Y249350D01*
X207050Y255350D02*Y250100D01*
X207800Y249350D01*
X206300Y253100D02*X207800D01*
X209300Y255350D02*Y250100D01*
X210050Y249350D01*
X212300D02*X214550D01*
X211550Y250100D02*X212300Y249350D01*
X211550Y251600D02*Y250100D01*
Y251600D02*X212300Y252350D01*
X213800D01*
X214550Y251600D01*
X211550Y250850D02*X214550D01*
Y251600D02*Y250850D01*
X216350Y253100D02*X217100D01*
X216350Y251600D02*X217100D01*
X221600Y250100D02*X222350Y249350D01*
X221600Y254600D02*X222350Y255350D01*
X221600Y254600D02*Y250100D01*
X224150Y252350D02*Y250100D01*
X224900Y249350D01*
X226400D01*
X227150Y250100D01*
Y252350D02*Y250100D01*
X229700Y251600D02*Y249350D01*
Y251600D02*X230450Y252350D01*
X231200D01*
X231950Y251600D01*
Y249350D01*
X228950Y252350D02*X229700Y251600D01*
X233750Y255350D02*Y249350D01*
Y251600D02*X236000Y249350D01*
X233750Y251600D02*X235250Y253100D01*
X238550Y251600D02*Y249350D01*
Y251600D02*X239300Y252350D01*
X240050D01*
X240800Y251600D01*
Y249350D01*
X237800Y252350D02*X238550Y251600D01*
X242600D02*Y250100D01*
Y251600D02*X243350Y252350D01*
X244850D01*
X245600Y251600D01*
Y250100D01*
X244850Y249350D02*X245600Y250100D01*
X243350Y249350D02*X244850D01*
X242600Y250100D02*X243350Y249350D01*
X247400Y252350D02*Y250100D01*
X248150Y249350D01*
X248900D01*
X249650Y250100D01*
Y252350D02*Y250100D01*
X250400Y249350D01*
X251150D01*
X251900Y250100D01*
Y252350D02*Y250100D01*
X254450Y251600D02*Y249350D01*
Y251600D02*X255200Y252350D01*
X255950D01*
X256700Y251600D01*
Y249350D01*
X253700Y252350D02*X254450Y251600D01*
X258500Y255350D02*X259250Y254600D01*
Y250100D01*
X258500Y249350D02*X259250Y250100D01*
X263750Y252350D02*X266750D01*
X271250Y255350D02*Y249350D01*
Y255350D02*X274250D01*
X271250Y252650D02*X273500D01*
X278300Y252350D02*X279050Y251600D01*
X276800Y252350D02*X278300D01*
X276050Y251600D02*X276800Y252350D01*
X276050Y251600D02*Y250100D01*
X276800Y249350D01*
X279050Y252350D02*Y250100D01*
X279800Y249350D01*
X276800D02*X278300D01*
X279050Y250100D01*
X281600Y255350D02*Y249350D01*
Y250100D02*X282350Y249350D01*
X283850D01*
X284600Y250100D01*
Y251600D02*Y250100D01*
X283850Y252350D02*X284600Y251600D01*
X282350Y252350D02*X283850D01*
X281600Y251600D02*X282350Y252350D01*
X287150Y251600D02*Y249350D01*
Y251600D02*X287900Y252350D01*
X289400D01*
X286400D02*X287150Y251600D01*
G54D73*X291200Y253850D02*Y253700D01*
G54D72*Y251600D02*Y249350D01*
X293450Y252350D02*X295700D01*
X292700Y251600D02*X293450Y252350D01*
X292700Y251600D02*Y250100D01*
X293450Y249350D01*
X295700D01*
X299750Y252350D02*X300500Y251600D01*
X298250Y252350D02*X299750D01*
X297500Y251600D02*X298250Y252350D01*
X297500Y251600D02*Y250100D01*
X298250Y249350D01*
X300500Y252350D02*Y250100D01*
X301250Y249350D01*
X298250D02*X299750D01*
X300500Y250100D01*
X303800Y255350D02*Y250100D01*
X304550Y249350D01*
X303050Y253100D02*X304550D01*
G54D73*X306050Y253850D02*Y253700D01*
G54D72*Y251600D02*Y249350D01*
X307550Y251600D02*Y250100D01*
Y251600D02*X308300Y252350D01*
X309800D01*
X310550Y251600D01*
Y250100D01*
X309800Y249350D02*X310550Y250100D01*
X308300Y249350D02*X309800D01*
X307550Y250100D02*X308300Y249350D01*
X313100Y251600D02*Y249350D01*
Y251600D02*X313850Y252350D01*
X314600D01*
X315350Y251600D01*
Y249350D01*
X312350Y252350D02*X313100Y251600D01*
X320600Y255350D02*Y249350D01*
X322550Y255350D02*X323600Y254300D01*
Y250400D01*
X322550Y249350D02*X323600Y250400D01*
X319850Y249350D02*X322550D01*
X319850Y255350D02*X322550D01*
X326150Y251600D02*Y249350D01*
Y251600D02*X326900Y252350D01*
X328400D01*
X325400D02*X326150Y251600D01*
X332450Y252350D02*X333200Y251600D01*
X330950Y252350D02*X332450D01*
X330200Y251600D02*X330950Y252350D01*
X330200Y251600D02*Y250100D01*
X330950Y249350D01*
X333200Y252350D02*Y250100D01*
X333950Y249350D01*
X330950D02*X332450D01*
X333200Y250100D01*
X335750Y252350D02*Y250100D01*
X336500Y249350D01*
X337250D01*
X338000Y250100D01*
Y252350D02*Y250100D01*
X338750Y249350D01*
X339500D01*
X340250Y250100D01*
Y252350D02*Y250100D01*
G54D73*X342050Y253850D02*Y253700D01*
G54D72*Y251600D02*Y249350D01*
X344300Y251600D02*Y249350D01*
Y251600D02*X345050Y252350D01*
X345800D01*
X346550Y251600D01*
Y249350D01*
X343550Y252350D02*X344300Y251600D01*
X350600Y252350D02*X351350Y251600D01*
X349100Y252350D02*X350600D01*
X348350Y251600D02*X349100Y252350D01*
X348350Y251600D02*Y250100D01*
X349100Y249350D01*
X350600D01*
X351350Y250100D01*
X348350Y247850D02*X349100Y247100D01*
X350600D01*
X351350Y247850D01*
Y252350D02*Y247850D01*
M02*
