G04 start of page 10 for group -3984 idx -3984 *
G04 Title: (unknown), fab *
G04 Creator: pcb 4.1.2 *
G04 CreationDate: Sat Sep 15 12:59:34 2018 UTC *
G04 For: mytch *
G04 Format: Gerber/RS-274X *
G04 PCB-Dimensions (mil): 6000.00 5000.00 *
G04 PCB-Coordinate-Origin: lower left *
%MOIN*%
%FSLAX25Y25*%
%LNFAB*%
%ADD68C,0.0100*%
%ADD67C,0.0075*%
%ADD66C,0.0060*%
%ADD65C,0.0080*%
G54D65*X449206Y216500D02*Y210100D01*
X446006Y213300D02*X452406D01*
X447606Y214900D02*X450806D01*
X447606D02*Y211700D01*
X450806D01*
Y214900D02*Y211700D01*
X449206Y293272D02*Y286872D01*
X446006Y290072D02*X452406D01*
X447606Y291672D02*X450806D01*
X447606D02*Y288472D01*
X450806D01*
Y291672D02*Y288472D01*
X449206Y371028D02*Y364628D01*
X446006Y367828D02*X452406D01*
X447606Y369428D02*X450806D01*
X447606D02*Y366228D01*
X450806D01*
Y369428D02*Y366228D01*
X449206Y448784D02*Y442384D01*
X446006Y445584D02*X452406D01*
X447606Y447184D02*X450806D01*
X447606D02*Y443984D01*
X450806D01*
Y447184D02*Y443984D01*
X15000Y514450D02*Y508050D01*
X11800Y511250D02*X18200D01*
X13400Y512850D02*X16600D01*
X13400D02*Y509650D01*
X16600D01*
Y512850D02*Y509650D01*
G54D66*X140000Y513500D02*Y507500D01*
Y513500D02*X143750Y507500D01*
Y513500D02*Y507500D01*
X145550Y512750D02*Y508250D01*
Y512750D02*X146300Y513500D01*
X147800D01*
X148550Y512750D01*
Y508250D01*
X147800Y507500D02*X148550Y508250D01*
X146300Y507500D02*X147800D01*
X145550Y508250D02*X146300Y507500D01*
X98000Y509750D02*X101000Y513500D01*
X98000Y509750D02*X101750D01*
X101000Y513500D02*Y507500D01*
X45000Y508250D02*X45750Y507500D01*
X45000Y512750D02*Y508250D01*
Y512750D02*X45750Y513500D01*
X47250D01*
X48000Y512750D01*
Y508250D01*
X47250Y507500D02*X48000Y508250D01*
X45750Y507500D02*X47250D01*
X45000Y509000D02*X48000Y512000D01*
X49800Y507500D02*X50550D01*
X52350Y512300D02*X53550Y513500D01*
Y507500D01*
X52350D02*X54600D01*
X56400Y513500D02*X59400D01*
X56400D02*Y510500D01*
X57150Y511250D01*
X58650D01*
X59400Y510500D01*
Y508250D01*
X58650Y507500D02*X59400Y508250D01*
X57150Y507500D02*X58650D01*
X56400Y508250D02*X57150Y507500D01*
X61950D02*X64950Y513500D01*
X61200D02*X64950D01*
X449206Y233300D02*Y230100D01*
Y233300D02*X451979Y234900D01*
X449206Y233300D02*X446432Y234900D01*
X447606Y233300D02*G75*G03X450806Y233300I1600J0D01*G01*
G75*G03X447606Y233300I-1600J0D01*G01*
X449206Y193300D02*Y190100D01*
Y193300D02*X451979Y194900D01*
X449206Y193300D02*X446432Y194900D01*
X447606Y193300D02*G75*G03X450806Y193300I1600J0D01*G01*
G75*G03X447606Y193300I-1600J0D01*G01*
X449206Y310072D02*Y306872D01*
Y310072D02*X451979Y311672D01*
X449206Y310072D02*X446432Y311672D01*
X447606Y310072D02*G75*G03X450806Y310072I1600J0D01*G01*
G75*G03X447606Y310072I-1600J0D01*G01*
X449206Y270072D02*Y266872D01*
Y270072D02*X451979Y271672D01*
X449206Y270072D02*X446432Y271672D01*
X447606Y270072D02*G75*G03X450806Y270072I1600J0D01*G01*
G75*G03X447606Y270072I-1600J0D01*G01*
X449206Y387828D02*Y384628D01*
Y387828D02*X451979Y389428D01*
X449206Y387828D02*X446432Y389428D01*
X447606Y387828D02*G75*G03X450806Y387828I1600J0D01*G01*
G75*G03X447606Y387828I-1600J0D01*G01*
X449206Y347828D02*Y344628D01*
Y347828D02*X451979Y349428D01*
X449206Y347828D02*X446432Y349428D01*
X447606Y347828D02*G75*G03X450806Y347828I1600J0D01*G01*
G75*G03X447606Y347828I-1600J0D01*G01*
X449206Y465584D02*Y462384D01*
Y465584D02*X451979Y467184D01*
X449206Y465584D02*X446432Y467184D01*
X447606Y465584D02*G75*G03X450806Y465584I1600J0D01*G01*
G75*G03X447606Y465584I-1600J0D01*G01*
X449206Y425584D02*Y422384D01*
Y425584D02*X451979Y427184D01*
X449206Y425584D02*X446432Y427184D01*
X447606Y425584D02*G75*G03X450806Y425584I1600J0D01*G01*
G75*G03X447606Y425584I-1600J0D01*G01*
X15000Y526250D02*Y523050D01*
Y526250D02*X17773Y527850D01*
X15000Y526250D02*X12227Y527850D01*
X13400Y526250D02*G75*G03X16600Y526250I1600J0D01*G01*
G75*G03X13400Y526250I-1600J0D01*G01*
X140000Y528500D02*Y522500D01*
Y528500D02*X143750Y522500D01*
Y528500D02*Y522500D01*
X145550Y527750D02*Y523250D01*
Y527750D02*X146300Y528500D01*
X147800D01*
X148550Y527750D01*
Y523250D01*
X147800Y522500D02*X148550Y523250D01*
X146300Y522500D02*X147800D01*
X145550Y523250D02*X146300Y522500D01*
X98000Y523250D02*X98750Y522500D01*
X98000Y524450D02*Y523250D01*
Y524450D02*X99050Y525500D01*
X99950D01*
X101000Y524450D01*
Y523250D01*
X100250Y522500D02*X101000Y523250D01*
X98750Y522500D02*X100250D01*
X98000Y526550D02*X99050Y525500D01*
X98000Y527750D02*Y526550D01*
Y527750D02*X98750Y528500D01*
X100250D01*
X101000Y527750D01*
Y526550D01*
X99950Y525500D02*X101000Y526550D01*
X45000Y523250D02*X45750Y522500D01*
X45000Y527750D02*Y523250D01*
Y527750D02*X45750Y528500D01*
X47250D01*
X48000Y527750D01*
Y523250D01*
X47250Y522500D02*X48000Y523250D01*
X45750Y522500D02*X47250D01*
X45000Y524000D02*X48000Y527000D01*
X49800Y522500D02*X50550D01*
X52350Y523250D02*X53100Y522500D01*
X52350Y527750D02*Y523250D01*
Y527750D02*X53100Y528500D01*
X54600D01*
X55350Y527750D01*
Y523250D01*
X54600Y522500D02*X55350Y523250D01*
X53100Y522500D02*X54600D01*
X52350Y524000D02*X55350Y527000D01*
X59400Y528500D02*X60150Y527750D01*
X57900Y528500D02*X59400D01*
X57150Y527750D02*X57900Y528500D01*
X57150Y527750D02*Y523250D01*
X57900Y522500D01*
X59400Y525800D02*X60150Y525050D01*
X57150Y525800D02*X59400D01*
X57900Y522500D02*X59400D01*
X60150Y523250D01*
Y525050D02*Y523250D01*
X62700Y522500D02*X65700Y528500D01*
X61950D02*X65700D01*
X437606Y229900D02*X440806D01*
X437606D02*Y226700D01*
X440806D01*
Y229900D02*Y226700D01*
X427606Y204900D02*X430806D01*
X427606D02*Y201700D01*
X430806D01*
Y204900D02*Y201700D01*
X437606Y306672D02*X440806D01*
X437606D02*Y303472D01*
X440806D01*
Y306672D02*Y303472D01*
X427606Y281672D02*X430806D01*
X427606D02*Y278472D01*
X430806D01*
Y281672D02*Y278472D01*
X437606Y384428D02*X440806D01*
X437606D02*Y381228D01*
X440806D01*
Y384428D02*Y381228D01*
X427606Y359428D02*X430806D01*
X427606D02*Y356228D01*
X430806D01*
Y359428D02*Y356228D01*
X437606Y462184D02*X440806D01*
X437606D02*Y458984D01*
X440806D01*
Y462184D02*Y458984D01*
X427606Y437184D02*X430806D01*
X427606D02*Y433984D01*
X430806D01*
Y437184D02*Y433984D01*
X13400Y542850D02*X16600D01*
X13400D02*Y539650D01*
X16600D01*
Y542850D02*Y539650D01*
X135000Y543500D02*X136500Y540500D01*
X138000Y543500D01*
X136500Y540500D02*Y537500D01*
X139800Y540800D02*X142050D01*
X139800Y537500D02*X142800D01*
X139800Y543500D02*Y537500D01*
Y543500D02*X142800D01*
X147600D02*X148350Y542750D01*
X145350Y543500D02*X147600D01*
X144600Y542750D02*X145350Y543500D01*
X144600Y542750D02*Y541250D01*
X145350Y540500D01*
X147600D01*
X148350Y539750D01*
Y538250D01*
X147600Y537500D02*X148350Y538250D01*
X145350Y537500D02*X147600D01*
X144600Y538250D02*X145350Y537500D01*
X98000Y538250D02*X98750Y537500D01*
X98000Y539450D02*Y538250D01*
Y539450D02*X99050Y540500D01*
X99950D01*
X101000Y539450D01*
Y538250D01*
X100250Y537500D02*X101000Y538250D01*
X98750Y537500D02*X100250D01*
X98000Y541550D02*X99050Y540500D01*
X98000Y542750D02*Y541550D01*
Y542750D02*X98750Y543500D01*
X100250D01*
X101000Y542750D01*
Y541550D01*
X99950Y540500D02*X101000Y541550D01*
X45000Y538250D02*X45750Y537500D01*
X45000Y542750D02*Y538250D01*
Y542750D02*X45750Y543500D01*
X47250D01*
X48000Y542750D01*
Y538250D01*
X47250Y537500D02*X48000Y538250D01*
X45750Y537500D02*X47250D01*
X45000Y539000D02*X48000Y542000D01*
X49800Y537500D02*X50550D01*
X52350Y538250D02*X53100Y537500D01*
X52350Y542750D02*Y538250D01*
Y542750D02*X53100Y543500D01*
X54600D01*
X55350Y542750D01*
Y538250D01*
X54600Y537500D02*X55350Y538250D01*
X53100Y537500D02*X54600D01*
X52350Y539000D02*X55350Y542000D01*
X57150Y543500D02*X60150D01*
X57150D02*Y540500D01*
X57900Y541250D01*
X59400D01*
X60150Y540500D01*
Y538250D01*
X59400Y537500D02*X60150Y538250D01*
X57900Y537500D02*X59400D01*
X57150Y538250D02*X57900Y537500D01*
X62700D02*X64950Y540500D01*
Y542750D02*Y540500D01*
X64200Y543500D02*X64950Y542750D01*
X62700Y543500D02*X64200D01*
X61950Y542750D02*X62700Y543500D01*
X61950Y542750D02*Y541250D01*
X62700Y540500D01*
X64950D01*
X159396Y334763D02*G75*G03X160996Y334763I800J0D01*G01*
G75*G03X159396Y334763I-800J0D01*G01*
Y344763D02*G75*G03X160996Y344763I800J0D01*G01*
G75*G03X159396Y344763I-800J0D01*G01*
X14200Y556250D02*G75*G03X15800Y556250I800J0D01*G01*
G75*G03X14200Y556250I-800J0D01*G01*
X135000Y558500D02*X136500Y555500D01*
X138000Y558500D01*
X136500Y555500D02*Y552500D01*
X139800Y555800D02*X142050D01*
X139800Y552500D02*X142800D01*
X139800Y558500D02*Y552500D01*
Y558500D02*X142800D01*
X147600D02*X148350Y557750D01*
X145350Y558500D02*X147600D01*
X144600Y557750D02*X145350Y558500D01*
X144600Y557750D02*Y556250D01*
X145350Y555500D01*
X147600D01*
X148350Y554750D01*
Y553250D01*
X147600Y552500D02*X148350Y553250D01*
X145350Y552500D02*X147600D01*
X144600Y553250D02*X145350Y552500D01*
X98000Y557750D02*X98750Y558500D01*
X101000D01*
X101750Y557750D01*
Y556250D01*
X98000Y552500D02*X101750Y556250D01*
X98000Y552500D02*X101750D01*
X45000Y553250D02*X45750Y552500D01*
X45000Y557750D02*Y553250D01*
Y557750D02*X45750Y558500D01*
X47250D01*
X48000Y557750D01*
Y553250D01*
X47250Y552500D02*X48000Y553250D01*
X45750Y552500D02*X47250D01*
X45000Y554000D02*X48000Y557000D01*
X49800Y552500D02*X50550D01*
X52350Y553250D02*X53100Y552500D01*
X52350Y557750D02*Y553250D01*
Y557750D02*X53100Y558500D01*
X54600D01*
X55350Y557750D01*
Y553250D01*
X54600Y552500D02*X55350Y553250D01*
X53100Y552500D02*X54600D01*
X52350Y554000D02*X55350Y557000D01*
X57150Y554750D02*X60150Y558500D01*
X57150Y554750D02*X60900D01*
X60150Y558500D02*Y552500D01*
X62700Y557750D02*X63450Y558500D01*
X64950D01*
X65700Y557750D01*
X64950Y552500D02*X65700Y553250D01*
X63450Y552500D02*X64950D01*
X62700Y553250D02*X63450Y552500D01*
Y555800D02*X64950D01*
X65700Y557750D02*Y556550D01*
Y555050D02*Y553250D01*
Y555050D02*X64950Y555800D01*
X65700Y556550D02*X64950Y555800D01*
X38957Y402696D02*X41357Y400296D01*
X38957D02*X41357Y402696D01*
X38957Y392696D02*X41357Y390296D01*
X38957D02*X41357Y392696D01*
X38957Y382696D02*X41357Y380296D01*
X38957D02*X41357Y382696D01*
X38957Y372696D02*X41357Y370296D01*
X38957D02*X41357Y372696D01*
X38957Y362696D02*X41357Y360296D01*
X38957D02*X41357Y362696D01*
X38957Y352696D02*X41357Y350296D01*
X38957D02*X41357Y352696D01*
X38957Y342696D02*X41357Y340296D01*
X38957D02*X41357Y342696D01*
X38957Y332696D02*X41357Y330296D01*
X38957D02*X41357Y332696D01*
X38957Y322696D02*X41357Y320296D01*
X38957D02*X41357Y322696D01*
X38957Y312696D02*X41357Y310296D01*
X38957D02*X41357Y312696D01*
X38957Y302696D02*X41357Y300296D01*
X38957D02*X41357Y302696D01*
X38957Y292696D02*X41357Y290296D01*
X38957D02*X41357Y292696D01*
X38957Y282696D02*X41357Y280296D01*
X38957D02*X41357Y282696D01*
X38957Y272696D02*X41357Y270296D01*
X38957D02*X41357Y272696D01*
X98957Y402696D02*X101357Y400296D01*
X98957D02*X101357Y402696D01*
X98957Y392696D02*X101357Y390296D01*
X98957D02*X101357Y392696D01*
X98957Y382696D02*X101357Y380296D01*
X98957D02*X101357Y382696D01*
X98957Y372696D02*X101357Y370296D01*
X98957D02*X101357Y372696D01*
X98957Y362696D02*X101357Y360296D01*
X98957D02*X101357Y362696D01*
X98957Y352696D02*X101357Y350296D01*
X98957D02*X101357Y352696D01*
X98957Y342696D02*X101357Y340296D01*
X98957D02*X101357Y342696D01*
X98957Y332696D02*X101357Y330296D01*
X98957D02*X101357Y332696D01*
X98957Y322696D02*X101357Y320296D01*
X98957D02*X101357Y322696D01*
X98957Y312696D02*X101357Y310296D01*
X98957D02*X101357Y312696D01*
X98957Y302696D02*X101357Y300296D01*
X98957D02*X101357Y302696D01*
X98957Y292696D02*X101357Y290296D01*
X98957D02*X101357Y292696D01*
X98957Y282696D02*X101357Y280296D01*
X98957D02*X101357Y282696D01*
X98957Y272696D02*X101357Y270296D01*
X98957D02*X101357Y272696D01*
X13800Y572450D02*X16200Y570050D01*
X13800D02*X16200Y572450D01*
X135000Y573500D02*X136500Y570500D01*
X138000Y573500D01*
X136500Y570500D02*Y567500D01*
X139800Y570800D02*X142050D01*
X139800Y567500D02*X142800D01*
X139800Y573500D02*Y567500D01*
Y573500D02*X142800D01*
X147600D02*X148350Y572750D01*
X145350Y573500D02*X147600D01*
X144600Y572750D02*X145350Y573500D01*
X144600Y572750D02*Y571250D01*
X145350Y570500D01*
X147600D01*
X148350Y569750D01*
Y568250D01*
X147600Y567500D02*X148350Y568250D01*
X145350Y567500D02*X147600D01*
X144600Y568250D02*X145350Y567500D01*
X98000Y572750D02*X98750Y573500D01*
X101000D01*
X101750Y572750D01*
Y571250D01*
X98000Y567500D02*X101750Y571250D01*
X98000Y567500D02*X101750D01*
X103550Y568250D02*X104300Y567500D01*
X103550Y569450D02*Y568250D01*
Y569450D02*X104600Y570500D01*
X105500D01*
X106550Y569450D01*
Y568250D01*
X105800Y567500D02*X106550Y568250D01*
X104300Y567500D02*X105800D01*
X103550Y571550D02*X104600Y570500D01*
X103550Y572750D02*Y571550D01*
Y572750D02*X104300Y573500D01*
X105800D01*
X106550Y572750D01*
Y571550D01*
X105500Y570500D02*X106550Y571550D01*
X45000Y568250D02*X45750Y567500D01*
X45000Y572750D02*Y568250D01*
Y572750D02*X45750Y573500D01*
X47250D01*
X48000Y572750D01*
Y568250D01*
X47250Y567500D02*X48000Y568250D01*
X45750Y567500D02*X47250D01*
X45000Y569000D02*X48000Y572000D01*
X49800Y567500D02*X50550D01*
X52350Y568250D02*X53100Y567500D01*
X52350Y572750D02*Y568250D01*
Y572750D02*X53100Y573500D01*
X54600D01*
X55350Y572750D01*
Y568250D01*
X54600Y567500D02*X55350Y568250D01*
X53100Y567500D02*X54600D01*
X52350Y569000D02*X55350Y572000D01*
X57150Y572750D02*X57900Y573500D01*
X59400D01*
X60150Y572750D01*
X59400Y567500D02*X60150Y568250D01*
X57900Y567500D02*X59400D01*
X57150Y568250D02*X57900Y567500D01*
Y570800D02*X59400D01*
X60150Y572750D02*Y571550D01*
Y570050D02*Y568250D01*
Y570050D02*X59400Y570800D01*
X60150Y571550D02*X59400Y570800D01*
X61950Y568250D02*X62700Y567500D01*
X61950Y569450D02*Y568250D01*
Y569450D02*X63000Y570500D01*
X63900D01*
X64950Y569450D01*
Y568250D01*
X64200Y567500D02*X64950Y568250D01*
X62700Y567500D02*X64200D01*
X61950Y571550D02*X63000Y570500D01*
X61950Y572750D02*Y571550D01*
Y572750D02*X62700Y573500D01*
X64200D01*
X64950Y572750D01*
Y571550D01*
X63900Y570500D02*X64950Y571550D01*
X160157Y362938D02*Y359738D01*
X158557Y361338D02*X161757D01*
X160157Y392938D02*Y389738D01*
X158557Y391338D02*X161757D01*
X15000Y587850D02*Y584650D01*
X13400Y586250D02*X16600D01*
X135000Y588500D02*X136500Y585500D01*
X138000Y588500D01*
X136500Y585500D02*Y582500D01*
X139800Y585800D02*X142050D01*
X139800Y582500D02*X142800D01*
X139800Y588500D02*Y582500D01*
Y588500D02*X142800D01*
X147600D02*X148350Y587750D01*
X145350Y588500D02*X147600D01*
X144600Y587750D02*X145350Y588500D01*
X144600Y587750D02*Y586250D01*
X145350Y585500D01*
X147600D01*
X148350Y584750D01*
Y583250D01*
X147600Y582500D02*X148350Y583250D01*
X145350Y582500D02*X147600D01*
X144600Y583250D02*X145350Y582500D01*
X98000Y587750D02*X98750Y588500D01*
X101000D01*
X101750Y587750D01*
Y586250D01*
X98000Y582500D02*X101750Y586250D01*
X98000Y582500D02*X101750D01*
X45000Y583250D02*X45750Y582500D01*
X45000Y587750D02*Y583250D01*
Y587750D02*X45750Y588500D01*
X47250D01*
X48000Y587750D01*
Y583250D01*
X47250Y582500D02*X48000Y583250D01*
X45750Y582500D02*X47250D01*
X45000Y584000D02*X48000Y587000D01*
X49800Y582500D02*X50550D01*
X52350Y583250D02*X53100Y582500D01*
X52350Y587750D02*Y583250D01*
Y587750D02*X53100Y588500D01*
X54600D01*
X55350Y587750D01*
Y583250D01*
X54600Y582500D02*X55350Y583250D01*
X53100Y582500D02*X54600D01*
X52350Y584000D02*X55350Y587000D01*
X57150Y587750D02*X57900Y588500D01*
X59400D01*
X60150Y587750D01*
X59400Y582500D02*X60150Y583250D01*
X57900Y582500D02*X59400D01*
X57150Y583250D02*X57900Y582500D01*
Y585800D02*X59400D01*
X60150Y587750D02*Y586550D01*
Y585050D02*Y583250D01*
Y585050D02*X59400Y585800D01*
X60150Y586550D02*X59400Y585800D01*
X61950Y583250D02*X62700Y582500D01*
X61950Y587750D02*Y583250D01*
Y587750D02*X62700Y588500D01*
X64200D01*
X64950Y587750D01*
Y583250D01*
X64200Y582500D02*X64950Y583250D01*
X62700Y582500D02*X64200D01*
X61950Y584000D02*X64950Y587000D01*
X264488Y362677D02*Y361077D01*
Y362677D02*X265875Y363477D01*
X264488Y362677D02*X263102Y363477D01*
X272362Y362677D02*Y361077D01*
Y362677D02*X273749Y363477D01*
X272362Y362677D02*X270976Y363477D01*
X280236Y362677D02*Y361077D01*
Y362677D02*X281623Y363477D01*
X280236Y362677D02*X278850Y363477D01*
X288110Y362677D02*Y361077D01*
Y362677D02*X289497Y363477D01*
X288110Y362677D02*X286724Y363477D01*
X268425Y312086D02*Y310486D01*
Y312086D02*X269812Y312886D01*
X268425Y312086D02*X267039Y312886D01*
X276299Y312086D02*Y310486D01*
Y312086D02*X277686Y312886D01*
X276299Y312086D02*X274913Y312886D01*
X284173Y312086D02*Y310486D01*
Y312086D02*X285560Y312886D01*
X284173Y312086D02*X282787Y312886D01*
X292047Y312086D02*Y310486D01*
Y312086D02*X293434Y312886D01*
X292047Y312086D02*X290661Y312886D01*
X278543Y336614D02*Y335014D01*
Y336614D02*X279930Y337414D01*
X278543Y336614D02*X277157Y337414D01*
X287402Y378740D02*Y377140D01*
Y378740D02*X288788Y379540D01*
X287402Y378740D02*X286015Y379540D01*
X247244Y378740D02*Y377140D01*
Y378740D02*X248631Y379540D01*
X247244Y378740D02*X245857Y379540D01*
X232165Y312086D02*Y310486D01*
Y312086D02*X233552Y312886D01*
X232165Y312086D02*X230778Y312886D01*
X232165Y281378D02*Y279778D01*
Y281378D02*X233552Y282178D01*
X232165Y281378D02*X230778Y282178D01*
X115512Y271496D02*Y269896D01*
Y271496D02*X116898Y272296D01*
X115512Y271496D02*X114125Y272296D01*
X15000Y601250D02*Y599650D01*
Y601250D02*X16387Y602050D01*
X15000Y601250D02*X13613Y602050D01*
X135000Y603500D02*X136500Y600500D01*
X138000Y603500D01*
X136500Y600500D02*Y597500D01*
X139800Y600800D02*X142050D01*
X139800Y597500D02*X142800D01*
X139800Y603500D02*Y597500D01*
Y603500D02*X142800D01*
X147600D02*X148350Y602750D01*
X145350Y603500D02*X147600D01*
X144600Y602750D02*X145350Y603500D01*
X144600Y602750D02*Y601250D01*
X145350Y600500D01*
X147600D01*
X148350Y599750D01*
Y598250D01*
X147600Y597500D02*X148350Y598250D01*
X145350Y597500D02*X147600D01*
X144600Y598250D02*X145350Y597500D01*
X98000Y602300D02*X99200Y603500D01*
Y597500D01*
X98000D02*X100250D01*
X102050Y599750D02*X105050Y603500D01*
X102050Y599750D02*X105800D01*
X105050Y603500D02*Y597500D01*
X45000Y598250D02*X45750Y597500D01*
X45000Y602750D02*Y598250D01*
Y602750D02*X45750Y603500D01*
X47250D01*
X48000Y602750D01*
Y598250D01*
X47250Y597500D02*X48000Y598250D01*
X45750Y597500D02*X47250D01*
X45000Y599000D02*X48000Y602000D01*
X49800Y597500D02*X50550D01*
X52350Y598250D02*X53100Y597500D01*
X52350Y602750D02*Y598250D01*
Y602750D02*X53100Y603500D01*
X54600D01*
X55350Y602750D01*
Y598250D01*
X54600Y597500D02*X55350Y598250D01*
X53100Y597500D02*X54600D01*
X52350Y599000D02*X55350Y602000D01*
X57150Y602750D02*X57900Y603500D01*
X60150D01*
X60900Y602750D01*
Y601250D01*
X57150Y597500D02*X60900Y601250D01*
X57150Y597500D02*X60900D01*
X62700Y598250D02*X63450Y597500D01*
X62700Y602750D02*Y598250D01*
Y602750D02*X63450Y603500D01*
X64950D01*
X65700Y602750D01*
Y598250D01*
X64950Y597500D02*X65700Y598250D01*
X63450Y597500D02*X64950D01*
X62700Y599000D02*X65700Y602000D01*
X3000Y618500D02*X3750Y617750D01*
X750Y618500D02*X3000D01*
X0Y617750D02*X750Y618500D01*
X0Y617750D02*Y616250D01*
X750Y615500D01*
X3000D01*
X3750Y614750D01*
Y613250D01*
X3000Y612500D02*X3750Y613250D01*
X750Y612500D02*X3000D01*
X0Y613250D02*X750Y612500D01*
X5550Y615500D02*Y613250D01*
X6300Y612500D01*
X8550Y615500D02*Y611000D01*
X7800Y610250D02*X8550Y611000D01*
X6300Y610250D02*X7800D01*
X5550Y611000D02*X6300Y610250D01*
Y612500D02*X7800D01*
X8550Y613250D01*
X11100Y614750D02*Y612500D01*
Y614750D02*X11850Y615500D01*
X12600D01*
X13350Y614750D01*
Y612500D01*
Y614750D02*X14100Y615500D01*
X14850D01*
X15600Y614750D01*
Y612500D01*
X10350Y615500D02*X11100Y614750D01*
X17400Y618500D02*Y612500D01*
Y613250D02*X18150Y612500D01*
X19650D01*
X20400Y613250D01*
Y614750D02*Y613250D01*
X19650Y615500D02*X20400Y614750D01*
X18150Y615500D02*X19650D01*
X17400Y614750D02*X18150Y615500D01*
X22200Y614750D02*Y613250D01*
Y614750D02*X22950Y615500D01*
X24450D01*
X25200Y614750D01*
Y613250D01*
X24450Y612500D02*X25200Y613250D01*
X22950Y612500D02*X24450D01*
X22200Y613250D02*X22950Y612500D01*
X27000Y618500D02*Y613250D01*
X27750Y612500D01*
X0Y609250D02*X29250D01*
X41750Y618500D02*Y612500D01*
X43700Y618500D02*X44750Y617450D01*
Y613550D01*
X43700Y612500D02*X44750Y613550D01*
X41000Y612500D02*X43700D01*
X41000Y618500D02*X43700D01*
G54D67*X46550Y617000D02*Y616850D01*
G54D66*Y614750D02*Y612500D01*
X50300Y615500D02*X51050Y614750D01*
X48800Y615500D02*X50300D01*
X48050Y614750D02*X48800Y615500D01*
X48050Y614750D02*Y613250D01*
X48800Y612500D01*
X51050Y615500D02*Y613250D01*
X51800Y612500D01*
X48800D02*X50300D01*
X51050Y613250D01*
X54350Y614750D02*Y612500D01*
Y614750D02*X55100Y615500D01*
X55850D01*
X56600Y614750D01*
Y612500D01*
Y614750D02*X57350Y615500D01*
X58100D01*
X58850Y614750D01*
Y612500D01*
X53600Y615500D02*X54350Y614750D01*
X60650Y612500D02*X61400D01*
X65900Y613250D02*X66650Y612500D01*
X65900Y617750D02*X66650Y618500D01*
X65900Y617750D02*Y613250D01*
X68450Y618500D02*X69950D01*
X69200D02*Y612500D01*
X68450D02*X69950D01*
X72500Y614750D02*Y612500D01*
Y614750D02*X73250Y615500D01*
X74000D01*
X74750Y614750D01*
Y612500D01*
X71750Y615500D02*X72500Y614750D01*
X77300Y615500D02*X79550D01*
X76550Y614750D02*X77300Y615500D01*
X76550Y614750D02*Y613250D01*
X77300Y612500D01*
X79550D01*
X81350Y618500D02*Y612500D01*
Y614750D02*X82100Y615500D01*
X83600D01*
X84350Y614750D01*
Y612500D01*
X86150Y618500D02*X86900Y617750D01*
Y613250D01*
X86150Y612500D02*X86900Y613250D01*
X41000Y609250D02*X88700D01*
X96050Y612500D02*X98000D01*
X95000Y613550D02*X96050Y612500D01*
X95000Y617450D02*Y613550D01*
Y617450D02*X96050Y618500D01*
X98000D01*
X99800Y614750D02*Y613250D01*
Y614750D02*X100550Y615500D01*
X102050D01*
X102800Y614750D01*
Y613250D01*
X102050Y612500D02*X102800Y613250D01*
X100550Y612500D02*X102050D01*
X99800Y613250D02*X100550Y612500D01*
X104600Y615500D02*Y613250D01*
X105350Y612500D01*
X106850D01*
X107600Y613250D01*
Y615500D02*Y613250D01*
X110150Y614750D02*Y612500D01*
Y614750D02*X110900Y615500D01*
X111650D01*
X112400Y614750D01*
Y612500D01*
X109400Y615500D02*X110150Y614750D01*
X114950Y618500D02*Y613250D01*
X115700Y612500D01*
X114200Y616250D02*X115700D01*
X95000Y609250D02*X117200D01*
X130750Y618500D02*Y612500D01*
X130000Y618500D02*X133000D01*
X133750Y617750D01*
Y616250D01*
X133000Y615500D02*X133750Y616250D01*
X130750Y615500D02*X133000D01*
X135550Y618500D02*Y613250D01*
X136300Y612500D01*
X140050Y615500D02*X140800Y614750D01*
X138550Y615500D02*X140050D01*
X137800Y614750D02*X138550Y615500D01*
X137800Y614750D02*Y613250D01*
X138550Y612500D01*
X140800Y615500D02*Y613250D01*
X141550Y612500D01*
X138550D02*X140050D01*
X140800Y613250D01*
X144100Y618500D02*Y613250D01*
X144850Y612500D01*
X143350Y616250D02*X144850D01*
X147100Y612500D02*X149350D01*
X146350Y613250D02*X147100Y612500D01*
X146350Y614750D02*Y613250D01*
Y614750D02*X147100Y615500D01*
X148600D01*
X149350Y614750D01*
X146350Y614000D02*X149350D01*
Y614750D02*Y614000D01*
X154150Y618500D02*Y612500D01*
X153400D02*X154150Y613250D01*
X151900Y612500D02*X153400D01*
X151150Y613250D02*X151900Y612500D01*
X151150Y614750D02*Y613250D01*
Y614750D02*X151900Y615500D01*
X153400D01*
X154150Y614750D01*
X157450Y615500D02*Y614750D01*
Y613250D02*Y612500D01*
X155950Y617750D02*Y617000D01*
Y617750D02*X156700Y618500D01*
X158200D01*
X158950Y617750D01*
Y617000D01*
X157450Y615500D02*X158950Y617000D01*
X130000Y609250D02*X160750D01*
X0Y633500D02*X3000D01*
X1500D02*Y627500D01*
X4800Y633500D02*Y627500D01*
Y629750D02*X5550Y630500D01*
X7050D01*
X7800Y629750D01*
Y627500D01*
X10350D02*X12600D01*
X9600Y628250D02*X10350Y627500D01*
X9600Y629750D02*Y628250D01*
Y629750D02*X10350Y630500D01*
X11850D01*
X12600Y629750D01*
X9600Y629000D02*X12600D01*
Y629750D02*Y629000D01*
X15150Y629750D02*Y627500D01*
Y629750D02*X15900Y630500D01*
X17400D01*
X14400D02*X15150Y629750D01*
X19950Y627500D02*X22200D01*
X19200Y628250D02*X19950Y627500D01*
X19200Y629750D02*Y628250D01*
Y629750D02*X19950Y630500D01*
X21450D01*
X22200Y629750D01*
X19200Y629000D02*X22200D01*
Y629750D02*Y629000D01*
X28950Y630500D02*X29700Y629750D01*
X27450Y630500D02*X28950D01*
X26700Y629750D02*X27450Y630500D01*
X26700Y629750D02*Y628250D01*
X27450Y627500D01*
X29700Y630500D02*Y628250D01*
X30450Y627500D01*
X27450D02*X28950D01*
X29700Y628250D01*
X33000Y629750D02*Y627500D01*
Y629750D02*X33750Y630500D01*
X35250D01*
X32250D02*X33000Y629750D01*
X37800Y627500D02*X40050D01*
X37050Y628250D02*X37800Y627500D01*
X37050Y629750D02*Y628250D01*
Y629750D02*X37800Y630500D01*
X39300D01*
X40050Y629750D01*
X37050Y629000D02*X40050D01*
Y629750D02*Y629000D01*
X45300Y627500D02*X48300Y633500D01*
X44550D02*X48300D01*
X55800D02*Y627500D01*
X55050D02*X55800Y628250D01*
X53550Y627500D02*X55050D01*
X52800Y628250D02*X53550Y627500D01*
X52800Y629750D02*Y628250D01*
Y629750D02*X53550Y630500D01*
X55050D01*
X55800Y629750D01*
G54D67*X57600Y632000D02*Y631850D01*
G54D66*Y629750D02*Y627500D01*
X59850Y632750D02*Y627500D01*
Y632750D02*X60600Y633500D01*
X61350D01*
X59100Y630500D02*X60600D01*
X63600Y632750D02*Y627500D01*
Y632750D02*X64350Y633500D01*
X65100D01*
X62850Y630500D02*X64350D01*
X67350Y627500D02*X69600D01*
X66600Y628250D02*X67350Y627500D01*
X66600Y629750D02*Y628250D01*
Y629750D02*X67350Y630500D01*
X68850D01*
X69600Y629750D01*
X66600Y629000D02*X69600D01*
Y629750D02*Y629000D01*
X72150Y629750D02*Y627500D01*
Y629750D02*X72900Y630500D01*
X74400D01*
X71400D02*X72150Y629750D01*
X76950Y627500D02*X79200D01*
X76200Y628250D02*X76950Y627500D01*
X76200Y629750D02*Y628250D01*
Y629750D02*X76950Y630500D01*
X78450D01*
X79200Y629750D01*
X76200Y629000D02*X79200D01*
Y629750D02*Y629000D01*
X81750Y629750D02*Y627500D01*
Y629750D02*X82500Y630500D01*
X83250D01*
X84000Y629750D01*
Y627500D01*
X81000Y630500D02*X81750Y629750D01*
X86550Y633500D02*Y628250D01*
X87300Y627500D01*
X85800Y631250D02*X87300D01*
X94500Y633500D02*Y627500D01*
X93750D02*X94500Y628250D01*
X92250Y627500D02*X93750D01*
X91500Y628250D02*X92250Y627500D01*
X91500Y629750D02*Y628250D01*
Y629750D02*X92250Y630500D01*
X93750D01*
X94500Y629750D01*
X97050D02*Y627500D01*
Y629750D02*X97800Y630500D01*
X99300D01*
X96300D02*X97050Y629750D01*
G54D67*X101100Y632000D02*Y631850D01*
G54D66*Y629750D02*Y627500D01*
X102600Y633500D02*Y628250D01*
X103350Y627500D01*
X104850Y633500D02*Y628250D01*
X105600Y627500D01*
X110550D02*X112800D01*
X113550Y628250D01*
X112800Y629000D02*X113550Y628250D01*
X110550Y629000D02*X112800D01*
X109800Y629750D02*X110550Y629000D01*
X109800Y629750D02*X110550Y630500D01*
X112800D01*
X113550Y629750D01*
X109800Y628250D02*X110550Y627500D01*
G54D67*X115350Y632000D02*Y631850D01*
G54D66*Y629750D02*Y627500D01*
X116850Y630500D02*X119850D01*
X116850Y627500D02*X119850Y630500D01*
X116850Y627500D02*X119850D01*
X122400D02*X124650D01*
X121650Y628250D02*X122400Y627500D01*
X121650Y629750D02*Y628250D01*
Y629750D02*X122400Y630500D01*
X123900D01*
X124650Y629750D01*
X121650Y629000D02*X124650D01*
Y629750D02*Y629000D01*
X127200Y627500D02*X129450D01*
X130200Y628250D01*
X129450Y629000D02*X130200Y628250D01*
X127200Y629000D02*X129450D01*
X126450Y629750D02*X127200Y629000D01*
X126450Y629750D02*X127200Y630500D01*
X129450D01*
X130200Y629750D01*
X126450Y628250D02*X127200Y627500D01*
X134700Y630500D02*Y628250D01*
X135450Y627500D01*
X136950D01*
X137700Y628250D01*
Y630500D02*Y628250D01*
X140250Y627500D02*X142500D01*
X143250Y628250D01*
X142500Y629000D02*X143250Y628250D01*
X140250Y629000D02*X142500D01*
X139500Y629750D02*X140250Y629000D01*
X139500Y629750D02*X140250Y630500D01*
X142500D01*
X143250Y629750D01*
X139500Y628250D02*X140250Y627500D01*
X145800D02*X148050D01*
X145050Y628250D02*X145800Y627500D01*
X145050Y629750D02*Y628250D01*
Y629750D02*X145800Y630500D01*
X147300D01*
X148050Y629750D01*
X145050Y629000D02*X148050D01*
Y629750D02*Y629000D01*
X152850Y633500D02*Y627500D01*
X152100D02*X152850Y628250D01*
X150600Y627500D02*X152100D01*
X149850Y628250D02*X150600Y627500D01*
X149850Y629750D02*Y628250D01*
Y629750D02*X150600Y630500D01*
X152100D01*
X152850Y629750D01*
G54D67*X157350Y632000D02*Y631850D01*
G54D66*Y629750D02*Y627500D01*
X159600Y629750D02*Y627500D01*
Y629750D02*X160350Y630500D01*
X161100D01*
X161850Y629750D01*
Y627500D01*
X158850Y630500D02*X159600Y629750D01*
X167100Y633500D02*Y628250D01*
X167850Y627500D01*
X166350Y631250D02*X167850D01*
X169350Y633500D02*Y627500D01*
Y629750D02*X170100Y630500D01*
X171600D01*
X172350Y629750D01*
Y627500D01*
G54D67*X174150Y632000D02*Y631850D01*
G54D66*Y629750D02*Y627500D01*
X176400D02*X178650D01*
X179400Y628250D01*
X178650Y629000D02*X179400Y628250D01*
X176400Y629000D02*X178650D01*
X175650Y629750D02*X176400Y629000D01*
X175650Y629750D02*X176400Y630500D01*
X178650D01*
X179400Y629750D01*
X175650Y628250D02*X176400Y627500D01*
X183900Y633500D02*Y628250D01*
X184650Y627500D01*
X188400Y630500D02*X189150Y629750D01*
X186900Y630500D02*X188400D01*
X186150Y629750D02*X186900Y630500D01*
X186150Y629750D02*Y628250D01*
X186900Y627500D01*
X189150Y630500D02*Y628250D01*
X189900Y627500D01*
X186900D02*X188400D01*
X189150Y628250D01*
X191700Y630500D02*Y628250D01*
X192450Y627500D01*
X194700Y630500D02*Y626000D01*
X193950Y625250D02*X194700Y626000D01*
X192450Y625250D02*X193950D01*
X191700Y626000D02*X192450Y625250D01*
Y627500D02*X193950D01*
X194700Y628250D01*
X196500Y629750D02*Y628250D01*
Y629750D02*X197250Y630500D01*
X198750D01*
X199500Y629750D01*
Y628250D01*
X198750Y627500D02*X199500Y628250D01*
X197250Y627500D02*X198750D01*
X196500Y628250D02*X197250Y627500D01*
X201300Y630500D02*Y628250D01*
X202050Y627500D01*
X203550D01*
X204300Y628250D01*
Y630500D02*Y628250D01*
X206850Y633500D02*Y628250D01*
X207600Y627500D01*
X206100Y631250D02*X207600D01*
X209100Y626000D02*X210600Y627500D01*
X217350Y633500D02*X218100Y632750D01*
X215850Y633500D02*X217350D01*
X215100Y632750D02*X215850Y633500D01*
X215100Y632750D02*Y628250D01*
X215850Y627500D01*
X217350Y630800D02*X218100Y630050D01*
X215100Y630800D02*X217350D01*
X215850Y627500D02*X217350D01*
X218100Y628250D01*
Y630050D02*Y628250D01*
X222150Y633500D02*X222900Y632750D01*
X220650Y633500D02*X222150D01*
X219900Y632750D02*X220650Y633500D01*
X219900Y632750D02*Y628250D01*
X220650Y627500D01*
X222150Y630800D02*X222900Y630050D01*
X219900Y630800D02*X222150D01*
X220650Y627500D02*X222150D01*
X222900Y628250D01*
Y630050D02*Y628250D01*
X227400Y633500D02*Y627500D01*
Y629750D02*X228150Y630500D01*
X229650D01*
X230400Y629750D01*
Y627500D01*
X232200Y629750D02*Y628250D01*
Y629750D02*X232950Y630500D01*
X234450D01*
X235200Y629750D01*
Y628250D01*
X234450Y627500D02*X235200Y628250D01*
X232950Y627500D02*X234450D01*
X232200Y628250D02*X232950Y627500D01*
X237000Y633500D02*Y628250D01*
X237750Y627500D01*
X240000D02*X242250D01*
X239250Y628250D02*X240000Y627500D01*
X239250Y629750D02*Y628250D01*
Y629750D02*X240000Y630500D01*
X241500D01*
X242250Y629750D01*
X239250Y629000D02*X242250D01*
Y629750D02*Y629000D01*
X244800Y627500D02*X247050D01*
X247800Y628250D01*
X247050Y629000D02*X247800Y628250D01*
X244800Y629000D02*X247050D01*
X244050Y629750D02*X244800Y629000D01*
X244050Y629750D02*X244800Y630500D01*
X247050D01*
X247800Y629750D01*
X244050Y628250D02*X244800Y627500D01*
X253050Y633500D02*Y628250D01*
X253800Y627500D01*
X252300Y631250D02*X253800D01*
X255300Y629750D02*Y628250D01*
Y629750D02*X256050Y630500D01*
X257550D01*
X258300Y629750D01*
Y628250D01*
X257550Y627500D02*X258300Y628250D01*
X256050Y627500D02*X257550D01*
X255300Y628250D02*X256050Y627500D01*
X260850Y633500D02*Y628250D01*
X261600Y627500D01*
X260100Y631250D02*X261600D01*
X265350Y630500D02*X266100Y629750D01*
X263850Y630500D02*X265350D01*
X263100Y629750D02*X263850Y630500D01*
X263100Y629750D02*Y628250D01*
X263850Y627500D01*
X266100Y630500D02*Y628250D01*
X266850Y627500D01*
X263850D02*X265350D01*
X266100Y628250D01*
X268650Y633500D02*Y628250D01*
X269400Y627500D01*
G54D68*X0Y500000D02*X600000D01*
X0D02*Y0D01*
X600000Y500000D02*Y0D01*
X0D02*X600000D01*
G54D66*X200000Y513500D02*Y507500D01*
Y513500D02*X202250Y510500D01*
X204500Y513500D01*
Y507500D01*
X208550Y510500D02*X209300Y509750D01*
X207050Y510500D02*X208550D01*
X206300Y509750D02*X207050Y510500D01*
X206300Y509750D02*Y508250D01*
X207050Y507500D01*
X209300Y510500D02*Y508250D01*
X210050Y507500D01*
X207050D02*X208550D01*
X209300Y508250D01*
X211850Y510500D02*X214850Y507500D01*
X211850D02*X214850Y510500D01*
G54D67*X216650Y512000D02*Y511850D01*
G54D66*Y509750D02*Y507500D01*
X218900Y509750D02*Y507500D01*
Y509750D02*X219650Y510500D01*
X220400D01*
X221150Y509750D01*
Y507500D01*
Y509750D02*X221900Y510500D01*
X222650D01*
X223400Y509750D01*
Y507500D01*
X218150Y510500D02*X218900Y509750D01*
X225200Y510500D02*Y508250D01*
X225950Y507500D01*
X227450D01*
X228200Y508250D01*
Y510500D02*Y508250D01*
X230750Y509750D02*Y507500D01*
Y509750D02*X231500Y510500D01*
X232250D01*
X233000Y509750D01*
Y507500D01*
Y509750D02*X233750Y510500D01*
X234500D01*
X235250Y509750D01*
Y507500D01*
X230000Y510500D02*X230750Y509750D01*
X240500Y513500D02*Y507500D01*
X242450Y513500D02*X243500Y512450D01*
Y508550D01*
X242450Y507500D02*X243500Y508550D01*
X239750Y507500D02*X242450D01*
X239750Y513500D02*X242450D01*
G54D67*X245300Y512000D02*Y511850D01*
G54D66*Y509750D02*Y507500D01*
X247550Y509750D02*Y507500D01*
Y509750D02*X248300Y510500D01*
X249050D01*
X249800Y509750D01*
Y507500D01*
Y509750D02*X250550Y510500D01*
X251300D01*
X252050Y509750D01*
Y507500D01*
X246800Y510500D02*X247550Y509750D01*
X254600Y507500D02*X256850D01*
X253850Y508250D02*X254600Y507500D01*
X253850Y509750D02*Y508250D01*
Y509750D02*X254600Y510500D01*
X256100D01*
X256850Y509750D01*
X253850Y509000D02*X256850D01*
Y509750D02*Y509000D01*
X259400Y509750D02*Y507500D01*
Y509750D02*X260150Y510500D01*
X260900D01*
X261650Y509750D01*
Y507500D01*
X258650Y510500D02*X259400Y509750D01*
X264200Y507500D02*X266450D01*
X267200Y508250D01*
X266450Y509000D02*X267200Y508250D01*
X264200Y509000D02*X266450D01*
X263450Y509750D02*X264200Y509000D01*
X263450Y509750D02*X264200Y510500D01*
X266450D01*
X267200Y509750D01*
X263450Y508250D02*X264200Y507500D01*
G54D67*X269000Y512000D02*Y511850D01*
G54D66*Y509750D02*Y507500D01*
X270500Y509750D02*Y508250D01*
Y509750D02*X271250Y510500D01*
X272750D01*
X273500Y509750D01*
Y508250D01*
X272750Y507500D02*X273500Y508250D01*
X271250Y507500D02*X272750D01*
X270500Y508250D02*X271250Y507500D01*
X276050Y509750D02*Y507500D01*
Y509750D02*X276800Y510500D01*
X277550D01*
X278300Y509750D01*
Y507500D01*
X275300Y510500D02*X276050Y509750D01*
X280850Y507500D02*X283100D01*
X283850Y508250D01*
X283100Y509000D02*X283850Y508250D01*
X280850Y509000D02*X283100D01*
X280100Y509750D02*X280850Y509000D01*
X280100Y509750D02*X280850Y510500D01*
X283100D01*
X283850Y509750D01*
X280100Y508250D02*X280850Y507500D01*
X285650Y511250D02*X286400D01*
X285650Y509750D02*X286400D01*
X293150Y513500D02*X293900Y512750D01*
X291650Y513500D02*X293150D01*
X290900Y512750D02*X291650Y513500D01*
X290900Y512750D02*Y508250D01*
X291650Y507500D01*
X293150Y510800D02*X293900Y510050D01*
X290900Y510800D02*X293150D01*
X291650Y507500D02*X293150D01*
X293900Y508250D01*
Y510050D02*Y508250D01*
X295700D02*X296450Y507500D01*
X295700Y512750D02*Y508250D01*
Y512750D02*X296450Y513500D01*
X297950D01*
X298700Y512750D01*
Y508250D01*
X297950Y507500D02*X298700Y508250D01*
X296450Y507500D02*X297950D01*
X295700Y509000D02*X298700Y512000D01*
X300500Y508250D02*X301250Y507500D01*
X300500Y512750D02*Y508250D01*
Y512750D02*X301250Y513500D01*
X302750D01*
X303500Y512750D01*
Y508250D01*
X302750Y507500D02*X303500Y508250D01*
X301250Y507500D02*X302750D01*
X300500Y509000D02*X303500Y512000D01*
X305300Y508250D02*X306050Y507500D01*
X305300Y512750D02*Y508250D01*
Y512750D02*X306050Y513500D01*
X307550D01*
X308300Y512750D01*
Y508250D01*
X307550Y507500D02*X308300Y508250D01*
X306050Y507500D02*X307550D01*
X305300Y509000D02*X308300Y512000D01*
X310100Y507500D02*X310850D01*
X312650Y508250D02*X313400Y507500D01*
X312650Y512750D02*Y508250D01*
Y512750D02*X313400Y513500D01*
X314900D01*
X315650Y512750D01*
Y508250D01*
X314900Y507500D02*X315650Y508250D01*
X313400Y507500D02*X314900D01*
X312650Y509000D02*X315650Y512000D01*
X317450Y508250D02*X318200Y507500D01*
X317450Y512750D02*Y508250D01*
Y512750D02*X318200Y513500D01*
X319700D01*
X320450Y512750D01*
Y508250D01*
X319700Y507500D02*X320450Y508250D01*
X318200Y507500D02*X319700D01*
X317450Y509000D02*X320450Y512000D01*
X322250Y508250D02*X323000Y507500D01*
X322250Y512750D02*Y508250D01*
Y512750D02*X323000Y513500D01*
X324500D01*
X325250Y512750D01*
Y508250D01*
X324500Y507500D02*X325250Y508250D01*
X323000Y507500D02*X324500D01*
X322250Y509000D02*X325250Y512000D01*
X327050Y508250D02*X327800Y507500D01*
X327050Y512750D02*Y508250D01*
Y512750D02*X327800Y513500D01*
X329300D01*
X330050Y512750D01*
Y508250D01*
X329300Y507500D02*X330050Y508250D01*
X327800Y507500D02*X329300D01*
X327050Y509000D02*X330050Y512000D01*
X331850Y508250D02*X332600Y507500D01*
X331850Y512750D02*Y508250D01*
Y512750D02*X332600Y513500D01*
X334100D01*
X334850Y512750D01*
Y508250D01*
X334100Y507500D02*X334850Y508250D01*
X332600Y507500D02*X334100D01*
X331850Y509000D02*X334850Y512000D01*
X336650Y508250D02*X337400Y507500D01*
X336650Y512750D02*Y508250D01*
Y512750D02*X337400Y513500D01*
X338900D01*
X339650Y512750D01*
Y508250D01*
X338900Y507500D02*X339650Y508250D01*
X337400Y507500D02*X338900D01*
X336650Y509000D02*X339650Y512000D01*
X344900Y509750D02*Y507500D01*
Y509750D02*X345650Y510500D01*
X346400D01*
X347150Y509750D01*
Y507500D01*
Y509750D02*X347900Y510500D01*
X348650D01*
X349400Y509750D01*
Y507500D01*
X344150Y510500D02*X344900Y509750D01*
G54D67*X351200Y512000D02*Y511850D01*
G54D66*Y509750D02*Y507500D01*
X352700Y513500D02*Y508250D01*
X353450Y507500D01*
X355700D02*X357950D01*
X358700Y508250D01*
X357950Y509000D02*X358700Y508250D01*
X355700Y509000D02*X357950D01*
X354950Y509750D02*X355700Y509000D01*
X354950Y509750D02*X355700Y510500D01*
X357950D01*
X358700Y509750D01*
X354950Y508250D02*X355700Y507500D01*
X363200Y510500D02*Y508250D01*
X363950Y507500D01*
X364700D01*
X365450Y508250D01*
Y510500D02*Y508250D01*
X366200Y507500D01*
X366950D01*
X367700Y508250D01*
Y510500D02*Y508250D01*
G54D67*X369500Y512000D02*Y511850D01*
G54D66*Y509750D02*Y507500D01*
X374000Y513500D02*Y507500D01*
X373250D02*X374000Y508250D01*
X371750Y507500D02*X373250D01*
X371000Y508250D02*X371750Y507500D01*
X371000Y509750D02*Y508250D01*
Y509750D02*X371750Y510500D01*
X373250D01*
X374000Y509750D01*
X376550Y507500D02*X378800D01*
X375800Y508250D02*X376550Y507500D01*
X375800Y509750D02*Y508250D01*
Y509750D02*X376550Y510500D01*
X378050D01*
X378800Y509750D01*
X375800Y509000D02*X378800D01*
Y509750D02*Y509000D01*
X380600Y506000D02*X382100Y507500D01*
X386600Y513500D02*X389600D01*
X386600D02*Y510500D01*
X387350Y511250D01*
X388850D01*
X389600Y510500D01*
Y508250D01*
X388850Y507500D02*X389600Y508250D01*
X387350Y507500D02*X388850D01*
X386600Y508250D02*X387350Y507500D01*
X391400Y508250D02*X392150Y507500D01*
X391400Y512750D02*Y508250D01*
Y512750D02*X392150Y513500D01*
X393650D01*
X394400Y512750D01*
Y508250D01*
X393650Y507500D02*X394400Y508250D01*
X392150Y507500D02*X393650D01*
X391400Y509000D02*X394400Y512000D01*
X396200Y508250D02*X396950Y507500D01*
X396200Y512750D02*Y508250D01*
Y512750D02*X396950Y513500D01*
X398450D01*
X399200Y512750D01*
Y508250D01*
X398450Y507500D02*X399200Y508250D01*
X396950Y507500D02*X398450D01*
X396200Y509000D02*X399200Y512000D01*
X401000Y508250D02*X401750Y507500D01*
X401000Y512750D02*Y508250D01*
Y512750D02*X401750Y513500D01*
X403250D01*
X404000Y512750D01*
Y508250D01*
X403250Y507500D02*X404000Y508250D01*
X401750Y507500D02*X403250D01*
X401000Y509000D02*X404000Y512000D01*
X405800Y507500D02*X406550D01*
X408350Y508250D02*X409100Y507500D01*
X408350Y512750D02*Y508250D01*
Y512750D02*X409100Y513500D01*
X410600D01*
X411350Y512750D01*
Y508250D01*
X410600Y507500D02*X411350Y508250D01*
X409100Y507500D02*X410600D01*
X408350Y509000D02*X411350Y512000D01*
X413150Y508250D02*X413900Y507500D01*
X413150Y512750D02*Y508250D01*
Y512750D02*X413900Y513500D01*
X415400D01*
X416150Y512750D01*
Y508250D01*
X415400Y507500D02*X416150Y508250D01*
X413900Y507500D02*X415400D01*
X413150Y509000D02*X416150Y512000D01*
X417950Y508250D02*X418700Y507500D01*
X417950Y512750D02*Y508250D01*
Y512750D02*X418700Y513500D01*
X420200D01*
X420950Y512750D01*
Y508250D01*
X420200Y507500D02*X420950Y508250D01*
X418700Y507500D02*X420200D01*
X417950Y509000D02*X420950Y512000D01*
X422750Y508250D02*X423500Y507500D01*
X422750Y512750D02*Y508250D01*
Y512750D02*X423500Y513500D01*
X425000D01*
X425750Y512750D01*
Y508250D01*
X425000Y507500D02*X425750Y508250D01*
X423500Y507500D02*X425000D01*
X422750Y509000D02*X425750Y512000D01*
X427550Y508250D02*X428300Y507500D01*
X427550Y512750D02*Y508250D01*
Y512750D02*X428300Y513500D01*
X429800D01*
X430550Y512750D01*
Y508250D01*
X429800Y507500D02*X430550Y508250D01*
X428300Y507500D02*X429800D01*
X427550Y509000D02*X430550Y512000D01*
X432350Y508250D02*X433100Y507500D01*
X432350Y512750D02*Y508250D01*
Y512750D02*X433100Y513500D01*
X434600D01*
X435350Y512750D01*
Y508250D01*
X434600Y507500D02*X435350Y508250D01*
X433100Y507500D02*X434600D01*
X432350Y509000D02*X435350Y512000D01*
X440600Y509750D02*Y507500D01*
Y509750D02*X441350Y510500D01*
X442100D01*
X442850Y509750D01*
Y507500D01*
Y509750D02*X443600Y510500D01*
X444350D01*
X445100Y509750D01*
Y507500D01*
X439850Y510500D02*X440600Y509750D01*
G54D67*X446900Y512000D02*Y511850D01*
G54D66*Y509750D02*Y507500D01*
X448400Y513500D02*Y508250D01*
X449150Y507500D01*
X451400D02*X453650D01*
X454400Y508250D01*
X453650Y509000D02*X454400Y508250D01*
X451400Y509000D02*X453650D01*
X450650Y509750D02*X451400Y509000D01*
X450650Y509750D02*X451400Y510500D01*
X453650D01*
X454400Y509750D01*
X450650Y508250D02*X451400Y507500D01*
X458900Y513500D02*Y507500D01*
Y509750D02*X459650Y510500D01*
X461150D01*
X461900Y509750D01*
Y507500D01*
G54D67*X463700Y512000D02*Y511850D01*
G54D66*Y509750D02*Y507500D01*
X467450Y510500D02*X468200Y509750D01*
X465950Y510500D02*X467450D01*
X465200Y509750D02*X465950Y510500D01*
X465200Y509750D02*Y508250D01*
X465950Y507500D01*
X467450D01*
X468200Y508250D01*
X465200Y506000D02*X465950Y505250D01*
X467450D01*
X468200Y506000D01*
Y510500D02*Y506000D01*
X470000Y513500D02*Y507500D01*
Y509750D02*X470750Y510500D01*
X472250D01*
X473000Y509750D01*
Y507500D01*
X97275Y-9500D02*X100275D01*
X101025Y-8750D01*
Y-6950D02*Y-8750D01*
X100275Y-6200D02*X101025Y-6950D01*
X98025Y-6200D02*X100275D01*
X98025Y-3500D02*Y-9500D01*
X97275Y-3500D02*X100275D01*
X101025Y-4250D01*
Y-5450D01*
X100275Y-6200D02*X101025Y-5450D01*
X102825Y-7250D02*Y-8750D01*
Y-7250D02*X103575Y-6500D01*
X105075D01*
X105825Y-7250D01*
Y-8750D01*
X105075Y-9500D02*X105825Y-8750D01*
X103575Y-9500D02*X105075D01*
X102825Y-8750D02*X103575Y-9500D01*
X109875Y-6500D02*X110625Y-7250D01*
X108375Y-6500D02*X109875D01*
X107625Y-7250D02*X108375Y-6500D01*
X107625Y-7250D02*Y-8750D01*
X108375Y-9500D01*
X110625Y-6500D02*Y-8750D01*
X111375Y-9500D01*
X108375D02*X109875D01*
X110625Y-8750D01*
X113925Y-7250D02*Y-9500D01*
Y-7250D02*X114675Y-6500D01*
X116175D01*
X113175D02*X113925Y-7250D01*
X120975Y-3500D02*Y-9500D01*
X120225D02*X120975Y-8750D01*
X118725Y-9500D02*X120225D01*
X117975Y-8750D02*X118725Y-9500D01*
X117975Y-7250D02*Y-8750D01*
Y-7250D02*X118725Y-6500D01*
X120225D01*
X120975Y-7250D01*
X125475D02*Y-8750D01*
Y-7250D02*X126225Y-6500D01*
X127725D01*
X128475Y-7250D01*
Y-8750D01*
X127725Y-9500D02*X128475Y-8750D01*
X126225Y-9500D02*X127725D01*
X125475Y-8750D02*X126225Y-9500D01*
X130275Y-6500D02*Y-8750D01*
X131025Y-9500D01*
X132525D01*
X133275Y-8750D01*
Y-6500D02*Y-8750D01*
X135825Y-3500D02*Y-8750D01*
X136575Y-9500D01*
X135075Y-5750D02*X136575D01*
X138075Y-3500D02*Y-8750D01*
X138825Y-9500D01*
G54D67*X140325Y-5000D02*Y-5150D01*
G54D66*Y-7250D02*Y-9500D01*
X142575Y-7250D02*Y-9500D01*
Y-7250D02*X143325Y-6500D01*
X144075D01*
X144825Y-7250D01*
Y-9500D01*
X141825Y-6500D02*X142575Y-7250D01*
X147375Y-9500D02*X149625D01*
X146625Y-8750D02*X147375Y-9500D01*
X146625Y-7250D02*Y-8750D01*
Y-7250D02*X147375Y-6500D01*
X148875D01*
X149625Y-7250D01*
X146625Y-8000D02*X149625D01*
Y-7250D02*Y-8000D01*
G54D67*X154125Y-5000D02*Y-5150D01*
G54D66*Y-7250D02*Y-9500D01*
X156375D02*X158625D01*
X159375Y-8750D01*
X158625Y-8000D02*X159375Y-8750D01*
X156375Y-8000D02*X158625D01*
X155625Y-7250D02*X156375Y-8000D01*
X155625Y-7250D02*X156375Y-6500D01*
X158625D01*
X159375Y-7250D01*
X155625Y-8750D02*X156375Y-9500D01*
X164625Y-3500D02*Y-8750D01*
X165375Y-9500D01*
X163875Y-5750D02*X165375D01*
X166875Y-3500D02*Y-9500D01*
Y-7250D02*X167625Y-6500D01*
X169125D01*
X169875Y-7250D01*
Y-9500D01*
X172425D02*X174675D01*
X171675Y-8750D02*X172425Y-9500D01*
X171675Y-7250D02*Y-8750D01*
Y-7250D02*X172425Y-6500D01*
X173925D01*
X174675Y-7250D01*
X171675Y-8000D02*X174675D01*
Y-7250D02*Y-8000D01*
X179925Y-6500D02*X182175D01*
X179175Y-7250D02*X179925Y-6500D01*
X179175Y-7250D02*Y-8750D01*
X179925Y-9500D01*
X182175D01*
X184725D02*X186975D01*
X183975Y-8750D02*X184725Y-9500D01*
X183975Y-7250D02*Y-8750D01*
Y-7250D02*X184725Y-6500D01*
X186225D01*
X186975Y-7250D01*
X183975Y-8000D02*X186975D01*
Y-7250D02*Y-8000D01*
X189525Y-7250D02*Y-9500D01*
Y-7250D02*X190275Y-6500D01*
X191025D01*
X191775Y-7250D01*
Y-9500D01*
X188775Y-6500D02*X189525Y-7250D01*
X194325Y-3500D02*Y-8750D01*
X195075Y-9500D01*
X193575Y-5750D02*X195075D01*
X197325Y-9500D02*X199575D01*
X196575Y-8750D02*X197325Y-9500D01*
X196575Y-7250D02*Y-8750D01*
Y-7250D02*X197325Y-6500D01*
X198825D01*
X199575Y-7250D01*
X196575Y-8000D02*X199575D01*
Y-7250D02*Y-8000D01*
X202125Y-7250D02*Y-9500D01*
Y-7250D02*X202875Y-6500D01*
X204375D01*
X201375D02*X202125Y-7250D01*
X206175Y-3500D02*Y-8750D01*
X206925Y-9500D01*
G54D67*X208425Y-5000D02*Y-5150D01*
G54D66*Y-7250D02*Y-9500D01*
X210675Y-7250D02*Y-9500D01*
Y-7250D02*X211425Y-6500D01*
X212175D01*
X212925Y-7250D01*
Y-9500D01*
X209925Y-6500D02*X210675Y-7250D01*
X215475Y-9500D02*X217725D01*
X214725Y-8750D02*X215475Y-9500D01*
X214725Y-7250D02*Y-8750D01*
Y-7250D02*X215475Y-6500D01*
X216975D01*
X217725Y-7250D01*
X214725Y-8000D02*X217725D01*
Y-7250D02*Y-8000D01*
X222225Y-7250D02*Y-8750D01*
Y-7250D02*X222975Y-6500D01*
X224475D01*
X225225Y-7250D01*
Y-8750D01*
X224475Y-9500D02*X225225Y-8750D01*
X222975Y-9500D02*X224475D01*
X222225Y-8750D02*X222975Y-9500D01*
X227775Y-4250D02*Y-9500D01*
Y-4250D02*X228525Y-3500D01*
X229275D01*
X227025Y-6500D02*X228525D01*
X234225Y-3500D02*Y-8750D01*
X234975Y-9500D01*
X233475Y-5750D02*X234975D01*
X236475Y-3500D02*Y-9500D01*
Y-7250D02*X237225Y-6500D01*
X238725D01*
X239475Y-7250D01*
Y-9500D01*
G54D67*X241275Y-5000D02*Y-5150D01*
G54D66*Y-7250D02*Y-9500D01*
X243525D02*X245775D01*
X246525Y-8750D01*
X245775Y-8000D02*X246525Y-8750D01*
X243525Y-8000D02*X245775D01*
X242775Y-7250D02*X243525Y-8000D01*
X242775Y-7250D02*X243525Y-6500D01*
X245775D01*
X246525Y-7250D01*
X242775Y-8750D02*X243525Y-9500D01*
X251025Y-8750D02*X251775Y-9500D01*
X251025Y-7550D02*Y-8750D01*
Y-7550D02*X252075Y-6500D01*
X252975D01*
X254025Y-7550D01*
Y-8750D01*
X253275Y-9500D02*X254025Y-8750D01*
X251775Y-9500D02*X253275D01*
X251025Y-5450D02*X252075Y-6500D01*
X251025Y-4250D02*Y-5450D01*
Y-4250D02*X251775Y-3500D01*
X253275D01*
X254025Y-4250D01*
Y-5450D01*
X252975Y-6500D02*X254025Y-5450D01*
X255825Y-9500D02*X256575D01*
X258375Y-8750D02*X259125Y-9500D01*
X258375Y-4250D02*Y-8750D01*
Y-4250D02*X259125Y-3500D01*
X260625D01*
X261375Y-4250D01*
Y-8750D01*
X260625Y-9500D02*X261375Y-8750D01*
X259125Y-9500D02*X260625D01*
X258375Y-8000D02*X261375Y-5000D01*
X263175Y-8750D02*X263925Y-9500D01*
X263175Y-4250D02*Y-8750D01*
Y-4250D02*X263925Y-3500D01*
X265425D01*
X266175Y-4250D01*
Y-8750D01*
X265425Y-9500D02*X266175Y-8750D01*
X263925Y-9500D02*X265425D01*
X263175Y-8000D02*X266175Y-5000D01*
X267975Y-8750D02*X268725Y-9500D01*
X267975Y-4250D02*Y-8750D01*
Y-4250D02*X268725Y-3500D01*
X270225D01*
X270975Y-4250D01*
Y-8750D01*
X270225Y-9500D02*X270975Y-8750D01*
X268725Y-9500D02*X270225D01*
X267975Y-8000D02*X270975Y-5000D01*
X272775Y-8750D02*X273525Y-9500D01*
X272775Y-4250D02*Y-8750D01*
Y-4250D02*X273525Y-3500D01*
X275025D01*
X275775Y-4250D01*
Y-8750D01*
X275025Y-9500D02*X275775Y-8750D01*
X273525Y-9500D02*X275025D01*
X272775Y-8000D02*X275775Y-5000D01*
X277575Y-8750D02*X278325Y-9500D01*
X277575Y-4250D02*Y-8750D01*
Y-4250D02*X278325Y-3500D01*
X279825D01*
X280575Y-4250D01*
Y-8750D01*
X279825Y-9500D02*X280575Y-8750D01*
X278325Y-9500D02*X279825D01*
X277575Y-8000D02*X280575Y-5000D01*
X282375Y-8750D02*X283125Y-9500D01*
X282375Y-4250D02*Y-8750D01*
Y-4250D02*X283125Y-3500D01*
X284625D01*
X285375Y-4250D01*
Y-8750D01*
X284625Y-9500D02*X285375Y-8750D01*
X283125Y-9500D02*X284625D01*
X282375Y-8000D02*X285375Y-5000D01*
X290625Y-7250D02*Y-9500D01*
Y-7250D02*X291375Y-6500D01*
X292125D01*
X292875Y-7250D01*
Y-9500D01*
Y-7250D02*X293625Y-6500D01*
X294375D01*
X295125Y-7250D01*
Y-9500D01*
X289875Y-6500D02*X290625Y-7250D01*
G54D67*X296925Y-5000D02*Y-5150D01*
G54D66*Y-7250D02*Y-9500D01*
X298425Y-3500D02*Y-8750D01*
X299175Y-9500D01*
X304125Y-7250D02*Y-9500D01*
Y-7250D02*X304875Y-6500D01*
X306375D01*
X303375D02*X304125Y-7250D01*
X308925Y-9500D02*X311175D01*
X308175Y-8750D02*X308925Y-9500D01*
X308175Y-7250D02*Y-8750D01*
Y-7250D02*X308925Y-6500D01*
X310425D01*
X311175Y-7250D01*
X308175Y-8000D02*X311175D01*
Y-7250D02*Y-8000D01*
X313725Y-6500D02*X315975D01*
X312975Y-7250D02*X313725Y-6500D01*
X312975Y-7250D02*Y-8750D01*
X313725Y-9500D01*
X315975D01*
X318525Y-3500D02*Y-8750D01*
X319275Y-9500D01*
X317775Y-5750D02*X319275D01*
X323025Y-6500D02*X323775Y-7250D01*
X321525Y-6500D02*X323025D01*
X320775Y-7250D02*X321525Y-6500D01*
X320775Y-7250D02*Y-8750D01*
X321525Y-9500D01*
X323775Y-6500D02*Y-8750D01*
X324525Y-9500D01*
X321525D02*X323025D01*
X323775Y-8750D01*
X327075Y-7250D02*Y-9500D01*
Y-7250D02*X327825Y-6500D01*
X328575D01*
X329325Y-7250D01*
Y-9500D01*
X326325Y-6500D02*X327075Y-7250D01*
X333375Y-6500D02*X334125Y-7250D01*
X331875Y-6500D02*X333375D01*
X331125Y-7250D02*X331875Y-6500D01*
X331125Y-7250D02*Y-8750D01*
X331875Y-9500D01*
X333375D01*
X334125Y-8750D01*
X331125Y-11000D02*X331875Y-11750D01*
X333375D01*
X334125Y-11000D01*
Y-6500D02*Y-11000D01*
X335925Y-3500D02*Y-8750D01*
X336675Y-9500D01*
X338925D02*X341175D01*
X338175Y-8750D02*X338925Y-9500D01*
X338175Y-7250D02*Y-8750D01*
Y-7250D02*X338925Y-6500D01*
X340425D01*
X341175Y-7250D01*
X338175Y-8000D02*X341175D01*
Y-7250D02*Y-8000D01*
X345675Y-6500D02*X348675D01*
X353175Y-8750D02*X353925Y-9500D01*
X353175Y-4250D02*Y-8750D01*
Y-4250D02*X353925Y-3500D01*
X355425D01*
X356175Y-4250D01*
Y-8750D01*
X355425Y-9500D02*X356175Y-8750D01*
X353925Y-9500D02*X355425D01*
X353175Y-8000D02*X356175Y-5000D01*
X357975Y-11000D02*X359475Y-9500D01*
X361275Y-8750D02*X362025Y-9500D01*
X361275Y-4250D02*Y-8750D01*
Y-4250D02*X362025Y-3500D01*
X363525D01*
X364275Y-4250D01*
Y-8750D01*
X363525Y-9500D02*X364275Y-8750D01*
X362025Y-9500D02*X363525D01*
X361275Y-8000D02*X364275Y-5000D01*
X369525Y-3500D02*Y-8750D01*
X370275Y-9500D01*
X368775Y-5750D02*X370275D01*
X371775Y-7250D02*Y-8750D01*
Y-7250D02*X372525Y-6500D01*
X374025D01*
X374775Y-7250D01*
Y-8750D01*
X374025Y-9500D02*X374775Y-8750D01*
X372525Y-9500D02*X374025D01*
X371775Y-8750D02*X372525Y-9500D01*
X381525Y-3500D02*X382275Y-4250D01*
X380025Y-3500D02*X381525D01*
X379275Y-4250D02*X380025Y-3500D01*
X379275Y-4250D02*Y-8750D01*
X380025Y-9500D01*
X381525Y-6200D02*X382275Y-6950D01*
X379275Y-6200D02*X381525D01*
X380025Y-9500D02*X381525D01*
X382275Y-8750D01*
Y-6950D02*Y-8750D01*
X384075D02*X384825Y-9500D01*
X384075Y-4250D02*Y-8750D01*
Y-4250D02*X384825Y-3500D01*
X386325D01*
X387075Y-4250D01*
Y-8750D01*
X386325Y-9500D02*X387075Y-8750D01*
X384825Y-9500D02*X386325D01*
X384075Y-8000D02*X387075Y-5000D01*
X388875Y-8750D02*X389625Y-9500D01*
X388875Y-4250D02*Y-8750D01*
Y-4250D02*X389625Y-3500D01*
X391125D01*
X391875Y-4250D01*
Y-8750D01*
X391125Y-9500D02*X391875Y-8750D01*
X389625Y-9500D02*X391125D01*
X388875Y-8000D02*X391875Y-5000D01*
X393675Y-8750D02*X394425Y-9500D01*
X393675Y-4250D02*Y-8750D01*
Y-4250D02*X394425Y-3500D01*
X395925D01*
X396675Y-4250D01*
Y-8750D01*
X395925Y-9500D02*X396675Y-8750D01*
X394425Y-9500D02*X395925D01*
X393675Y-8000D02*X396675Y-5000D01*
X398475Y-9500D02*X399225D01*
X401025Y-8750D02*X401775Y-9500D01*
X401025Y-4250D02*Y-8750D01*
Y-4250D02*X401775Y-3500D01*
X403275D01*
X404025Y-4250D01*
Y-8750D01*
X403275Y-9500D02*X404025Y-8750D01*
X401775Y-9500D02*X403275D01*
X401025Y-8000D02*X404025Y-5000D01*
X405825Y-8750D02*X406575Y-9500D01*
X405825Y-4250D02*Y-8750D01*
Y-4250D02*X406575Y-3500D01*
X408075D01*
X408825Y-4250D01*
Y-8750D01*
X408075Y-9500D02*X408825Y-8750D01*
X406575Y-9500D02*X408075D01*
X405825Y-8000D02*X408825Y-5000D01*
X410625Y-8750D02*X411375Y-9500D01*
X410625Y-4250D02*Y-8750D01*
Y-4250D02*X411375Y-3500D01*
X412875D01*
X413625Y-4250D01*
Y-8750D01*
X412875Y-9500D02*X413625Y-8750D01*
X411375Y-9500D02*X412875D01*
X410625Y-8000D02*X413625Y-5000D01*
X415425Y-8750D02*X416175Y-9500D01*
X415425Y-4250D02*Y-8750D01*
Y-4250D02*X416175Y-3500D01*
X417675D01*
X418425Y-4250D01*
Y-8750D01*
X417675Y-9500D02*X418425Y-8750D01*
X416175Y-9500D02*X417675D01*
X415425Y-8000D02*X418425Y-5000D01*
X420225Y-8750D02*X420975Y-9500D01*
X420225Y-4250D02*Y-8750D01*
Y-4250D02*X420975Y-3500D01*
X422475D01*
X423225Y-4250D01*
Y-8750D01*
X422475Y-9500D02*X423225Y-8750D01*
X420975Y-9500D02*X422475D01*
X420225Y-8000D02*X423225Y-5000D01*
X425025Y-8750D02*X425775Y-9500D01*
X425025Y-4250D02*Y-8750D01*
Y-4250D02*X425775Y-3500D01*
X427275D01*
X428025Y-4250D01*
Y-8750D01*
X427275Y-9500D02*X428025Y-8750D01*
X425775Y-9500D02*X427275D01*
X425025Y-8000D02*X428025Y-5000D01*
X429825Y-11000D02*X431325Y-9500D01*
X433125Y-3500D02*X436125D01*
X433125D02*Y-6500D01*
X433875Y-5750D01*
X435375D01*
X436125Y-6500D01*
Y-8750D01*
X435375Y-9500D02*X436125Y-8750D01*
X433875Y-9500D02*X435375D01*
X433125Y-8750D02*X433875Y-9500D01*
X437925Y-8750D02*X438675Y-9500D01*
X437925Y-4250D02*Y-8750D01*
Y-4250D02*X438675Y-3500D01*
X440175D01*
X440925Y-4250D01*
Y-8750D01*
X440175Y-9500D02*X440925Y-8750D01*
X438675Y-9500D02*X440175D01*
X437925Y-8000D02*X440925Y-5000D01*
X442725Y-8750D02*X443475Y-9500D01*
X442725Y-4250D02*Y-8750D01*
Y-4250D02*X443475Y-3500D01*
X444975D01*
X445725Y-4250D01*
Y-8750D01*
X444975Y-9500D02*X445725Y-8750D01*
X443475Y-9500D02*X444975D01*
X442725Y-8000D02*X445725Y-5000D01*
X447525Y-8750D02*X448275Y-9500D01*
X447525Y-4250D02*Y-8750D01*
Y-4250D02*X448275Y-3500D01*
X449775D01*
X450525Y-4250D01*
Y-8750D01*
X449775Y-9500D02*X450525Y-8750D01*
X448275Y-9500D02*X449775D01*
X447525Y-8000D02*X450525Y-5000D01*
X452325Y-9500D02*X453075D01*
X454875Y-8750D02*X455625Y-9500D01*
X454875Y-4250D02*Y-8750D01*
Y-4250D02*X455625Y-3500D01*
X457125D01*
X457875Y-4250D01*
Y-8750D01*
X457125Y-9500D02*X457875Y-8750D01*
X455625Y-9500D02*X457125D01*
X454875Y-8000D02*X457875Y-5000D01*
X459675Y-8750D02*X460425Y-9500D01*
X459675Y-4250D02*Y-8750D01*
Y-4250D02*X460425Y-3500D01*
X461925D01*
X462675Y-4250D01*
Y-8750D01*
X461925Y-9500D02*X462675Y-8750D01*
X460425Y-9500D02*X461925D01*
X459675Y-8000D02*X462675Y-5000D01*
X464475Y-8750D02*X465225Y-9500D01*
X464475Y-4250D02*Y-8750D01*
Y-4250D02*X465225Y-3500D01*
X466725D01*
X467475Y-4250D01*
Y-8750D01*
X466725Y-9500D02*X467475Y-8750D01*
X465225Y-9500D02*X466725D01*
X464475Y-8000D02*X467475Y-5000D01*
X469275Y-8750D02*X470025Y-9500D01*
X469275Y-4250D02*Y-8750D01*
Y-4250D02*X470025Y-3500D01*
X471525D01*
X472275Y-4250D01*
Y-8750D01*
X471525Y-9500D02*X472275Y-8750D01*
X470025Y-9500D02*X471525D01*
X469275Y-8000D02*X472275Y-5000D01*
X474075Y-8750D02*X474825Y-9500D01*
X474075Y-4250D02*Y-8750D01*
Y-4250D02*X474825Y-3500D01*
X476325D01*
X477075Y-4250D01*
Y-8750D01*
X476325Y-9500D02*X477075Y-8750D01*
X474825Y-9500D02*X476325D01*
X474075Y-8000D02*X477075Y-5000D01*
X478875Y-8750D02*X479625Y-9500D01*
X478875Y-4250D02*Y-8750D01*
Y-4250D02*X479625Y-3500D01*
X481125D01*
X481875Y-4250D01*
Y-8750D01*
X481125Y-9500D02*X481875Y-8750D01*
X479625Y-9500D02*X481125D01*
X478875Y-8000D02*X481875Y-5000D01*
X487125Y-7250D02*Y-9500D01*
Y-7250D02*X487875Y-6500D01*
X488625D01*
X489375Y-7250D01*
Y-9500D01*
Y-7250D02*X490125Y-6500D01*
X490875D01*
X491625Y-7250D01*
Y-9500D01*
X486375Y-6500D02*X487125Y-7250D01*
G54D67*X493425Y-5000D02*Y-5150D01*
G54D66*Y-7250D02*Y-9500D01*
X494925Y-3500D02*Y-8750D01*
X495675Y-9500D01*
X497925D02*X500175D01*
X500925Y-8750D01*
X500175Y-8000D02*X500925Y-8750D01*
X497925Y-8000D02*X500175D01*
X497175Y-7250D02*X497925Y-8000D01*
X497175Y-7250D02*X497925Y-6500D01*
X500175D01*
X500925Y-7250D01*
X497175Y-8750D02*X497925Y-9500D01*
X200750Y528500D02*Y522500D01*
X202700Y528500D02*X203750Y527450D01*
Y523550D01*
X202700Y522500D02*X203750Y523550D01*
X200000Y522500D02*X202700D01*
X200000Y528500D02*X202700D01*
X207800Y525500D02*X208550Y524750D01*
X206300Y525500D02*X207800D01*
X205550Y524750D02*X206300Y525500D01*
X205550Y524750D02*Y523250D01*
X206300Y522500D01*
X208550Y525500D02*Y523250D01*
X209300Y522500D01*
X206300D02*X207800D01*
X208550Y523250D01*
X211850Y528500D02*Y523250D01*
X212600Y522500D01*
X211100Y526250D02*X212600D01*
X214850Y522500D02*X217100D01*
X214100Y523250D02*X214850Y522500D01*
X214100Y524750D02*Y523250D01*
Y524750D02*X214850Y525500D01*
X216350D01*
X217100Y524750D01*
X214100Y524000D02*X217100D01*
Y524750D02*Y524000D01*
X218900Y526250D02*X219650D01*
X218900Y524750D02*X219650D01*
X227150Y528500D02*X227900Y527750D01*
X224900Y528500D02*X227150D01*
X224150Y527750D02*X224900Y528500D01*
X224150Y527750D02*Y526250D01*
X224900Y525500D01*
X227150D01*
X227900Y524750D01*
Y523250D01*
X227150Y522500D02*X227900Y523250D01*
X224900Y522500D02*X227150D01*
X224150Y523250D02*X224900Y522500D01*
X231950Y525500D02*X232700Y524750D01*
X230450Y525500D02*X231950D01*
X229700Y524750D02*X230450Y525500D01*
X229700Y524750D02*Y523250D01*
X230450Y522500D01*
X232700Y525500D02*Y523250D01*
X233450Y522500D01*
X230450D02*X231950D01*
X232700Y523250D01*
X236000Y528500D02*Y523250D01*
X236750Y522500D01*
X235250Y526250D02*X236750D01*
X243950Y528500D02*X244700Y527750D01*
X241700Y528500D02*X243950D01*
X240950Y527750D02*X241700Y528500D01*
X240950Y527750D02*Y526250D01*
X241700Y525500D01*
X243950D01*
X244700Y524750D01*
Y523250D01*
X243950Y522500D02*X244700Y523250D01*
X241700Y522500D02*X243950D01*
X240950Y523250D02*X241700Y522500D01*
X247250D02*X249500D01*
X246500Y523250D02*X247250Y522500D01*
X246500Y524750D02*Y523250D01*
Y524750D02*X247250Y525500D01*
X248750D01*
X249500Y524750D01*
X246500Y524000D02*X249500D01*
Y524750D02*Y524000D01*
X252050Y524750D02*Y520250D01*
X251300Y525500D02*X252050Y524750D01*
X252800Y525500D01*
X254300D01*
X255050Y524750D01*
Y523250D01*
X254300Y522500D02*X255050Y523250D01*
X252800Y522500D02*X254300D01*
X252050Y523250D02*X252800Y522500D01*
X259550Y527300D02*X260750Y528500D01*
Y522500D01*
X259550D02*X261800D01*
X263600Y528500D02*X266600D01*
X263600D02*Y525500D01*
X264350Y526250D01*
X265850D01*
X266600Y525500D01*
Y523250D01*
X265850Y522500D02*X266600Y523250D01*
X264350Y522500D02*X265850D01*
X263600Y523250D02*X264350Y522500D01*
X271100Y527300D02*X272300Y528500D01*
Y522500D01*
X271100D02*X273350D01*
X275150Y527750D02*X275900Y528500D01*
X278150D01*
X278900Y527750D01*
Y526250D01*
X275150Y522500D02*X278900Y526250D01*
X275150Y522500D02*X278900D01*
X280700Y526250D02*X281450D01*
X280700Y524750D02*X281450D01*
X283250Y528500D02*X286250D01*
X283250D02*Y525500D01*
X284000Y526250D01*
X285500D01*
X286250Y525500D01*
Y523250D01*
X285500Y522500D02*X286250Y523250D01*
X284000Y522500D02*X285500D01*
X283250Y523250D02*X284000Y522500D01*
X288800D02*X291050Y525500D01*
Y527750D02*Y525500D01*
X290300Y528500D02*X291050Y527750D01*
X288800Y528500D02*X290300D01*
X288050Y527750D02*X288800Y528500D01*
X288050Y527750D02*Y526250D01*
X288800Y525500D01*
X291050D01*
X292850Y526250D02*X293600D01*
X292850Y524750D02*X293600D01*
X295400Y527750D02*X296150Y528500D01*
X297650D01*
X298400Y527750D01*
X297650Y522500D02*X298400Y523250D01*
X296150Y522500D02*X297650D01*
X295400Y523250D02*X296150Y522500D01*
Y525800D02*X297650D01*
X298400Y527750D02*Y526550D01*
Y525050D02*Y523250D01*
Y525050D02*X297650Y525800D01*
X298400Y526550D02*X297650Y525800D01*
X300200Y524750D02*X303200Y528500D01*
X300200Y524750D02*X303950D01*
X303200Y528500D02*Y522500D01*
X308450Y527750D02*X309200Y528500D01*
X311450D01*
X312200Y527750D01*
Y526250D01*
X308450Y522500D02*X312200Y526250D01*
X308450Y522500D02*X312200D01*
X314000Y523250D02*X314750Y522500D01*
X314000Y527750D02*Y523250D01*
Y527750D02*X314750Y528500D01*
X316250D01*
X317000Y527750D01*
Y523250D01*
X316250Y522500D02*X317000Y523250D01*
X314750Y522500D02*X316250D01*
X314000Y524000D02*X317000Y527000D01*
X318800Y527300D02*X320000Y528500D01*
Y522500D01*
X318800D02*X321050D01*
X322850Y523250D02*X323600Y522500D01*
X322850Y524450D02*Y523250D01*
Y524450D02*X323900Y525500D01*
X324800D01*
X325850Y524450D01*
Y523250D01*
X325100Y522500D02*X325850Y523250D01*
X323600Y522500D02*X325100D01*
X322850Y526550D02*X323900Y525500D01*
X322850Y527750D02*Y526550D01*
Y527750D02*X323600Y528500D01*
X325100D01*
X325850Y527750D01*
Y526550D01*
X324800Y525500D02*X325850Y526550D01*
X330350Y528500D02*Y523250D01*
X331100Y522500D01*
X332600D01*
X333350Y523250D01*
Y528500D02*Y523250D01*
X335150Y528500D02*X338150D01*
X336650D02*Y522500D01*
X341000D02*X342950D01*
X339950Y523550D02*X341000Y522500D01*
X339950Y527450D02*Y523550D01*
Y527450D02*X341000Y528500D01*
X342950D01*
X200000Y542000D02*Y537500D01*
Y542000D02*X201050Y543500D01*
X202700D01*
X203750Y542000D01*
Y537500D01*
X200000Y540500D02*X203750D01*
X205550D02*Y538250D01*
X206300Y537500D01*
X207800D01*
X208550Y538250D01*
Y540500D02*Y538250D01*
X211100Y543500D02*Y538250D01*
X211850Y537500D01*
X210350Y541250D02*X211850D01*
X213350Y543500D02*Y537500D01*
Y539750D02*X214100Y540500D01*
X215600D01*
X216350Y539750D01*
Y537500D01*
X218150Y539750D02*Y538250D01*
Y539750D02*X218900Y540500D01*
X220400D01*
X221150Y539750D01*
Y538250D01*
X220400Y537500D02*X221150Y538250D01*
X218900Y537500D02*X220400D01*
X218150Y538250D02*X218900Y537500D01*
X223700Y539750D02*Y537500D01*
Y539750D02*X224450Y540500D01*
X225950D01*
X222950D02*X223700Y539750D01*
X227750Y541250D02*X228500D01*
X227750Y539750D02*X228500D01*
X233000Y543500D02*Y537500D01*
Y543500D02*X235250Y540500D01*
X237500Y543500D01*
Y537500D01*
X239300Y540500D02*Y538250D01*
X240050Y537500D01*
X242300Y540500D02*Y536000D01*
X241550Y535250D02*X242300Y536000D01*
X240050Y535250D02*X241550D01*
X239300Y536000D02*X240050Y535250D01*
Y537500D02*X241550D01*
X242300Y538250D01*
X244850Y543500D02*Y538250D01*
X245600Y537500D01*
X244100Y541250D02*X245600D01*
X247850Y540500D02*X250100D01*
X247100Y539750D02*X247850Y540500D01*
X247100Y539750D02*Y538250D01*
X247850Y537500D01*
X250100D01*
X251900Y543500D02*Y537500D01*
Y539750D02*X252650Y540500D01*
X254150D01*
X254900Y539750D01*
Y537500D01*
X257450D02*X259700D01*
X256700Y538250D02*X257450Y537500D01*
X256700Y539750D02*Y538250D01*
Y539750D02*X257450Y540500D01*
X258950D01*
X259700Y539750D01*
X256700Y539000D02*X259700D01*
Y539750D02*Y539000D01*
X261500Y543500D02*Y538250D01*
X262250Y537500D01*
X266450Y543500D02*Y537500D01*
X270200Y543500D02*Y537500D01*
X266450Y540500D02*X270200D01*
X274250D02*X275000Y539750D01*
X272750Y540500D02*X274250D01*
X272000Y539750D02*X272750Y540500D01*
X272000Y539750D02*Y538250D01*
X272750Y537500D01*
X275000Y540500D02*Y538250D01*
X275750Y537500D01*
X272750D02*X274250D01*
X275000Y538250D01*
X278300Y539750D02*Y537500D01*
Y539750D02*X279050Y540500D01*
X279800D01*
X280550Y539750D01*
Y537500D01*
Y539750D02*X281300Y540500D01*
X282050D01*
X282800Y539750D01*
Y537500D01*
X277550Y540500D02*X278300Y539750D01*
X285350D02*Y537500D01*
Y539750D02*X286100Y540500D01*
X286850D01*
X287600Y539750D01*
Y537500D01*
Y539750D02*X288350Y540500D01*
X289100D01*
X289850Y539750D01*
Y537500D01*
X284600Y540500D02*X285350Y539750D01*
X291650D02*Y538250D01*
Y539750D02*X292400Y540500D01*
X293900D01*
X294650Y539750D01*
Y538250D01*
X293900Y537500D02*X294650Y538250D01*
X292400Y537500D02*X293900D01*
X291650Y538250D02*X292400Y537500D01*
X297200Y539750D02*Y537500D01*
Y539750D02*X297950Y540500D01*
X298700D01*
X299450Y539750D01*
Y537500D01*
X296450Y540500D02*X297200Y539750D01*
X304250Y543500D02*Y537500D01*
X303500D02*X304250Y538250D01*
X302000Y537500D02*X303500D01*
X301250Y538250D02*X302000Y537500D01*
X301250Y539750D02*Y538250D01*
Y539750D02*X302000Y540500D01*
X303500D01*
X304250Y539750D01*
X200000Y558500D02*X203000D01*
X201500D02*Y552500D01*
G54D67*X204800Y557000D02*Y556850D01*
G54D66*Y554750D02*Y552500D01*
X207050Y558500D02*Y553250D01*
X207800Y552500D01*
X206300Y556250D02*X207800D01*
X209300Y558500D02*Y553250D01*
X210050Y552500D01*
X212300D02*X214550D01*
X211550Y553250D02*X212300Y552500D01*
X211550Y554750D02*Y553250D01*
Y554750D02*X212300Y555500D01*
X213800D01*
X214550Y554750D01*
X211550Y554000D02*X214550D01*
Y554750D02*Y554000D01*
X216350Y556250D02*X217100D01*
X216350Y554750D02*X217100D01*
X221600Y553250D02*X222350Y552500D01*
X221600Y557750D02*X222350Y558500D01*
X221600Y557750D02*Y553250D01*
X224150Y555500D02*Y553250D01*
X224900Y552500D01*
X226400D01*
X227150Y553250D01*
Y555500D02*Y553250D01*
X229700Y554750D02*Y552500D01*
Y554750D02*X230450Y555500D01*
X231200D01*
X231950Y554750D01*
Y552500D01*
X228950Y555500D02*X229700Y554750D01*
X233750Y558500D02*Y552500D01*
Y554750D02*X236000Y552500D01*
X233750Y554750D02*X235250Y556250D01*
X238550Y554750D02*Y552500D01*
Y554750D02*X239300Y555500D01*
X240050D01*
X240800Y554750D01*
Y552500D01*
X237800Y555500D02*X238550Y554750D01*
X242600D02*Y553250D01*
Y554750D02*X243350Y555500D01*
X244850D01*
X245600Y554750D01*
Y553250D01*
X244850Y552500D02*X245600Y553250D01*
X243350Y552500D02*X244850D01*
X242600Y553250D02*X243350Y552500D01*
X247400Y555500D02*Y553250D01*
X248150Y552500D01*
X248900D01*
X249650Y553250D01*
Y555500D02*Y553250D01*
X250400Y552500D01*
X251150D01*
X251900Y553250D01*
Y555500D02*Y553250D01*
X254450Y554750D02*Y552500D01*
Y554750D02*X255200Y555500D01*
X255950D01*
X256700Y554750D01*
Y552500D01*
X253700Y555500D02*X254450Y554750D01*
X258500Y558500D02*X259250Y557750D01*
Y553250D01*
X258500Y552500D02*X259250Y553250D01*
X263750Y555500D02*X266750D01*
X271250Y558500D02*Y552500D01*
Y558500D02*X274250D01*
X271250Y555800D02*X273500D01*
X278300Y555500D02*X279050Y554750D01*
X276800Y555500D02*X278300D01*
X276050Y554750D02*X276800Y555500D01*
X276050Y554750D02*Y553250D01*
X276800Y552500D01*
X279050Y555500D02*Y553250D01*
X279800Y552500D01*
X276800D02*X278300D01*
X279050Y553250D01*
X281600Y558500D02*Y552500D01*
Y553250D02*X282350Y552500D01*
X283850D01*
X284600Y553250D01*
Y554750D02*Y553250D01*
X283850Y555500D02*X284600Y554750D01*
X282350Y555500D02*X283850D01*
X281600Y554750D02*X282350Y555500D01*
X287150Y554750D02*Y552500D01*
Y554750D02*X287900Y555500D01*
X289400D01*
X286400D02*X287150Y554750D01*
G54D67*X291200Y557000D02*Y556850D01*
G54D66*Y554750D02*Y552500D01*
X293450Y555500D02*X295700D01*
X292700Y554750D02*X293450Y555500D01*
X292700Y554750D02*Y553250D01*
X293450Y552500D01*
X295700D01*
X299750Y555500D02*X300500Y554750D01*
X298250Y555500D02*X299750D01*
X297500Y554750D02*X298250Y555500D01*
X297500Y554750D02*Y553250D01*
X298250Y552500D01*
X300500Y555500D02*Y553250D01*
X301250Y552500D01*
X298250D02*X299750D01*
X300500Y553250D01*
X303800Y558500D02*Y553250D01*
X304550Y552500D01*
X303050Y556250D02*X304550D01*
G54D67*X306050Y557000D02*Y556850D01*
G54D66*Y554750D02*Y552500D01*
X307550Y554750D02*Y553250D01*
Y554750D02*X308300Y555500D01*
X309800D01*
X310550Y554750D01*
Y553250D01*
X309800Y552500D02*X310550Y553250D01*
X308300Y552500D02*X309800D01*
X307550Y553250D02*X308300Y552500D01*
X313100Y554750D02*Y552500D01*
Y554750D02*X313850Y555500D01*
X314600D01*
X315350Y554750D01*
Y552500D01*
X312350Y555500D02*X313100Y554750D01*
X320600Y558500D02*Y552500D01*
X322550Y558500D02*X323600Y557450D01*
Y553550D01*
X322550Y552500D02*X323600Y553550D01*
X319850Y552500D02*X322550D01*
X319850Y558500D02*X322550D01*
X326150Y554750D02*Y552500D01*
Y554750D02*X326900Y555500D01*
X328400D01*
X325400D02*X326150Y554750D01*
X332450Y555500D02*X333200Y554750D01*
X330950Y555500D02*X332450D01*
X330200Y554750D02*X330950Y555500D01*
X330200Y554750D02*Y553250D01*
X330950Y552500D01*
X333200Y555500D02*Y553250D01*
X333950Y552500D01*
X330950D02*X332450D01*
X333200Y553250D01*
X335750Y555500D02*Y553250D01*
X336500Y552500D01*
X337250D01*
X338000Y553250D01*
Y555500D02*Y553250D01*
X338750Y552500D01*
X339500D01*
X340250Y553250D01*
Y555500D02*Y553250D01*
G54D67*X342050Y557000D02*Y556850D01*
G54D66*Y554750D02*Y552500D01*
X344300Y554750D02*Y552500D01*
Y554750D02*X345050Y555500D01*
X345800D01*
X346550Y554750D01*
Y552500D01*
X343550Y555500D02*X344300Y554750D01*
X350600Y555500D02*X351350Y554750D01*
X349100Y555500D02*X350600D01*
X348350Y554750D02*X349100Y555500D01*
X348350Y554750D02*Y553250D01*
X349100Y552500D01*
X350600D01*
X351350Y553250D01*
X348350Y551000D02*X349100Y550250D01*
X350600D01*
X351350Y551000D01*
Y555500D02*Y551000D01*
M02*
