M48
INCH
T55C0.030
T54C0.043
T53C0.020
T52C0.038
%
T53
X028441Y012319
X028835Y007260
X029228Y012319
X029622Y007260
X030016Y012319
X030409Y007260
X030803Y012319
X031197Y007260
T55
X017594Y015059
X017594Y012059
T52
X002756Y013039
X002756Y012039
X002756Y011039
X002756Y010039
X002756Y009039
X002756Y008039
X002756Y007039
X002756Y006039
X005709Y016339
X005709Y015339
X005709Y014339
X005709Y013339
X005709Y012339
X005709Y011339
X005709Y010339
X005709Y009339
X005709Y008339
X005709Y007339
X005709Y006339
X005709Y005339
X005709Y004339
X005709Y003339
X011614Y016339
X011614Y015339
X011614Y014339
X011614Y013339
X011614Y012339
X011614Y011339
X011614Y010339
X011614Y009339
X011614Y008339
X011614Y007339
X011614Y006339
X011614Y005339
X011614Y004339
X011614Y003339
T54
X017602Y010335
X017602Y009335
M30
