G04 start of page 15 for group -4078 idx -4078 *
G04 Title: (unknown), bottomsilk *
G04 Creator: pcb 4.1.2 *
G04 CreationDate: Fri Sep 21 09:06:42 2018 UTC *
G04 For: mytch *
G04 Format: Gerber/RS-274X *
G04 PCB-Dimensions (mil): 3937.01 2755.91 *
G04 PCB-Coordinate-Origin: lower left *
%MOIN*%
%FSLAX25Y25*%
%LNBOTTOMSILK*%
%ADD86C,0.0100*%
G54D86*X9268Y165748D02*X13268D01*
X9268D02*X11268Y164248D01*
X9268Y162748D01*
X13268D01*
X11268Y161548D02*X12768D01*
X13268Y161048D01*
X11268Y159548D02*X14268D01*
X14768Y160048D02*X14268Y159548D01*
X14768Y160048D02*Y161048D01*
X14268Y161548D02*X14768Y161048D01*
X13268Y160048D02*Y161048D01*
Y160048D02*X12768Y159548D01*
X9268Y157848D02*X12768D01*
X13268Y157348D01*
X10768D02*Y158348D01*
X11268Y154348D02*Y155848D01*
X11768Y156348D02*X11268Y155848D01*
X11768Y156348D02*X12768D01*
X13268Y155848D01*
Y154348D02*Y155848D01*
X9268Y153148D02*X13268D01*
X11768D02*X11268Y152648D01*
Y151648D02*Y152648D01*
Y151648D02*X11768Y151148D01*
X13268D01*
Y147948D02*Y149448D01*
X12768Y149948D02*X13268Y149448D01*
X11768Y149948D02*X12768D01*
X11768D02*X11268Y149448D01*
Y148448D02*Y149448D01*
Y148448D02*X11768Y147948D01*
X12268D02*Y149948D01*
X11768Y147948D02*X12268D01*
X9268Y146748D02*X12768D01*
X13268Y146248D01*
X9268Y141448D02*Y143448D01*
Y142448D02*X13268D01*
X11768Y139748D02*X13268D01*
X11768D02*X11268Y139248D01*
Y138248D02*Y139248D01*
Y140248D02*X11768Y139748D01*
X11268Y135548D02*X11768Y135048D01*
X11268Y135548D02*Y136548D01*
X11768Y137048D02*X11268Y136548D01*
X11768Y137048D02*X12768D01*
X13268Y136548D01*
X11268Y135048D02*X12768D01*
X13268Y134548D01*
Y135548D02*Y136548D01*
Y135548D02*X12768Y135048D01*
X11268Y131348D02*Y132848D01*
X11768Y133348D02*X11268Y132848D01*
X11768Y133348D02*X12768D01*
X13268Y132848D01*
Y131348D02*Y132848D01*
X9268Y130148D02*X13268D01*
X11768D02*X13268Y128648D01*
X11768Y130148D02*X10768Y129148D01*
X9268Y127448D02*X13268D01*
X12768D02*X13268Y126948D01*
Y125948D02*Y126948D01*
Y125948D02*X12768Y125448D01*
X11768D02*X12768D01*
X11268Y125948D02*X11768Y125448D01*
X11268Y125948D02*Y126948D01*
X11768Y127448D02*X11268Y126948D01*
Y122748D02*X11768Y122248D01*
X11268Y122748D02*Y123748D01*
X11768Y124248D02*X11268Y123748D01*
X11768Y124248D02*X12768D01*
X13268Y123748D01*
X11268Y122248D02*X12768D01*
X13268Y121748D01*
Y122748D02*Y123748D01*
Y122748D02*X12768Y122248D01*
X9268Y120548D02*X12768D01*
X13268Y120048D01*
X9268Y119048D02*X12768D01*
X13268Y118548D01*
X11268Y115748D02*X13268Y114748D01*
X11268Y113748D02*X13268Y114748D01*
X9768Y112548D02*X9268Y112048D01*
Y110548D02*Y112048D01*
Y110548D02*X9768Y110048D01*
X10768D01*
X13268Y112548D02*X10768Y110048D01*
X13268D02*Y112548D01*
M02*
