G04 start of page 2 for group 0 idx 0 *
G04 Title: (unknown), top *
G04 Creator: pcb 4.1.2 *
G04 CreationDate: Fri Sep 21 09:06:42 2018 UTC *
G04 For: mytch *
G04 Format: Gerber/RS-274X *
G04 PCB-Dimensions (mil): 3937.01 2755.91 *
G04 PCB-Coordinate-Origin: lower left *
%MOIN*%
%FSLAX25Y25*%
%LNTOP*%
%ADD19C,0.0350*%
%ADD18C,0.0380*%
%ADD17C,0.1180*%
%ADD16C,0.0200*%
%ADD15C,0.0360*%
%ADD14C,0.0800*%
%ADD13C,0.0600*%
%ADD12C,0.0001*%
%ADD11C,0.0100*%
G54D11*X305512Y113071D02*X305276Y113307D01*
X291339Y113244D02*X291276Y113307D01*
X269961Y112992D02*X188583D01*
X298276Y113307D02*Y99063D01*
X286709Y87008D02*X298276Y98575D01*
Y99606D02*Y98575D01*
X269961Y112992D02*X270276Y113307D01*
X277276D01*
X277165Y113197D02*X277276Y113307D01*
Y108157D01*
X280315Y105118D01*
X288583D01*
X291339Y107874D01*
Y113244D01*
X284646Y163283D02*X284276Y162913D01*
Y168480D01*
X291276Y162913D02*Y165417D01*
X298276Y162913D02*X297717D01*
X230315Y87008D02*X286709D01*
X188189D02*X230709D01*
X101181Y232283D02*X86220Y217323D01*
X96063Y219291D02*X105118Y228346D01*
X170079Y190630D02*Y187402D01*
X194094Y209843D02*X170866D01*
X170079Y210630D01*
X127165Y190551D02*X118346D01*
X96850Y236220D02*X74803Y214173D01*
X224409Y228346D02*X105118D01*
X224409Y232283D02*X101181D01*
X224409Y236220D02*X96850D01*
X118346Y190551D02*X118110Y190787D01*
X270276Y162913D02*X241024D01*
X194094Y209843D01*
X284276Y168480D02*X224409Y228346D01*
X291276Y165417D02*X224409Y232283D01*
X297717Y162913D02*X224409Y236220D01*
X139370Y146850D02*X173228Y112992D01*
X190157D01*
X146100Y174342D02*X143375D01*
X150000Y166142D02*Y159055D01*
X150787Y158268D01*
X150000Y186614D02*Y184646D01*
X143375Y174342D02*X127165Y190551D01*
X146100Y174342D02*X142452D01*
X139370Y171260D01*
Y146850D01*
X150787Y158268D02*X169291D01*
X170079Y159055D01*
Y190551D01*
X150000Y184646D02*X153937Y180709D01*
Y174379D01*
X153900Y174342D01*
X96063Y99213D02*Y219291D01*
X86220Y217323D02*Y155512D01*
X74803Y98425D02*Y214173D01*
X21260Y101181D02*X31417D01*
X31496Y101260D01*
Y48425D01*
X37795Y42126D01*
X37598Y42323D02*X117913D01*
X118110Y90787D02*X104488D01*
X96063Y99213D01*
X117638Y80315D02*X118110Y80787D01*
X92441D01*
X74803Y98425D01*
X45276Y165354D02*Y156693D01*
X51181Y150787D01*
X59055D01*
X31496Y151260D02*X37717D01*
X45276Y143701D01*
X31339Y161417D02*X31496Y161260D01*
Y171260D02*X39370D01*
X45276Y165354D01*
X59055Y190787D02*X23858D01*
X21260Y188189D01*
Y161417D02*X31339D01*
X45276Y143701D02*Y141339D01*
X21260D02*X31417D01*
X31496Y141260D01*
X45276Y141339D02*X45669Y140945D01*
X31496Y111260D02*X35669D01*
X44882Y120472D01*
X21260Y188189D02*Y101181D01*
X45669Y140945D02*X58898D01*
X31496Y131260D02*X58583D01*
X59055Y130787D01*
X44882Y120472D02*X58740D01*
X59055Y120787D01*
X21260Y121260D02*X31496D01*
X58898Y140945D02*X59055Y140787D01*
X118110Y70787D02*Y42520D01*
X117717Y42126D01*
X117913Y42323D02*X118110Y42520D01*
Y42126D02*Y37008D01*
X146850Y38189D02*X146457Y38583D01*
X118110Y37008D02*X136614Y18504D01*
X146378D01*
X146457Y18583D01*
Y38583D02*X164173D01*
X164567Y38976D01*
X155118Y38583D02*Y53937D01*
X188189Y87008D01*
X146063Y18504D02*X164094D01*
X164567Y18976D01*
G54D12*G36*
X28496Y174260D02*Y168260D01*
X34496D01*
Y174260D01*
X28496D01*
G37*
G54D13*X31496Y161260D03*
Y151260D03*
X59055Y190787D03*
Y180787D03*
Y170787D03*
Y160787D03*
Y150787D03*
Y140787D03*
Y130787D03*
Y120787D03*
X31496Y141260D03*
Y131260D03*
Y121260D03*
Y111260D03*
Y101260D03*
G54D12*G36*
X56055Y203787D02*Y197787D01*
X62055D01*
Y203787D01*
X56055D01*
G37*
G36*
X115110D02*Y197787D01*
X121110D01*
Y203787D01*
X115110D01*
G37*
G54D14*X170079Y190630D03*
Y210630D03*
G54D13*X118110Y190787D03*
Y180787D03*
Y170787D03*
Y160787D03*
Y150787D03*
Y140787D03*
Y130787D03*
X59055Y110787D03*
Y100787D03*
Y90787D03*
Y80787D03*
Y70787D03*
X118110Y120787D03*
Y110787D03*
Y100787D03*
Y90787D03*
Y80787D03*
Y70787D03*
G54D14*X146457Y18583D03*
Y38583D03*
X164567Y18976D03*
Y38976D03*
G54D15*X270276Y162913D03*
Y113307D03*
X277276Y162913D03*
X284276D03*
X291276D03*
X298276D03*
X305276D03*
X312276D03*
X319276D03*
X277276Y113307D03*
X284276D03*
X291276D03*
X298276D03*
X305276D03*
X312276D03*
X319276D03*
G54D12*G36*
X155600Y176342D02*X152200D01*
Y172342D01*
X155600D01*
Y176342D01*
G37*
G36*
X147800D02*X144400D01*
Y172342D01*
X147800D01*
Y176342D01*
G37*
G36*
X151700Y168142D02*X148300D01*
Y164142D01*
X151700D01*
Y168142D01*
G37*
G54D15*X85827Y155512D03*
X150000Y186614D03*
G54D16*G54D17*G54D16*G54D18*G54D19*G54D18*G54D19*G54D16*M02*
