G04 start of page 12 for group -4063 idx -4063 *
G04 Title: (unknown), componentmask *
G04 Creator: pcb 4.1.2 *
G04 CreationDate: Fri Sep 21 09:06:42 2018 UTC *
G04 For: mytch *
G04 Format: Gerber/RS-274X *
G04 PCB-Dimensions (mil): 3937.01 2755.91 *
G04 PCB-Coordinate-Origin: lower left *
%MOIN*%
%FSLAX25Y25*%
%LNTOPMASK*%
%ADD79C,0.0260*%
%ADD78C,0.0420*%
%ADD77C,0.1100*%
%ADD76C,0.0660*%
%ADD75C,0.0001*%
G54D75*G36*
X28196Y174560D02*Y167960D01*
X34796D01*
Y174560D01*
X28196D01*
G37*
G54D76*X31496Y161260D03*
Y151260D03*
X59055Y190787D03*
Y180787D03*
Y170787D03*
Y160787D03*
Y150787D03*
Y140787D03*
Y130787D03*
Y120787D03*
X31496Y141260D03*
Y131260D03*
Y121260D03*
Y111260D03*
Y101260D03*
G54D75*G36*
X55755Y204087D02*Y197487D01*
X62355D01*
Y204087D01*
X55755D01*
G37*
G36*
X114810D02*Y197487D01*
X121410D01*
Y204087D01*
X114810D01*
G37*
G54D77*X170079Y190630D03*
Y210630D03*
G54D76*X118110Y190787D03*
Y180787D03*
Y170787D03*
Y160787D03*
Y150787D03*
Y140787D03*
Y130787D03*
X59055Y110787D03*
Y100787D03*
Y90787D03*
Y80787D03*
Y70787D03*
X118110Y120787D03*
Y110787D03*
Y100787D03*
Y90787D03*
Y80787D03*
Y70787D03*
G54D77*X146457Y18583D03*
Y38583D03*
X164567Y18976D03*
Y38976D03*
G54D78*X270276Y162913D03*
Y113307D03*
X277276Y162913D03*
X284276D03*
X291276D03*
X298276D03*
X305276D03*
X312276D03*
X319276D03*
X277276Y113307D03*
X284276D03*
X291276D03*
X298276D03*
X305276D03*
X312276D03*
X319276D03*
G54D79*X264764Y123031D03*
Y125197D03*
Y127362D03*
Y129528D03*
Y131693D03*
Y133858D03*
Y136024D03*
Y138189D03*
X292520Y123031D03*
X295276Y39370D03*
Y236220D03*
X290354Y123031D03*
X288189D03*
X286024D03*
X283858D03*
X281693D03*
X279528D03*
X277362D03*
X275197D03*
X273031D03*
X270866D03*
X268701D03*
X266732Y123622D03*
X264764Y140354D03*
Y142520D03*
Y144685D03*
Y146850D03*
Y149016D03*
Y151181D03*
Y153346D03*
X266732Y152165D03*
X325000Y122835D03*
X322835Y123031D03*
X320669D03*
X325000Y125000D03*
Y127165D03*
Y129331D03*
Y131496D03*
X318504Y123031D03*
X316339D03*
X314173D03*
X312008D03*
X325000Y133661D03*
Y135827D03*
Y137992D03*
Y140157D03*
Y142323D03*
Y144488D03*
Y146654D03*
Y148819D03*
Y150984D03*
Y153150D03*
X309843Y123031D03*
X307677D03*
X305512D03*
X303346D03*
X301181D03*
X299016D03*
X296850D03*
X294685D03*
X322835Y153150D03*
X320669D03*
X318504D03*
X316339D03*
X314173D03*
X312008D03*
X309843D03*
X307677D03*
X305512D03*
X303346D03*
X301181D03*
X299016D03*
X296850D03*
X294685D03*
X292520D03*
X290354D03*
X288189D03*
X286024D03*
X283858D03*
X281693D03*
X279528D03*
X277362D03*
X275197D03*
X273031D03*
X270866D03*
X268701D03*
G54D75*G36*
X155900Y176642D02*X151900D01*
Y172042D01*
X155900D01*
Y176642D01*
G37*
G36*
X148100D02*X144100D01*
Y172042D01*
X148100D01*
Y176642D01*
G37*
G36*
X152000Y168442D02*X148000D01*
Y163842D01*
X152000D01*
Y168442D01*
G37*
M02*
