G04 start of page 14 for group -4079 idx -4079 *
G04 Title: (unknown), topsilk *
G04 Creator: pcb 4.1.2 *
G04 CreationDate: Fri Sep 21 09:06:42 2018 UTC *
G04 For: mytch *
G04 Format: Gerber/RS-274X *
G04 PCB-Dimensions (mil): 3937.01 2755.91 *
G04 PCB-Coordinate-Origin: lower left *
%MOIN*%
%FSLAX25Y25*%
%LNTOPSILK*%
%ADD85C,0.0100*%
G54D85*X174579Y190630D02*X175079D01*
Y210630D02*Y190630D01*
X174579Y210630D02*X175079D01*
X165079D02*X165579D01*
X165079D02*Y190630D01*
X165579D01*
X150957Y18583D02*X151457D01*
Y38583D02*Y18583D01*
X150957Y38583D02*X151457D01*
X141457D02*X141957D01*
X141457D02*Y18583D01*
X141957D01*
X169067Y18976D02*X169567D01*
Y38976D02*Y18976D01*
X169067Y38976D02*X169567D01*
X159567D02*X160067D01*
X159567D02*Y18976D01*
X160067D01*
X156400Y177242D02*Y163342D01*
X143600Y177242D02*X156400D01*
X143600D02*Y163342D01*
X156400D01*
X26496Y176260D02*Y96260D01*
X36496D01*
Y176260D01*
X26496D01*
Y166260D02*X36496D01*
Y176260D01*
X54055Y205787D02*Y65787D01*
X64055D01*
Y205787D01*
X54055D01*
Y195787D02*X64055D01*
Y205787D01*
X113110D02*Y65787D01*
X123110D01*
Y205787D01*
X113110D01*
Y195787D02*X123110D01*
Y205787D01*
X264252Y166457D02*X325669D01*
Y109764D01*
X264252D01*
Y166457D01*
Y153858D02*X325669D01*
X264252Y122362D02*X325669D01*
X21496Y175560D02*Y174260D01*
X22196Y176260D02*X21496Y175560D01*
X22196Y176260D02*X24796D01*
X25496Y175560D01*
Y174260D01*
X21996Y173060D02*X24996D01*
X25496Y172560D01*
Y171560D01*
X24996Y171060D01*
X21996D02*X24996D01*
X21496Y171560D02*X21996Y171060D01*
X21496Y172560D02*Y171560D01*
X21996Y173060D02*X21496Y172560D01*
Y169860D02*X25496D01*
X21496Y167360D01*
X25496D01*
X21496Y166160D02*X25496D01*
X21496Y163660D01*
X25496D01*
X21496Y162460D02*Y160460D01*
X21996Y159960D01*
X23196D01*
X23696Y160460D02*X23196Y159960D01*
X23696Y161960D02*Y160460D01*
X21496Y161960D02*X25496D01*
Y162460D02*Y160460D01*
X24996Y159960D01*
X24196D02*X24996D01*
X23696Y160460D02*X24196Y159960D01*
X49055Y205087D02*Y203787D01*
X49755Y205787D02*X49055Y205087D01*
X49755Y205787D02*X52355D01*
X53055Y205087D01*
Y203787D01*
X49555Y202587D02*X52555D01*
X53055Y202087D01*
Y201087D01*
X52555Y200587D01*
X49555D02*X52555D01*
X49055Y201087D02*X49555Y200587D01*
X49055Y202087D02*Y201087D01*
X49555Y202587D02*X49055Y202087D01*
Y199387D02*X53055D01*
X49055Y196887D01*
X53055D01*
X49055Y195687D02*X53055D01*
X49055Y193187D01*
X53055D01*
X52555Y191987D02*X53055Y191487D01*
Y189987D01*
X52555Y189487D01*
X51555D02*X52555D01*
X49055Y191987D02*X51555Y189487D01*
X49055Y191987D02*Y189487D01*
X108110Y205087D02*Y203787D01*
X108810Y205787D02*X108110Y205087D01*
X108810Y205787D02*X111410D01*
X112110Y205087D01*
Y203787D01*
X108610Y202587D02*X111610D01*
X112110Y202087D01*
Y201087D01*
X111610Y200587D01*
X108610D02*X111610D01*
X108110Y201087D02*X108610Y200587D01*
X108110Y202087D02*Y201087D01*
X108610Y202587D02*X108110Y202087D01*
Y199387D02*X112110D01*
X108110Y196887D01*
X112110D01*
X108110Y195687D02*X112110D01*
X108110Y193187D01*
X112110D01*
X111310Y191987D02*X112110Y191187D01*
X108110D02*X112110D01*
X108110Y191987D02*Y190487D01*
X165579Y223080D02*Y221130D01*
X166629Y224130D02*X165579Y223080D01*
X166629Y224130D02*X170529D01*
X171579Y223080D01*
Y221130D01*
X170379Y219330D02*X171579Y218130D01*
X165579D02*X171579D01*
X165579Y219330D02*Y217080D01*
X157400Y163342D02*X160900D01*
X161400Y163842D01*
Y164842D02*Y163842D01*
Y164842D02*X160900Y165342D01*
X157400D02*X160900D01*
X157900Y166542D02*X157400Y167042D01*
Y168542D02*Y167042D01*
Y168542D02*X157900Y169042D01*
X158900D01*
X161400Y166542D02*X158900Y169042D01*
X161400D02*Y166542D01*
X160067Y51426D02*Y49476D01*
X161117Y52476D02*X160067Y51426D01*
X161117Y52476D02*X165017D01*
X166067Y51426D01*
Y49476D01*
X165317Y47676D02*X166067Y46926D01*
Y45426D01*
X165317Y44676D01*
X160067Y45426D02*X160817Y44676D01*
X160067Y46926D02*Y45426D01*
X160817Y47676D02*X160067Y46926D01*
X163367D02*Y45426D01*
X164117Y44676D02*X165317D01*
X160817D02*X162617D01*
X163367Y45426D01*
X164117Y44676D02*X163367Y45426D01*
X141957Y51033D02*Y49083D01*
X143007Y52083D02*X141957Y51033D01*
X143007Y52083D02*X146907D01*
X147957Y51033D01*
Y49083D01*
X147207Y47283D02*X147957Y46533D01*
Y44283D01*
X147207Y43533D01*
X145707D02*X147207D01*
X141957Y47283D02*X145707Y43533D01*
X141957Y47283D02*Y43533D01*
X331969Y139000D02*Y135500D01*
X332469Y135000D01*
X333469D01*
X333969Y135500D01*
Y139000D02*Y135500D01*
X335169Y138200D02*X335969Y139000D01*
Y135000D01*
X335169D02*X336669D01*
M02*
